# Blender 5.1.2
# www.blender.org
mtllib Picture.mtl
o Photo
v 0.124247 0.001899 0.075821
v 0.124247 0.005286 0.075821
v -0.123156 0.001899 0.075821
v -0.123156 0.005286 0.075821
v 0.120881 0.007079 -0.074990
v 0.119181 0.010174 -0.073843
v -0.117198 0.001899 -0.077928
v -0.117198 0.005286 -0.077928
v -0.055143 0.001899 0.075821
v 0.124247 0.003592 0.075821
v -0.055143 0.005286 0.075821
v -0.123156 0.003592 0.075821
v -0.119251 0.001899 0.053211
v -0.119251 0.005286 0.053211
v -0.117198 0.003592 -0.077928
v -0.000000 0.001899 -0.077928
v -0.000000 0.005286 -0.077928
v 0.120031 0.008627 -0.074417
v 0.124247 0.001899 -0.001053
v 0.124247 0.005286 -0.001053
v 0.124247 0.003592 -0.001053
v -0.119251 0.003592 0.053211
v -0.055143 0.003592 0.075821
v 0.062123 0.005286 -0.077928
v 0.124247 0.005286 0.037384
v 0.062123 0.005286 0.075821
v 0.124247 0.005286 -0.039491
v 0.062123 0.005286 -0.001053
v 0.000000 0.005286 0.037384
v 0.062123 0.006910 0.037384
v 0.093185 0.005286 -0.077928
v 0.124247 0.005286 0.056603
v 0.031062 0.006626 0.075821
v 0.124247 0.005286 -0.020272
v 0.093185 0.005286 -0.001053
v 0.031062 0.005286 -0.077928
v 0.124247 0.006626 0.018165
v 0.093185 0.005286 0.075821
v 0.124247 0.005286 -0.058709
v 0.000000 0.005286 0.056603
v 0.093185 0.006240 0.037384
v 0.031062 0.006626 0.037384
v 0.062123 0.006626 0.018165
v 0.062123 0.006538 0.056603
v 0.031062 0.006626 0.056603
v 0.031062 0.005286 0.018165
v 0.093185 0.006626 0.018165
v 0.093185 0.005286 -0.058709
v 0.093185 0.005286 0.056603
v 0.062123 0.001899 0.075821
v 0.124247 0.001899 -0.039491
v 0.062123 0.001899 -0.077928
v 0.124247 0.001899 0.037384
v 0.093185 0.001899 0.075821
v 0.124247 0.001899 -0.058709
v 0.031062 0.001899 -0.077928
v 0.124247 0.003240 0.018165
v 0.031062 0.003143 0.075821
v 0.124247 0.001899 -0.020272
v 0.093185 0.001899 -0.077928
v 0.124247 0.001899 0.056603
v 0.093185 0.001899 -0.058709
v 0.093185 0.003592 -0.077928
v 0.124247 0.003592 -0.058709
vn -0.0000 -0.0000 1.0000
vn -0.9999 -0.0000 -0.0157
vn 0.1026 0.1995 -0.9745
vn 1.0000 -0.0000 -0.0000
vn 0.0944 -0.9838 -0.1525
vn -0.0000 1.0000 -0.0000
vn 0.0793 0.1937 -0.9778
vn -0.9854 -0.0000 -0.1702
vn -0.0000 1.0000 -0.0001
vn -0.0001 1.0000 -0.0003
vn 0.0153 0.9989 0.0449
vn -0.0261 0.9988 -0.0422
vn 0.0230 0.9992 0.0325
vn 0.0216 0.9992 0.0325
vn 0.0247 0.9991 0.0332
vn -0.0032 0.9999 0.0097
vn -0.0431 0.9991 -0.0000
vn -0.0228 0.9992 -0.0328
vn -0.0009 1.0000 -0.0015
vn -0.0002 1.0000 -0.0003
vn -0.0000 0.9976 -0.0696
vn 0.0108 0.9999 0.0027
vn -0.0953 0.9835 0.1540
vn 0.0153 0.9996 0.0248
vn 0.0309 0.9989 0.0345
vn 0.0255 0.9991 0.0335
vn 0.0201 0.9993 0.0325
vn -0.0005 -1.0000 0.0019
vn -0.0051 -1.0000 0.0014
vn -0.0000 -0.0000 -1.0000
vn 0.9518 0.2740 -0.1381
vn 0.9403 0.2807 -0.1927
vn 0.0042 -1.0000 0.0023
vt 0.731761 0.950263
vt 0.736180 0.950263
vt 0.736180 0.954682
vt 0.731761 0.954682
vt 0.731761 0.959102
vt 0.736180 0.959102
vt 0.736180 0.963521
vt 0.731761 0.963521
vt 0.225481 0.043328
vt 0.148583 0.067496
vt 0.146069 0.064100
vt 0.731761 0.976779
vt 0.736180 0.976779
vt 0.736180 0.977884
vt 0.736180 0.978989
vt 0.736180 0.980094
vt 0.736180 0.981199
vt 0.731761 0.981199
vt 0.726236 0.971255
vt 0.727341 0.971255
vt 0.727341 0.972360
vt 0.726236 0.972360
vt 0.225481 0.839233
vt 0.225481 0.952929
vt 0.133598 0.952929
vt 0.133598 0.839233
vt 0.727341 0.976779
vt 0.727341 0.981199
vt 0.727341 0.980094
vt 0.727341 0.978989
vt 0.727341 0.977884
vt 0.727341 0.973465
vt 0.731761 0.973465
vt 0.727341 0.975674
vt 0.727341 0.974570
vt 0.736180 0.973465
vt 0.736180 0.974570
vt 0.736180 0.975674
vt 0.143555 0.060710
vt 0.727341 0.959102
vt 0.727341 0.963521
vt 0.727341 0.954682
vt 0.727341 0.950263
vt 0.727341 0.945844
vt 0.731761 0.945844
vt 0.727341 0.949158
vt 0.727341 0.948053
vt 0.727341 0.946949
vt 0.736180 0.945844
vt 0.736180 0.946949
vt 0.736180 0.948053
vt 0.736180 0.949158
vt 0.225481 0.157031
vt 0.133598 0.270727
vt 0.133598 0.157031
vt 0.225481 0.611828
vt 0.225481 0.725530
vt 0.133598 0.725530
vt 0.133598 0.611828
vt 0.409246 0.611828
vt 0.409246 0.725530
vt 0.317365 0.725530
vt 0.317365 0.611828
vt 0.409246 0.839233
vt 0.409246 0.952929
vt 0.317365 0.952929
vt 0.317365 0.839233
vt 0.501129 0.725530
vt 0.501129 0.839233
vt 0.664246 0.952929
vt 0.853882 0.819165
vt 0.865433 0.952929
vt 0.317365 0.498132
vt 0.225481 0.498132
vt 0.133598 0.498132
vt 0.133598 0.384429
vt 0.317365 0.043328
vt 0.409246 0.043328
vt 0.501129 0.043328
vt 0.847809 0.043328
vt 0.718502 0.969045
vt 0.727341 0.969045
vt 0.727341 0.970150
vt 0.725131 0.972360
vt 0.724027 0.972360
vt 0.722922 0.972360
vt 0.721817 0.972360
vt 0.720712 0.972360
vt 0.719607 0.972360
vt 0.718502 0.972360
vt 0.718502 0.971255
vt 0.718502 0.970150
vt 0.736180 0.967941
vt 0.736180 0.969045
vt 0.736180 0.970150
vt 0.736180 0.971255
vt 0.731761 0.971255
vt 0.727341 0.967941
vt 0.718502 0.967941
vt 0.718502 0.963521
vt 0.722922 0.963521
s 1
usemtl Material.002
f 23/1/1 11/2/1 4/3/1 12/4/1
f 22/5/2 14/6/2 8/7/2 15/8/2
f 63/9/3 31/9/3 6/10/3 18/11/3
f 21/12/4 20/13/4 37/14/4 25/15/4 32/16/4 2/17/4 10/18/4
f 62/19/5 60/20/5 5/21/5 55/22/5
f 49/23/6 38/24/6 2/25/6 32/26/6
f 19/27/4 21/12/4 10/18/4 1/28/4 61/29/4 53/30/4 57/31/4
f 55/32/4 64/33/4 21/12/4 19/27/4 59/34/4 51/35/4
f 64/33/4 39/36/4 27/37/4 34/38/4 20/13/4 21/12/4
f 60/9/7 63/9/7 18/11/7 5/39/7
f 13/40/2 22/5/2 15/8/2 7/41/2
f 3/42/8 12/4/8 22/5/8 13/40/8
f 12/4/8 4/3/8 14/6/8 22/5/8
f 9/43/1 23/1/1 12/4/1 3/42/1
f 1/44/1 10/45/1 23/1/1 9/43/1 58/46/1 50/47/1 54/48/1
f 10/45/1 2/49/1 38/50/1 26/51/1 33/52/1 11/2/1 23/1/1
f 48/53/9 27/54/10 39/55/6
f 47/56/11 41/57/11 25/58/11 37/59/11
f 46/60/12 42/61/12 30/62/12 43/63/12
f 45/64/13 33/65/13 26/66/14 44/67/15
f 42/61/16 45/64/16 44/67/16 30/62/16
f 29/68/17 40/69/17 45/64/17 42/61/17
f 40/69/18 11/70/18 33/65/18 45/64/18
f 14/71/19 4/72/19 11/70/19 40/69/19 29/68/19 42/61/19 46/60/19 43/63/19 28/73/19 35/74/19 20/75/19 34/76/19 27/54/10 48/53/9 24/77/20 36/78/19 17/79/19 8/80/19
f 35/74/21 47/56/21 37/59/21 20/75/21
f 28/73/21 43/63/21 47/56/21 35/74/21
f 43/63/22 30/62/22 41/57/22 47/56/22
f 31/9/23 48/53/23 39/55/23 6/10/23
f 24/77/20 48/53/9 31/9/6
f 41/57/24 49/23/24 32/26/24 25/58/24
f 30/62/25 44/67/15 49/23/26 41/57/25
f 44/67/15 26/66/14 38/24/27 49/23/26
f 58/81/28 56/82/28 52/83/29 60/20/29 62/19/29 55/22/29 51/84/29 59/85/29 19/86/29 57/87/29 53/88/29 61/89/29 1/90/29 54/91/29 50/92/29
f 15/8/30 8/7/30 17/93/30 36/94/30 24/95/30 31/96/30 63/97/30 60/20/30 52/83/30 56/82/30 16/98/30 7/41/30
f 5/39/31 18/11/31 64/55/31 55/55/31
f 18/11/32 6/10/32 39/55/32 64/55/32
f 9/99/33 3/100/33 13/101/33 7/41/33 16/98/33 56/82/28 58/81/28
