# Blender 5.1.2
# www.blender.org
mtllib Picture Overlay.mtl
o Overlay
v 0.124381 0.001321 0.077116
v 0.124383 0.005863 0.077114
v -0.124220 0.001330 0.075640
v -0.124222 0.005855 0.075637
v 0.121972 0.006688 -0.074934
v 0.120000 0.010945 -0.073655
v -0.117316 0.001320 -0.079185
v -0.117317 0.005864 -0.079185
v -0.055579 0.001193 0.076211
v 0.124512 0.003592 0.077245
v -0.055584 0.005993 0.076210
v -0.124358 0.003592 0.075752
v -0.120274 0.001207 0.052455
v -0.120275 0.005976 0.052452
v -0.117446 0.003592 -0.079317
v 0.000455 0.001191 -0.078633
v 0.000451 0.005993 -0.078634
v 0.121102 0.008921 -0.074431
v 0.124956 0.001190 -0.000334
v 0.124966 0.005985 -0.000360
v 0.125251 0.003592 -0.000333
v -0.120550 0.003592 0.052426
v -0.055584 0.003592 0.076503
v 0.062573 0.005993 -0.078277
v 0.124735 0.005995 0.038126
v 0.061697 0.005986 0.076891
v 0.125179 0.005993 -0.038773
v 0.062128 0.006285 -0.000732
v -0.000237 0.006286 0.037383
v 0.061910 0.007910 0.037742
v 0.093645 0.006021 -0.078070
v 0.124629 0.005990 0.057329
v 0.030622 0.007339 0.076699
v 0.125068 0.005993 -0.019555
v 0.093189 0.006285 -0.000553
v 0.031513 0.005993 -0.078456
v 0.124835 0.007346 0.018874
v 0.092751 0.005987 0.077068
v 0.125275 0.006007 -0.058026
v -0.000346 0.006286 0.056587
v 0.092987 0.007239 0.037946
v 0.030828 0.007626 0.037553
v 0.062014 0.007626 0.018494
v 0.061814 0.007537 0.056986
v 0.030725 0.007626 0.056783
v 0.030944 0.006286 0.018321
v 0.093086 0.007626 0.018677
v 0.093496 0.006285 -0.058135
v 0.092875 0.006286 0.057161
v 0.061679 0.001192 0.076884
v 0.125177 0.001190 -0.038771
v 0.062570 0.001191 -0.078276
v 0.124735 0.001190 0.038102
v 0.092740 0.001192 0.077063
v 0.125327 0.001238 -0.058088
v 0.031513 0.001191 -0.078455
v 0.124846 0.002531 0.018884
v 0.030621 0.002430 0.076700
v 0.125067 0.001190 -0.019553
v 0.093693 0.001243 -0.078143
v 0.124625 0.001190 0.057321
v 0.093566 0.000903 -0.058248
v 0.093682 0.003691 -0.078385
v 0.125570 0.003732 -0.058069
v 0.123809 0.001899 0.076534
v 0.123809 0.005286 0.076534
v -0.123590 0.001899 0.075112
v -0.123590 0.005286 0.075112
v 0.121310 0.007079 -0.074294
v 0.119603 0.010174 -0.073157
v -0.116748 0.001899 -0.078600
v -0.116748 0.005286 -0.078600
v -0.055578 0.001899 0.075503
v 0.123809 0.003592 0.076534
v -0.055578 0.005286 0.075503
v -0.123590 0.003592 0.075112
v -0.119555 0.001899 0.052525
v -0.119555 0.005286 0.052525
v -0.116748 0.003592 -0.078600
v 0.000448 0.001899 -0.077927
v 0.000448 0.005286 -0.077927
v 0.120457 0.008627 -0.073726
v 0.124251 0.001899 -0.000339
v 0.124251 0.005286 -0.000339
v 0.124251 0.003592 -0.000339
v -0.119555 0.003592 0.052525
v -0.055578 0.003592 0.075503
v 0.062570 0.005286 -0.077570
v 0.124030 0.005286 0.038097
v 0.061686 0.005286 0.076177
v 0.124472 0.005286 -0.038776
v 0.062128 0.005286 -0.000696
v -0.000215 0.005286 0.037383
v 0.061907 0.006910 0.037740
v 0.093631 0.005286 -0.077391
v 0.123920 0.005286 0.057316
v 0.030626 0.006626 0.075998
v 0.124361 0.005286 -0.019558
v 0.093190 0.005286 -0.000517
v 0.031509 0.005286 -0.077748
v 0.124141 0.006626 0.018879
v 0.092748 0.005286 0.076355
v 0.124582 0.005286 -0.057994
v -0.000325 0.005286 0.056602
v 0.092969 0.006240 0.037919
v 0.030847 0.006626 0.037562
v 0.062018 0.006626 0.018522
v 0.061797 0.006538 0.056959
v 0.030736 0.006626 0.056781
v 0.030957 0.005286 0.018343
v 0.093079 0.006626 0.018700
v 0.093521 0.005286 -0.058172
v 0.092858 0.005286 0.057138
v 0.061686 0.001899 0.076177
v 0.124472 0.001899 -0.038776
v 0.062570 0.001899 -0.077570
v 0.124030 0.001899 0.038097
v 0.092748 0.001899 0.076355
v 0.124582 0.001899 -0.057994
v 0.031509 0.001899 -0.077748
v 0.124141 0.003240 0.018879
v 0.030626 0.003143 0.075998
v 0.124361 0.001899 -0.019558
v 0.093631 0.001899 -0.077391
v 0.123920 0.001899 0.057316
v 0.093521 0.001899 -0.058172
v 0.093631 0.003592 -0.077391
v 0.124582 0.003592 -0.057994
vn -0.0071 -0.0059 1.0000
vn -0.0072 0.0714 0.9974
vn -0.0097 0.0873 0.9961
vn -0.0097 0.0004 1.0000
vn -0.9997 -0.0003 -0.0230
vn -0.9959 0.0870 -0.0230
vn 0.0989 0.2662 -0.9588
vn 1.0000 -0.0029 0.0071
vn 0.9958 0.0911 0.0069
vn 0.9981 0.0607 0.0082
vn 0.9999 -0.0098 0.0086
vn 0.1036 -0.9811 -0.1637
vn 0.0066 0.9999 0.0108
vn 0.9952 -0.0973 0.0073
vn 0.9967 -0.0802 0.0089
vn 0.9935 -0.1136 0.0058
vn 1.0000 0.0036 0.0057
vn 0.9925 0.1224 0.0056
vn 0.1128 0.0765 -0.9907
vn -0.9959 -0.0876 -0.0230
vn -0.9829 -0.0848 -0.1636
vn -0.9864 -0.0005 -0.1643
vn -0.9830 0.0837 -0.1637
vn -0.0070 -0.0833 0.9965
vn -0.0097 -0.0866 0.9962
vn -0.0043 -0.0800 0.9968
vn -0.0045 -0.0121 0.9999
vn -0.0048 0.0558 0.9984
vn -0.0001 1.0000 -0.0037
vn 0.0019 1.0000 -0.0009
vn 0.0088 1.0000 0.0007
vn 0.0237 0.9987 0.0452
vn -0.0259 0.9988 -0.0423
vn 0.0229 0.9987 0.0462
vn 0.0214 0.9987 0.0464
vn 0.0245 0.9988 0.0425
vn -0.0032 0.9999 0.0097
vn -0.0431 0.9991 -0.0002
vn -0.0228 0.9996 -0.0173
vn -0.0022 1.0000 -0.0027
vn -0.0014 1.0000 -0.0037
vn 0.0050 0.9976 -0.0698
vn 0.0095 0.9975 -0.0700
vn 0.0004 0.9976 -0.0695
vn 0.0108 0.9999 0.0027
vn -0.0899 0.9857 0.1425
vn -0.0008 0.9999 -0.0133
vn 0.0241 0.9994 0.0251
vn 0.0307 0.9989 0.0346
vn 0.0253 0.9989 0.0406
vn 0.0198 0.9987 0.0465
vn -0.0007 -1.0000 0.0019
vn -0.0051 -1.0000 0.0017
vn 0.0047 0.0010 -1.0000
vn 0.9721 0.1488 -0.1813
vn 0.9258 0.3344 -0.1761
vn 0.0036 -1.0000 0.0022
vn 0.0057 -0.0000 -1.0000
vn 0.9998 -0.0000 0.0214
vn -0.1082 -0.1995 0.9739
vn -1.0000 -0.0000 -0.0057
vn -0.0952 0.9838 0.1520
vn -0.0000 -1.0000 -0.0000
vn -0.0850 -0.1937 0.9774
vn 0.9844 -0.0000 0.1759
vn -0.0003 -1.0000 0.0004
vn 0.0011 -1.0000 0.0003
vn -0.0151 -0.9989 -0.0449
vn 0.0259 -0.9988 0.0423
vn -0.0228 -0.9992 -0.0327
vn -0.0245 -0.9991 -0.0333
vn -0.0214 -0.9992 -0.0327
vn 0.0032 -0.9999 -0.0097
vn 0.0431 -0.9991 0.0002
vn 0.0226 -0.9992 0.0329
vn 0.0009 -1.0000 0.0015
vn 0.0001 -1.0000 0.0022
vn -0.0004 -0.9976 0.0696
vn -0.0108 -0.9999 -0.0027
vn 0.0962 -0.9835 -0.1534
vn -0.0152 -0.9996 -0.0249
vn -0.0307 -0.9989 -0.0346
vn -0.0253 -0.9991 -0.0337
vn -0.0200 -0.9993 -0.0327
vn 0.0005 1.0000 -0.0019
vn 0.0051 1.0000 -0.0014
vn -0.0057 -0.0000 1.0000
vn -0.9525 -0.2740 0.1326
vn -0.9413 -0.2807 0.1872
vn -0.0041 1.0000 -0.0024
vt 0.670535 0.421883
vt 0.670540 0.421175
vt 0.836559 0.420744
vt 0.836886 0.421022
vt 0.731761 0.959102
vt 0.736180 0.959102
vt 0.736180 0.963521
vt 0.731761 0.963521
vt 0.311668 0.045191
vt 0.311753 0.045954
vt 0.247949 0.056265
vt 0.245294 0.054373
vt 0.731761 0.976779
vt 0.736180 0.976779
vt 0.736180 0.977884
vt 0.736180 0.978989
vt 0.736180 0.980094
vt 0.736180 0.981199
vt 0.731761 0.981199
vt 0.726236 0.971255
vt 0.727341 0.971255
vt 0.727341 0.972360
vt 0.726236 0.972360
vt 0.311737 0.373038
vt 0.311760 0.421188
vt 0.235252 0.420861
vt 0.234932 0.373003
vt 0.727341 0.976779
vt 0.727341 0.981199
vt 0.727341 0.980094
vt 0.727341 0.978989
vt 0.727341 0.977884
vt 0.727341 0.973465
vt 0.731761 0.973465
vt 0.727341 0.975674
vt 0.727341 0.974570
vt 0.736180 0.973465
vt 0.736180 0.974570
vt 0.736180 0.975674
vt 0.731761 0.971255
vt 0.731761 0.972360
vt 0.727341 0.959102
vt 0.727341 0.963521
vt 0.727341 0.954682
vt 0.731761 0.954682
vt 0.827335 0.364612
vt 0.827999 0.364552
vt 0.727341 0.950263
vt 0.731761 0.950263
vt 0.727341 0.945844
vt 0.731761 0.945844
vt 0.727341 0.949158
vt 0.727341 0.948053
vt 0.727341 0.946949
vt 0.234938 0.421174
vt 0.386870 0.421191
vt 0.462033 0.421159
vt 0.311836 0.094171
vt 0.234939 0.140560
vt 0.234974 0.093993
vt 0.311762 0.279958
vt 0.311734 0.326562
vt 0.234943 0.326557
vt 0.234969 0.279991
vt 0.462065 0.279960
vt 0.462077 0.326477
vt 0.386899 0.326500
vt 0.386916 0.279946
vt 0.462061 0.372988
vt 0.386864 0.373048
vt 0.537215 0.326496
vt 0.537213 0.372946
vt 0.386907 0.233445
vt 0.311779 0.233445
vt 0.234920 0.233471
vt 0.234939 0.187044
vt 0.386908 0.045884
vt 0.462034 0.045884
vt 0.537163 0.045884
vt 0.822010 0.046188
vt 0.718502 0.969045
vt 0.727341 0.969045
vt 0.727341 0.970150
vt 0.725131 0.972360
vt 0.724027 0.972360
vt 0.722922 0.972360
vt 0.721817 0.972360
vt 0.720712 0.972360
vt 0.719607 0.972360
vt 0.718502 0.972360
vt 0.718502 0.971255
vt 0.718502 0.970150
vt 0.736180 0.967941
vt 0.736180 0.969045
vt 0.736180 0.970150
vt 0.736180 0.971255
vt 0.727341 0.967941
vt 0.736180 0.972360
vt 0.718502 0.967941
vt 0.718502 0.963521
vt 0.722922 0.963521
vt 0.736180 0.954682
vt 0.736180 0.950263
vt 0.743914 0.971255
vt 0.743914 0.972360
vt 0.745019 0.972360
vt 0.745019 0.971255
vt 0.736180 0.949158
vt 0.736180 0.948053
vt 0.736180 0.946949
vt 0.736180 0.945844
vt 0.311777 0.094080
vt 0.236649 0.094080
vt 0.236649 0.140562
vt 0.741704 0.971255
vt 0.741704 0.972360
vt 0.742809 0.972360
vt 0.742809 0.971255
vt 0.741704 0.969045
vt 0.741704 0.970150
vt 0.742809 0.970150
vt 0.742809 0.969045
vt 0.743914 0.969045
vt 0.743914 0.970150
vt 0.745019 0.970150
vt 0.745019 0.969045
vt 0.742809 0.967941
vt 0.743914 0.967941
vt 0.745019 0.967941
vt 0.740599 0.963521
vt 0.737285 0.971255
vt 0.738390 0.972360
vt 0.739494 0.972360
vt 0.740599 0.972360
vt 0.740599 0.971255
vt 0.740599 0.970150
vt 0.745019 0.963521
vt 0.311777 0.047595
vt 0.248902 0.057475
vt 0.386906 0.047595
s 1
usemtl Material.002
f 23/1/1 11/2/2 4/3/3 12/4/4
f 22/5/5 14/6/6 8/7/6 15/8/5
f 63/9/7 31/10/7 6/11/7 18/12/7
f 21/13/8 20/14/9 37/15/10 25/16/10 32/17/10 2/18/10 10/19/11
f 62/20/12 60/21/12 5/22/12 55/23/12
f 49/24/13 38/25/13 2/26/13 32/27/13
f 19/28/14 21/13/8 10/19/11 1/29/15 61/30/15 53/31/15 57/32/15
f 55/33/16 64/34/17 21/13/8 19/28/14 59/35/16 51/36/16
f 64/34/17 39/37/18 27/38/18 34/39/18 20/14/9 21/13/8
f 60/21/19 63/40/19 18/41/19 5/22/19
f 13/42/20 22/5/5 15/8/5 7/43/20
f 3/44/21 12/45/22 22/5/22 13/42/21
f 12/4/22 4/3/23 14/46/23 22/47/22
f 9/48/24 23/49/1 12/45/4 3/44/25
f 1/50/26 10/51/27 23/49/1 9/48/24 58/52/26 50/53/26 54/54/26
f 10/55/27 2/26/28 38/25/28 26/56/28 33/57/28 11/2/2 23/1/1
f 48/58/29 27/59/30 39/60/31
f 47/61/32 41/62/32 25/63/32 37/64/32
f 46/65/33 42/66/33 30/67/33 43/68/33
f 45/69/34 33/57/34 26/56/35 44/70/36
f 42/66/37 45/69/37 44/70/37 30/67/37
f 29/71/38 40/72/38 45/69/38 42/66/38
f 40/72/39 11/2/39 33/57/39 45/69/39
f 14/46/40 4/3/40 11/2/40 40/72/40 29/71/40 42/66/40 46/65/40 43/68/40 28/73/40 35/74/40 20/75/40 34/76/40 27/59/30 48/58/29 24/77/41 36/78/40 17/79/40 8/80/40
f 35/74/42 47/61/42 37/64/43 20/75/43
f 28/73/44 43/68/44 47/61/42 35/74/42
f 43/68/45 30/67/45 41/62/45 47/61/45
f 31/10/46 48/58/46 39/60/46 6/11/46
f 24/77/41 48/58/29 31/10/47
f 41/62/48 49/24/48 32/27/48 25/63/48
f 30/67/49 44/70/36 49/24/50 41/62/49
f 44/70/36 26/56/35 38/25/51 49/24/50
f 58/81/52 56/82/52 52/83/53 60/21/53 62/20/53 55/23/53 51/84/53 59/85/53 19/86/53 57/87/53 53/88/53 61/89/53 1/90/53 54/91/53 50/92/53
f 15/8/54 8/7/54 17/93/54 36/94/54 24/95/54 31/96/54 63/40/54 60/21/54 52/83/54 56/82/54 16/97/54 7/43/54
f 5/22/55 18/41/55 64/34/55 55/33/55
f 18/41/56 6/98/56 39/37/56 64/34/56
f 9/99/57 3/100/57 13/101/57 7/43/57 16/97/57 56/82/52 58/81/52
f 87/49/58 76/45/58 68/102/58 75/103/58
f 86/5/59 79/8/59 72/7/59 78/6/59
f 127/40/60 82/41/60 70/98/60 95/96/60
f 85/13/61 74/19/61 66/18/61 96/17/61 89/16/61 101/15/61 84/14/61
f 126/20/62 119/23/62 69/22/62 124/21/62
f 113/104/63 96/105/63 66/106/63 102/107/63
f 83/28/61 121/32/61 117/31/61 125/30/61 65/29/61 74/19/61 85/13/61
f 119/33/61 115/36/61 123/35/61 83/28/61 85/13/61 128/34/61
f 128/34/61 85/13/61 84/14/61 98/39/61 91/38/61 103/37/61
f 124/21/64 69/22/64 82/41/64 127/40/64
f 77/42/59 71/43/59 79/8/59 86/5/59
f 67/44/65 77/42/65 86/5/65 76/45/65
f 76/45/65 86/5/65 78/6/65 68/102/65
f 73/48/58 67/44/58 76/45/58 87/49/58
f 65/50/58 118/54/58 114/53/58 122/52/58 73/48/58 87/49/58 74/51/58
f 74/51/58 87/49/58 75/103/58 97/108/58 90/109/58 102/110/58 66/111/58
f 112/112/66 103/113/63 91/114/67
f 111/115/68 101/116/68 89/117/68 105/118/68
f 110/119/69 107/120/69 94/121/69 106/122/69
f 109/123/70 108/124/71 90/125/72 97/126/70
f 106/122/73 94/121/73 108/124/73 109/123/73
f 93/127/74 106/122/74 109/123/74 104/128/74
f 104/128/75 109/123/75 97/126/75 75/129/75
f 78/130/76 72/7/76 81/93/76 100/94/76 88/95/77 112/131/66 91/132/67 98/133/76 84/134/76 99/135/76 92/136/76 107/120/76 110/119/76 106/122/76 93/127/76 104/128/76 75/129/76 68/137/76
f 99/135/78 84/134/78 101/116/78 111/115/78
f 92/136/78 99/135/78 111/115/78 107/120/78
f 107/120/79 111/115/79 105/118/79 94/121/79
f 95/138/80 70/139/80 103/113/80 112/112/80
f 88/140/77 95/138/63 112/112/66
f 105/118/81 89/117/81 96/105/81 113/104/81
f 94/121/82 105/118/82 113/104/83 108/124/71
f 108/124/71 113/104/83 102/107/84 90/125/72
f 122/81/85 114/92/86 118/91/86 65/90/86 125/89/86 117/88/86 121/87/86 83/86/86 123/85/86 115/84/86 119/23/86 126/20/86 124/21/86 116/83/86 120/82/85
f 79/8/87 71/43/87 80/97/87 120/82/87 116/83/87 124/21/87 127/40/87 95/96/87 88/95/87 100/94/87 81/93/87 72/7/87
f 69/22/88 119/33/88 128/34/88 82/41/88
f 82/41/89 128/34/89 103/37/89 70/98/89
f 73/99/90 122/81/85 120/82/85 80/97/90 71/43/90 77/101/90 67/100/90
