# Blender 5.1.2
# www.blender.org
mtllib Picture Overlay.mtl
o Photo_Overlay
v 0.124822 0.001321 0.076400
v 0.124824 0.005863 0.076398
v -0.123783 0.001330 0.076352
v -0.123786 0.005855 0.076350
v 0.121539 0.006688 -0.075633
v 0.119575 0.010945 -0.074343
v -0.117769 0.001320 -0.078509
v -0.117770 0.005864 -0.078510
v -0.055140 0.001193 0.076529
v 0.124954 0.003592 0.076528
v -0.055145 0.005993 0.076528
v -0.123921 0.003592 0.076465
v -0.119970 0.001207 0.053145
v -0.119972 0.005976 0.053143
v -0.117900 0.003592 -0.078641
v 0.000003 0.001191 -0.078634
v -0.000001 0.005993 -0.078636
v 0.120672 0.008921 -0.075126
v 0.124952 0.001190 -0.001052
v 0.124962 0.005985 -0.001078
v 0.125247 0.003592 -0.001053
v -0.120247 0.003592 0.053118
v -0.055143 0.003592 0.076821
v 0.062122 0.005993 -0.078636
v 0.124952 0.005995 0.037409
v 0.062138 0.005986 0.076535
v 0.124954 0.005993 -0.039492
v 0.062123 0.006285 -0.001089
v -0.000022 0.006286 0.037383
v 0.062126 0.007910 0.037385
v 0.093195 0.006021 -0.078607
v 0.124957 0.005990 0.056612
v 0.031062 0.007339 0.076522
v 0.124954 0.005993 -0.020273
v 0.093185 0.006285 -0.001089
v 0.031061 0.005993 -0.078636
v 0.124941 0.007346 0.018156
v 0.093192 0.005987 0.076534
v 0.124940 0.006007 -0.058745
v -0.000021 0.006286 0.056588
v 0.093203 0.007239 0.037411
v 0.031044 0.007626 0.037375
v 0.062119 0.007626 0.018137
v 0.062141 0.007537 0.056630
v 0.031050 0.007626 0.056605
v 0.031048 0.006286 0.018143
v 0.093192 0.007626 0.018142
v 0.093161 0.006285 -0.058671
v 0.093202 0.006286 0.056626
v 0.062119 0.001192 0.076529
v 0.124952 0.001190 -0.039490
v 0.062119 0.001191 -0.078635
v 0.124952 0.001190 0.037385
v 0.093181 0.001192 0.076529
v 0.124991 0.001238 -0.058807
v 0.031062 0.001191 -0.078634
v 0.124952 0.002531 0.018166
v 0.031062 0.002430 0.076523
v 0.124952 0.001190 -0.020271
v 0.093242 0.001243 -0.078680
v 0.124952 0.001190 0.056604
v 0.093230 0.000903 -0.058785
v 0.093230 0.003691 -0.078922
v 0.125234 0.003732 -0.058790
v 0.124247 0.001899 0.075821
v 0.124247 0.005286 0.075821
v -0.123156 0.001899 0.075821
v -0.123156 0.005286 0.075821
v 0.120881 0.007079 -0.074990
v 0.119181 0.010174 -0.073843
v -0.117198 0.001899 -0.077928
v -0.117198 0.005286 -0.077928
v -0.055143 0.001899 0.075821
v 0.124247 0.003592 0.075821
v -0.055143 0.005286 0.075821
v -0.123156 0.003592 0.075821
v -0.119251 0.001899 0.053211
v -0.119251 0.005286 0.053211
v -0.117198 0.003592 -0.077928
v -0.000000 0.001899 -0.077928
v -0.000000 0.005286 -0.077928
v 0.120031 0.008627 -0.074417
v 0.124247 0.001899 -0.001053
v 0.124247 0.005286 -0.001053
v 0.124247 0.003592 -0.001053
v -0.119251 0.003592 0.053211
v -0.055143 0.003592 0.075821
v 0.062123 0.005286 -0.077928
v 0.124247 0.005286 0.037384
v 0.062123 0.005286 0.075821
v 0.124247 0.005286 -0.039491
v 0.062123 0.005286 -0.001053
v 0.000000 0.005286 0.037384
v 0.062123 0.006910 0.037384
v 0.093185 0.005286 -0.077928
v 0.124247 0.005286 0.056603
v 0.031062 0.006626 0.075821
v 0.124247 0.005286 -0.020272
v 0.093185 0.005286 -0.001053
v 0.031062 0.005286 -0.077928
v 0.124247 0.006626 0.018165
v 0.093185 0.005286 0.075821
v 0.124247 0.005286 -0.058709
v 0.000000 0.005286 0.056603
v 0.093185 0.006240 0.037384
v 0.031062 0.006626 0.037384
v 0.062123 0.006626 0.018165
v 0.062123 0.006538 0.056603
v 0.031062 0.006626 0.056603
v 0.031062 0.005286 0.018165
v 0.093185 0.006626 0.018165
v 0.093185 0.005286 -0.058709
v 0.093185 0.005286 0.056603
v 0.062123 0.001899 0.075821
v 0.124247 0.001899 -0.039491
v 0.062123 0.001899 -0.077928
v 0.124247 0.001899 0.037384
v 0.093185 0.001899 0.075821
v 0.124247 0.001899 -0.058709
v 0.031062 0.001899 -0.077928
v 0.124247 0.003240 0.018165
v 0.031062 0.003143 0.075821
v 0.124247 0.001899 -0.020272
v 0.093185 0.001899 -0.077928
v 0.124247 0.001899 0.056603
v 0.093185 0.001899 -0.058709
v 0.093185 0.003592 -0.077928
v 0.124247 0.003592 -0.058709
vn -0.0014 -0.0059 1.0000
vn -0.0015 0.0714 0.9974
vn -0.0040 0.0873 0.9962
vn -0.0040 0.0004 1.0000
vn -0.9999 -0.0003 -0.0173
vn -0.9961 0.0870 -0.0172
vn 0.0934 0.2662 -0.9594
vn 1.0000 -0.0029 0.0014
vn 0.9958 0.0911 0.0012
vn 0.9982 0.0607 0.0025
vn 0.9999 -0.0098 0.0028
vn 0.1027 -0.9811 -0.1643
vn 0.0066 0.9999 0.0107
vn 0.9953 -0.0973 0.0016
vn 0.9968 -0.0802 0.0032
vn 0.9935 -0.1136 -0.0000
vn 1.0000 0.0036 -0.0000
vn 0.9925 0.1224 -0.0001
vn 0.1071 0.0765 -0.9913
vn -0.9960 -0.0876 -0.0172
vn -0.9838 -0.0848 -0.1580
vn -0.9873 -0.0005 -0.1586
vn -0.9839 0.0837 -0.1580
vn -0.0013 -0.0833 0.9965
vn -0.0039 -0.0866 0.9962
vn 0.0014 -0.0800 0.9968
vn 0.0012 -0.0121 0.9999
vn 0.0010 0.0558 0.9984
vn -0.0001 1.0000 -0.0037
vn 0.0019 1.0000 -0.0009
vn 0.0088 1.0000 0.0007
vn 0.0240 0.9987 0.0450
vn -0.0261 0.9988 -0.0422
vn 0.0231 0.9987 0.0461
vn 0.0216 0.9987 0.0463
vn 0.0247 0.9988 0.0423
vn -0.0032 0.9999 0.0097
vn -0.0431 0.9991 -0.0000
vn -0.0229 0.9996 -0.0171
vn -0.0022 1.0000 -0.0027
vn -0.0014 1.0000 -0.0037
vn 0.0046 0.9976 -0.0698
vn 0.0091 0.9975 -0.0700
vn -0.0000 0.9976 -0.0695
vn 0.0108 0.9999 0.0026
vn -0.0890 0.9857 0.1430
vn -0.0009 0.9999 -0.0133
vn 0.0242 0.9994 0.0249
vn 0.0309 0.9989 0.0344
vn 0.0255 0.9989 0.0404
vn 0.0201 0.9987 0.0464
vn -0.0007 -1.0000 0.0020
vn -0.0051 -1.0000 0.0018
vn -0.0010 0.0010 -1.0000
vn 0.9710 0.1488 -0.1869
vn 0.9248 0.3344 -0.1814
vn 0.0036 -1.0000 0.0022
vn -0.0000 -0.0000 -1.0000
vn 0.9999 -0.0000 0.0157
vn -0.1026 -0.1995 0.9745
vn -1.0000 -0.0000 -0.0000
vn -0.0944 0.9838 0.1525
vn -0.0000 -1.0000 -0.0000
vn -0.0793 -0.1937 0.9778
vn 0.9854 -0.0000 0.1702
vn -0.0003 -1.0000 0.0004
vn 0.0011 -1.0000 0.0003
vn -0.0153 -0.9989 -0.0449
vn 0.0261 -0.9988 0.0422
vn -0.0230 -0.9992 -0.0325
vn -0.0247 -0.9991 -0.0332
vn -0.0216 -0.9992 -0.0325
vn 0.0032 -0.9999 -0.0097
vn 0.0431 -0.9991 -0.0000
vn 0.0228 -0.9992 0.0328
vn 0.0009 -1.0000 0.0015
vn 0.0002 -1.0000 0.0022
vn -0.0000 -0.9976 0.0696
vn -0.0108 -0.9999 -0.0027
vn 0.0953 -0.9835 -0.1540
vn -0.0153 -0.9996 -0.0248
vn -0.0309 -0.9989 -0.0345
vn -0.0255 -0.9991 -0.0335
vn -0.0201 -0.9993 -0.0325
vn 0.0005 1.0000 -0.0019
vn 0.0051 1.0000 -0.0014
vn -0.0000 -0.0000 1.0000
vn -0.9518 -0.2740 0.1381
vn -0.9403 -0.2807 0.1927
vn -0.0042 1.0000 -0.0023
vt 0.731761 0.950263
vt 0.736180 0.950263
vt 0.736180 0.954682
vt 0.731761 0.954682
vt 0.731761 0.959102
vt 0.736180 0.959102
vt 0.736180 0.963521
vt 0.731761 0.963521
vt 0.225481 0.043328
vt 0.148583 0.067496
vt 0.146069 0.064100
vt 0.731761 0.976779
vt 0.736180 0.976779
vt 0.736180 0.977884
vt 0.736180 0.978989
vt 0.736180 0.980094
vt 0.736180 0.981199
vt 0.731761 0.981199
vt 0.726236 0.971255
vt 0.727341 0.971255
vt 0.727341 0.972360
vt 0.726236 0.972360
vt 0.225481 0.839233
vt 0.225481 0.952929
vt 0.133598 0.952929
vt 0.133598 0.839233
vt 0.727341 0.976779
vt 0.727341 0.981199
vt 0.727341 0.980094
vt 0.727341 0.978989
vt 0.727341 0.977884
vt 0.727341 0.973465
vt 0.731761 0.973465
vt 0.727341 0.975674
vt 0.727341 0.974570
vt 0.736180 0.973465
vt 0.736180 0.974570
vt 0.736180 0.975674
vt 0.143555 0.060710
vt 0.727341 0.959102
vt 0.727341 0.963521
vt 0.727341 0.954682
vt 0.727341 0.950263
vt 0.727341 0.945844
vt 0.731761 0.945844
vt 0.727341 0.949158
vt 0.727341 0.948053
vt 0.727341 0.946949
vt 0.736180 0.945844
vt 0.736180 0.946949
vt 0.736180 0.948053
vt 0.736180 0.949158
vt 0.225481 0.157031
vt 0.133598 0.270727
vt 0.133598 0.157031
vt 0.225481 0.611828
vt 0.225481 0.725530
vt 0.133598 0.725530
vt 0.133598 0.611828
vt 0.409246 0.611828
vt 0.409246 0.725530
vt 0.317365 0.725530
vt 0.317365 0.611828
vt 0.409246 0.839233
vt 0.409246 0.952929
vt 0.317365 0.952929
vt 0.317365 0.839233
vt 0.501129 0.725530
vt 0.501129 0.839233
vt 0.664246 0.952929
vt 0.853882 0.819165
vt 0.865433 0.952929
vt 0.317365 0.498132
vt 0.225481 0.498132
vt 0.133598 0.498132
vt 0.133598 0.384429
vt 0.317365 0.043328
vt 0.409246 0.043328
vt 0.501129 0.043328
vt 0.847809 0.043328
vt 0.718502 0.969045
vt 0.727341 0.969045
vt 0.727341 0.970150
vt 0.725131 0.972360
vt 0.724027 0.972360
vt 0.722922 0.972360
vt 0.721817 0.972360
vt 0.720712 0.972360
vt 0.719607 0.972360
vt 0.718502 0.972360
vt 0.718502 0.971255
vt 0.718502 0.970150
vt 0.736180 0.967941
vt 0.736180 0.969045
vt 0.736180 0.970150
vt 0.736180 0.971255
vt 0.731761 0.971255
vt 0.727341 0.967941
vt 0.718502 0.967941
vt 0.718502 0.963521
vt 0.722922 0.963521
s 1
usemtl Material.003
f 23/1/1 11/2/2 4/3/3 12/4/4
f 22/5/5 14/6/6 8/7/6 15/8/5
f 63/9/7 31/9/7 6/10/7 18/11/7
f 21/12/8 20/13/9 37/14/10 25/15/10 32/16/10 2/17/10 10/18/11
f 62/19/12 60/20/12 5/21/12 55/22/12
f 49/23/13 38/24/13 2/25/13 32/26/13
f 19/27/14 21/12/8 10/18/11 1/28/15 61/29/15 53/30/15 57/31/15
f 55/32/16 64/33/17 21/12/8 19/27/14 59/34/16 51/35/16
f 64/33/17 39/36/18 27/37/18 34/38/18 20/13/9 21/12/8
f 60/9/19 63/9/19 18/11/19 5/39/19
f 13/40/20 22/5/5 15/8/5 7/41/20
f 3/42/21 12/4/22 22/5/22 13/40/21
f 12/4/22 4/3/23 14/6/23 22/5/22
f 9/43/24 23/1/1 12/4/4 3/42/25
f 1/44/26 10/45/27 23/1/1 9/43/24 58/46/26 50/47/26 54/48/26
f 10/45/27 2/49/28 38/50/28 26/51/28 33/52/28 11/2/2 23/1/1
f 48/53/29 27/54/30 39/55/31
f 47/56/32 41/57/32 25/58/32 37/59/32
f 46/60/33 42/61/33 30/62/33 43/63/33
f 45/64/34 33/65/34 26/66/35 44/67/36
f 42/61/37 45/64/37 44/67/37 30/62/37
f 29/68/38 40/69/38 45/64/38 42/61/38
f 40/69/39 11/70/39 33/65/39 45/64/39
f 14/71/40 4/72/40 11/70/40 40/69/40 29/68/40 42/61/40 46/60/40 43/63/40 28/73/40 35/74/40 20/75/40 34/76/40 27/54/30 48/53/29 24/77/41 36/78/40 17/79/40 8/80/40
f 35/74/42 47/56/42 37/59/43 20/75/43
f 28/73/44 43/63/44 47/56/42 35/74/42
f 43/63/45 30/62/45 41/57/45 47/56/45
f 31/9/46 48/53/46 39/55/46 6/10/46
f 24/77/41 48/53/29 31/9/47
f 41/57/48 49/23/48 32/26/48 25/58/48
f 30/62/49 44/67/36 49/23/50 41/57/49
f 44/67/36 26/66/35 38/24/51 49/23/50
f 58/81/52 56/82/52 52/83/53 60/20/53 62/19/53 55/22/53 51/84/53 59/85/53 19/86/53 57/87/53 53/88/53 61/89/53 1/90/53 54/91/53 50/92/53
f 15/8/54 8/7/54 17/93/54 36/94/54 24/95/54 31/96/54 63/97/54 60/20/54 52/83/54 56/82/54 16/98/54 7/41/54
f 5/39/55 18/11/55 64/55/55 55/55/55
f 18/11/56 6/10/56 39/55/56 64/55/56
f 9/99/57 3/100/57 13/101/57 7/41/57 16/98/57 56/82/52 58/81/52
f 87/1/58 76/4/58 68/3/58 75/2/58
f 86/5/59 79/8/59 72/7/59 78/6/59
f 127/9/60 82/11/60 70/10/60 95/9/60
f 85/12/61 74/18/61 66/17/61 96/16/61 89/15/61 101/14/61 84/13/61
f 126/19/62 119/22/62 69/21/62 124/20/62
f 113/23/63 96/26/63 66/25/63 102/24/63
f 83/27/61 121/31/61 117/30/61 125/29/61 65/28/61 74/18/61 85/12/61
f 119/32/61 115/35/61 123/34/61 83/27/61 85/12/61 128/33/61
f 128/33/61 85/12/61 84/13/61 98/38/61 91/37/61 103/36/61
f 124/9/64 69/39/64 82/11/64 127/9/64
f 77/40/59 71/41/59 79/8/59 86/5/59
f 67/42/65 77/40/65 86/5/65 76/4/65
f 76/4/65 86/5/65 78/6/65 68/3/65
f 73/43/58 67/42/58 76/4/58 87/1/58
f 65/44/58 118/48/58 114/47/58 122/46/58 73/43/58 87/1/58 74/45/58
f 74/45/58 87/1/58 75/2/58 97/52/58 90/51/58 102/50/58 66/49/58
f 112/53/66 103/55/63 91/54/67
f 111/56/68 101/59/68 89/58/68 105/57/68
f 110/60/69 107/63/69 94/62/69 106/61/69
f 109/64/70 108/67/71 90/66/72 97/65/70
f 106/61/73 94/62/73 108/67/73 109/64/73
f 93/68/74 106/61/74 109/64/74 104/69/74
f 104/69/75 109/64/75 97/65/75 75/70/75
f 78/71/76 72/80/76 81/79/76 100/78/76 88/77/77 112/53/66 91/54/67 98/76/76 84/75/76 99/74/76 92/73/76 107/63/76 110/60/76 106/61/76 93/68/76 104/69/76 75/70/76 68/72/76
f 99/74/78 84/75/78 101/59/78 111/56/78
f 92/73/78 99/74/78 111/56/78 107/63/78
f 107/63/79 111/56/79 105/57/79 94/62/79
f 95/9/80 70/10/80 103/55/80 112/53/80
f 88/77/77 95/9/63 112/53/66
f 105/57/81 89/58/81 96/26/81 113/23/81
f 94/62/82 105/57/82 113/23/83 108/67/71
f 108/67/71 113/23/83 102/24/84 90/66/72
f 122/81/85 114/92/86 118/91/86 65/90/86 125/89/86 117/88/86 121/87/86 83/86/86 123/85/86 115/84/86 119/22/86 126/19/86 124/20/86 116/83/86 120/82/85
f 79/8/87 71/41/87 80/98/87 120/82/87 116/83/87 124/20/87 127/97/87 95/96/87 88/95/87 100/94/87 81/93/87 72/7/87
f 69/39/88 119/55/88 128/55/88 82/11/88
f 82/11/89 128/55/89 103/55/89 70/10/89
f 73/99/90 122/81/85 120/82/85 80/98/90 71/41/90 77/101/90 67/100/90
