# Blender 5.1.2
# www.blender.org
mtllib salakot Overlay.mtl
o Salakot_Overlay
v -0.000000 0.453423 -0.018226
v 0.012888 0.453423 -0.012888
v 0.018226 0.453423 0.000000
v 0.012888 0.453423 0.012888
v -0.000000 0.453423 0.018226
v -0.012888 0.453423 0.012888
v -0.018226 0.453423 0.000000
v -0.012888 0.453423 -0.012888
v 0.000000 0.502000 0.000000
v -0.000000 -0.217341 -0.750990
v 0.531030 -0.217341 -0.531030
v 0.750989 -0.217341 -0.000000
v 0.531030 -0.217341 0.531030
v -0.000000 -0.217341 0.750989
v -0.531030 -0.217341 0.531030
v -0.750989 -0.217341 -0.000000
v -0.531030 -0.217341 -0.531030
v -0.000108 -0.499005 -1.498268
v 1.059508 -0.498637 -1.059758
v 1.498884 -0.498345 -0.000118
v 1.060022 -0.498233 1.059975
v -0.000050 -0.498244 1.499043
v -1.059923 -0.498389 1.059733
v -1.498476 -0.498717 -0.000176
v -1.059363 -0.499054 -1.059468
v -0.000004 -0.501907 -1.240942
v 0.877462 -0.501902 -0.877475
v 1.240907 -0.501895 -0.000010
v 0.877447 -0.501891 0.877441
v -0.000006 -0.501891 1.240895
v -0.877464 -0.501897 0.877449
v -1.240931 -0.501903 -0.000008
v -0.877477 -0.501907 -0.877481
v -0.000000 -0.254367 -0.720010
v 0.509124 -0.254367 -0.509124
v 0.720010 -0.254367 -0.000000
v 0.509124 -0.254367 0.509124
v -0.000000 -0.254367 0.720010
v -0.509124 -0.254367 0.509124
v -0.720010 -0.254367 -0.000000
v -0.509124 -0.254367 -0.509124
v -0.005967 -0.535545 -1.510498
v 1.053730 -0.535381 -1.071311
v 1.492312 -0.535052 -0.011591
v 1.053309 -0.534756 1.047668
v -0.005929 -0.534796 1.486449
v -1.065422 -0.535128 1.047881
v -1.504646 -0.535429 -0.011631
v -1.065832 -0.535559 -1.071511
v -0.006010 -0.535964 -1.391548
v 0.969663 -0.535963 -0.987401
v 1.373786 -0.535962 -0.011728
v 0.969645 -0.535961 0.963927
v -0.006009 -0.535962 1.368058
v -0.981674 -0.535963 0.963937
v -1.385822 -0.535964 -0.011728
v -0.981690 -0.535964 -0.987409
v -0.000000 0.456086 -0.019607
v 0.013864 0.456086 -0.013864
v 0.019607 0.456086 0.000000
v 0.013864 0.456086 0.013864
v -0.000000 0.456086 0.019607
v -0.013864 0.456086 0.013864
v -0.019607 0.456086 0.000000
v -0.013864 0.456086 -0.013864
v -0.000000 0.499000 0.000000
v 0.000000 -0.219948 -0.749505
v 0.529980 -0.219948 -0.529980
v 0.749505 -0.219948 0.000000
v 0.529980 -0.219948 0.529980
v 0.000000 -0.219948 0.749505
v -0.529980 -0.219948 0.529980
v -0.749505 -0.219948 0.000000
v -0.529980 -0.219948 -0.529980
v 0.000055 -0.500494 -1.500868
v 1.061238 -0.500681 -1.061110
v 1.500558 -0.500828 0.000061
v 1.060979 -0.500884 1.061003
v 0.000026 -0.500878 1.500478
v -1.061027 -0.500806 1.061125
v -1.500763 -0.500640 0.000090
v -1.061311 -0.500470 -1.061257
v 0.000002 -0.499047 -1.241848
v 0.878127 -0.499049 -0.878121
v 1.241865 -0.499052 0.000005
v 0.878135 -0.499055 0.878137
v 0.000003 -0.499054 1.241871
v -0.878126 -0.499052 0.878133
v -1.241853 -0.499048 0.000004
v -0.878119 -0.499046 -0.878117
v -0.000000 -0.251859 -0.721655
v 0.510287 -0.251859 -0.510287
v 0.721655 -0.251859 0.000000
v 0.510287 -0.251859 0.510287
v 0.000000 -0.251859 0.721655
v -0.510287 -0.251859 0.510287
v -0.721655 -0.251859 0.000000
v -0.510287 -0.251859 -0.510287
v -0.006033 -0.533183 -1.512346
v 1.055107 -0.533265 -1.072931
v 1.494827 -0.533430 -0.011802
v 1.055320 -0.533580 1.049559
v -0.006052 -0.533560 1.489179
v -1.067296 -0.533392 1.049452
v -1.506692 -0.533241 -0.011782
v -1.067090 -0.533176 -1.072830
v -0.006011 -0.532974 -1.391797
v 0.969845 -0.532975 -0.987589
v 1.374066 -0.532975 -0.011733
v 0.969854 -0.532976 0.964133
v -0.006012 -0.532976 1.368350
v -0.981872 -0.532975 0.964128
v -1.386080 -0.532975 -0.011732
v -0.981864 -0.532974 -0.987585
v -0.000000 0.454311 -0.018686
v 0.013213 0.454311 -0.013213
v 0.018686 0.454311 0.000000
v 0.013213 0.454311 0.013213
v -0.000000 0.454311 0.018686
v -0.013213 0.454311 0.013213
v -0.018686 0.454311 0.000000
v -0.013213 0.454311 -0.013213
v 0.000000 0.501000 0.000000
v 0.000000 -0.218210 -0.750495
v 0.530680 -0.218210 -0.530680
v 0.750495 -0.218210 0.000000
v 0.530680 -0.218210 0.530680
v -0.000000 -0.218210 0.750495
v -0.530680 -0.218210 0.530680
v -0.750495 -0.218210 0.000000
v -0.530680 -0.218210 -0.530680
v -0.000055 -0.499506 -1.499132
v 1.060082 -0.499319 -1.060210
v 1.499442 -0.499172 -0.000061
v 1.060342 -0.499116 1.060318
v -0.000026 -0.499122 1.499522
v -1.060293 -0.499194 1.060195
v -1.499237 -0.499360 -0.000090
v -1.060010 -0.499530 -1.060063
v -0.000002 -0.500953 -1.241244
v 0.877683 -0.500951 -0.877690
v 1.241226 -0.500948 -0.000005
v 0.877676 -0.500945 0.877673
v -0.000003 -0.500946 1.241220
v -0.877685 -0.500948 0.877677
v -1.241238 -0.500952 -0.000004
v -0.877691 -0.500954 -0.877693
v 0.000000 -0.253531 -0.720558
v 0.509512 -0.253531 -0.509512
v 0.720558 -0.253531 0.000000
v 0.509512 -0.253531 0.509512
v 0.000000 -0.253531 0.720558
v -0.509512 -0.253531 0.509512
v -0.720558 -0.253531 0.000000
v -0.509512 -0.253531 -0.509512
v -0.005989 -0.534759 -1.511116
v 1.054191 -0.534677 -1.071851
v 1.493151 -0.534511 -0.011660
v 1.053979 -0.534362 1.048299
v -0.005969 -0.534382 1.487358
v -1.066046 -0.534550 1.048406
v -1.505330 -0.534701 -0.011680
v -1.066252 -0.534766 -1.071952
v -0.006010 -0.534967 -1.391630
v 0.969723 -0.534967 -0.987463
v 1.373877 -0.534967 -0.011730
v 0.969714 -0.534966 0.963994
v -0.006010 -0.534966 1.368153
v -0.981739 -0.534967 0.963999
v -1.385907 -0.534967 -0.011730
v -0.981747 -0.534967 -0.987467
v -0.000000 0.455199 -0.019146
v 0.013539 0.455199 -0.013539
v 0.019146 0.455199 0.000000
v 0.013539 0.455199 0.013539
v -0.000000 0.455199 0.019146
v -0.013539 0.455199 0.013539
v -0.019146 0.455199 0.000000
v -0.013539 0.455199 -0.013539
v 0.000000 0.500000 0.000000
v 0.000000 -0.219079 -0.750000
v 0.530330 -0.219079 -0.530330
v 0.750000 -0.219079 0.000000
v 0.530330 -0.219079 0.530330
v 0.000000 -0.219079 0.750000
v -0.530330 -0.219079 0.530330
v -0.750000 -0.219079 0.000000
v -0.530330 -0.219079 -0.530330
v 0.000000 -0.500000 -1.500000
v 1.060660 -0.500000 -1.060660
v 1.500000 -0.500000 0.000000
v 1.060660 -0.500000 1.060660
v 0.000000 -0.500000 1.500000
v -1.060660 -0.500000 1.060660
v -1.500000 -0.500000 0.000000
v -1.060660 -0.500000 -1.060660
v 0.000000 -0.500000 -1.241546
v 0.877905 -0.500000 -0.877905
v 1.241546 -0.500000 -0.000000
v 0.877905 -0.500000 0.877905
v 0.000000 -0.500000 1.241546
v -0.877905 -0.500000 0.877905
v -1.241546 -0.500000 -0.000000
v -0.877905 -0.500000 -0.877905
v 0.000000 -0.252695 -0.721107
v 0.509899 -0.252695 -0.509899
v 0.721107 -0.252695 0.000000
v 0.509899 -0.252695 0.509899
v 0.000000 -0.252695 0.721107
v -0.509899 -0.252695 0.509899
v -0.721107 -0.252695 0.000000
v -0.509899 -0.252695 -0.509899
v -0.006011 -0.533971 -1.511731
v 1.054649 -0.533971 -1.072391
v 1.493989 -0.533971 -0.011731
v 1.054649 -0.533971 1.048929
v -0.006011 -0.533971 1.488269
v -1.066671 -0.533971 1.048929
v -1.506011 -0.533971 -0.011731
v -1.066671 -0.533971 -1.072391
v -0.006011 -0.533971 -1.391713
v 0.969784 -0.533971 -0.987526
v 1.373971 -0.533971 -0.011731
v 0.969784 -0.533971 0.964064
v -0.006011 -0.533971 1.368251
v -0.981806 -0.533971 0.964064
v -1.385993 -0.533971 -0.011731
v -0.981806 -0.533971 -0.987526
vn 0.2754 0.6942 -0.6650
vn 0.6650 0.6942 -0.2754
vn 0.6650 0.6942 0.2754
vn 0.2754 0.6942 0.6650
vn -0.2754 0.6942 0.6650
vn -0.6650 0.6942 0.2754
vn -0.0000 -1.0000 -0.0000
vn -0.6650 0.6942 -0.2754
vn -0.2754 0.6942 -0.6650
vn -0.1446 0.9259 -0.3490
vn -0.3487 0.9260 -0.1447
vn -0.3485 0.9262 0.1440
vn -0.1443 0.9263 0.3480
vn 0.1441 0.9264 0.3479
vn 0.3480 0.9264 0.1440
vn 0.3482 0.9262 -0.1445
vn 0.1442 0.9260 -0.3488
vn -0.1750 -0.8893 0.4226
vn -0.4226 -0.8893 0.1750
vn -0.4226 -0.8893 -0.1750
vn -0.1750 -0.8893 -0.4226
vn 0.1750 -0.8893 -0.4226
vn 0.4226 -0.8893 -0.1750
vn 0.4226 -0.8893 0.1750
vn 0.1750 -0.8893 0.4226
vn -0.2822 -0.6755 0.6813
vn -0.6813 -0.6755 0.2822
vn -0.6813 -0.6755 -0.2822
vn -0.2822 -0.6755 -0.6813
vn 0.2822 -0.6755 -0.6813
vn 0.6813 -0.6755 -0.2822
vn 0.6813 -0.6755 0.2822
vn 0.2822 -0.6755 0.6813
vn 0.9236 -0.0253 -0.3825
vn -0.2557 -0.9609 -0.1059
vn -0.8869 0.2802 -0.3674
vn -0.1085 -0.9589 -0.2621
vn 0.8891 -0.2717 0.3684
vn 0.1047 -0.9619 -0.2527
vn -0.3576 0.3558 -0.8634
vn 0.2352 -0.9670 -0.0974
vn -0.3721 -0.2325 0.8986
vn 0.3587 -0.3483 0.8660
vn 0.2208 -0.9710 0.0915
vn 0.3713 0.2414 -0.8966
vn 0.0896 -0.9722 0.2163
vn -0.0924 -0.9704 0.2231
vn -0.9233 0.0353 0.3825
vn -0.2389 -0.9660 0.0990
vn -0.0057 -1.0000 0.0025
vn -0.0040 -1.0000 -0.0016
vn -0.0014 -1.0000 -0.0035
vn 0.0018 -1.0000 -0.0042
vn 0.0063 -1.0000 -0.0025
vn 0.0089 -1.0000 0.0038
vn 0.0042 -0.9999 0.0100
vn -0.0034 -1.0000 0.0085
vn -0.2756 -0.6937 0.6654
vn -0.6654 -0.6937 0.2756
vn -0.6654 -0.6937 -0.2756
vn -0.2756 -0.6937 -0.6654
vn 0.2756 -0.6937 -0.6654
vn 0.6654 -0.6937 -0.2756
vn -0.0000 1.0000 -0.0000
vn 0.6654 -0.6937 0.2756
vn 0.2756 -0.6937 0.6654
vn 0.1434 -0.9271 0.3462
vn 0.3463 -0.9271 0.1433
vn 0.3464 -0.9270 -0.1437
vn 0.1435 -0.9269 -0.3467
vn -0.1436 -0.9269 -0.3467
vn -0.3467 -0.9269 -0.1437
vn -0.3466 -0.9270 0.1434
vn -0.1436 -0.9271 0.3463
vn 0.1750 0.8893 -0.4226
vn 0.4226 0.8893 -0.1750
vn 0.4226 0.8893 0.1750
vn 0.1750 0.8893 0.4226
vn -0.1750 0.8893 0.4226
vn -0.4226 0.8893 0.1750
vn -0.4226 0.8893 -0.1750
vn -0.1750 0.8893 -0.4226
vn 0.2822 0.6755 -0.6812
vn 0.6812 0.6755 -0.2822
vn 0.6812 0.6755 0.2822
vn 0.2822 0.6755 0.6812
vn -0.2822 0.6755 0.6812
vn -0.6812 0.6755 0.2822
vn -0.6812 0.6755 -0.2822
vn -0.2822 0.6755 -0.6812
vn -0.9233 0.0346 0.3825
vn 0.2560 0.9609 0.1060
vn 0.8855 -0.2853 0.3667
vn 0.1087 0.9588 0.2623
vn -0.8842 0.2900 -0.3662
vn -0.1048 0.9618 0.2530
vn 0.3565 -0.3634 0.8607
vn -0.2354 0.9670 0.0975
vn 0.3706 0.2499 -0.8945
vn -0.3559 0.3675 -0.8592
vn -0.2210 0.9710 -0.0915
vn -0.3710 -0.2450 0.8957
vn -0.0896 0.9722 -0.2164
vn 0.0925 0.9704 -0.2233
vn 0.9235 -0.0291 -0.3825
vn 0.2391 0.9659 -0.0990
vn -0.0028 1.0000 0.0012
vn -0.0019 1.0000 -0.0008
vn -0.0007 1.0000 -0.0017
vn 0.0009 1.0000 -0.0021
vn 0.0031 1.0000 -0.0012
vn 0.0044 1.0000 0.0019
vn 0.0020 1.0000 0.0049
vn -0.0016 1.0000 0.0042
vn -0.2755 -0.6941 0.6651
vn -0.6651 -0.6941 0.2755
vn -0.6651 -0.6941 -0.2755
vn -0.2755 -0.6941 -0.6651
vn 0.2755 -0.6941 -0.6651
vn 0.6651 -0.6941 -0.2755
vn 0.6651 -0.6941 0.2755
vn 0.2755 -0.6941 0.6651
vn 0.1442 -0.9263 0.3481
vn 0.3479 -0.9264 0.1443
vn 0.3478 -0.9265 -0.1439
vn 0.1440 -0.9265 -0.3475
vn -0.1439 -0.9266 -0.3475
vn -0.3476 -0.9265 -0.1439
vn -0.3476 -0.9265 0.1441
vn -0.1440 -0.9264 0.3480
vn -0.9235 0.0282 0.3825
vn 0.2558 0.9609 0.1060
vn 0.8864 -0.2818 0.3672
vn 0.1086 0.9589 0.2621
vn -0.8876 0.2775 -0.3677
vn -0.1047 0.9618 0.2528
vn 0.3573 -0.3582 0.8626
vn -0.2353 0.9670 0.0975
vn 0.3716 0.2380 -0.8974
vn -0.3579 0.3544 -0.8639
vn -0.2209 0.9710 -0.0915
vn -0.3712 -0.2425 0.8963
vn -0.0896 0.9722 -0.2163
vn 0.0924 0.9704 -0.2232
vn 0.9234 -0.0334 -0.3825
vn 0.2390 0.9660 -0.0990
vn 0.0028 1.0000 -0.0012
vn 0.0020 1.0000 0.0008
vn 0.0007 1.0000 0.0017
vn -0.0009 1.0000 0.0021
vn -0.0032 1.0000 0.0012
vn -0.0044 1.0000 -0.0019
vn -0.0021 1.0000 -0.0050
vn 0.0017 1.0000 -0.0042
vn 0.2756 0.6939 -0.6653
vn 0.6653 0.6939 -0.2756
vn 0.6653 0.6939 0.2756
vn 0.2756 0.6939 0.6653
vn -0.2756 0.6939 0.6653
vn -0.6653 0.6939 0.2756
vn -0.6653 0.6939 -0.2756
vn -0.2756 0.6939 -0.6653
vn -0.1438 0.9267 -0.3471
vn -0.3471 0.9267 -0.1438
vn -0.3471 0.9267 0.1438
vn -0.1438 0.9267 0.3471
vn 0.1438 0.9267 0.3471
vn 0.3471 0.9267 0.1438
vn 0.3471 0.9267 -0.1438
vn 0.1438 0.9267 -0.3471
vn -0.2822 -0.6755 0.6812
vn -0.6812 -0.6755 0.2822
vn -0.6812 -0.6755 -0.2822
vn -0.2822 -0.6755 -0.6812
vn 0.2822 -0.6755 -0.6812
vn 0.6812 -0.6755 -0.2822
vn 0.6812 -0.6755 0.2822
vn 0.2822 -0.6755 0.6812
vn 0.9234 -0.0313 -0.3825
vn -0.2559 -0.9609 -0.1060
vn -0.8860 0.2835 -0.3670
vn -0.1086 -0.9589 -0.2622
vn 0.8860 -0.2835 0.3670
vn 0.1048 -0.9618 -0.2529
vn -0.3569 0.3607 -0.8617
vn 0.2353 -0.9670 -0.0975
vn -0.3711 -0.2437 0.8960
vn 0.3569 -0.3607 0.8617
vn 0.2209 -0.9710 0.0915
vn 0.3711 0.2437 -0.8960
vn -0.0925 -0.9704 0.2232
vn -0.9234 0.0313 0.3825
vn -0.2390 -0.9660 0.0990
vt 0.250984 0.686533
vt 0.263288 0.553784
vt 0.315099 0.627371
vt 0.346986 0.501883
vt 0.311011 0.392370
vt 0.251371 0.339650
vt 0.195394 0.386023
vt 0.172208 0.497977
vt 0.730688 0.552951
vt 0.732105 0.554126
vt 0.732692 0.556960
vt 0.732105 0.559795
vt 0.730688 0.560969
vt 0.729270 0.559795
vt 0.728683 0.556960
vt 0.729270 0.554126
vt 0.195394 0.609932
vt 0.139417 0.721886
vt 0.251371 0.814632
vt 0.093044 0.497977
vt 0.139417 0.274068
vt 0.251371 0.181322
vt 0.363326 0.274068
vt 0.409699 0.497977
vt 0.363326 0.721886
vt 0.783455 0.370477
vt 0.718868 0.316971
vt 0.718868 0.239693
vt 0.810777 0.315833
vt 0.810208 0.499652
vt 0.848847 0.499652
vt 0.783455 0.628827
vt 0.810777 0.683471
vt 0.718868 0.682333
vt 0.718868 0.759611
vt 0.654280 0.628827
vt 0.626958 0.683471
vt 0.627527 0.499652
vt 0.588888 0.499652
vt 0.654280 0.370477
vt 0.626958 0.315833
vt 0.138782 0.276545
vt 0.092409 0.500454
vt 0.862711 0.497196
vt 0.820396 0.701511
vt 0.409064 0.500454
vt 0.362691 0.276545
vt 0.718238 0.786141
vt 0.138782 0.724362
vt 0.616081 0.701511
vt 0.250737 0.183799
vt 0.573766 0.497196
vt 0.250737 0.817109
vt 0.362691 0.724362
vt 0.616081 0.292881
vt 0.718238 0.208250
vt 0.820396 0.292881
vt 0.607196 0.719280
vt 0.561201 0.497196
vt 0.607196 0.275111
vt 0.718238 0.183121
vt 0.829281 0.275111
vt 0.875276 0.497196
vt 0.829281 0.719280
vt 0.718238 0.811270
s 0
usemtl Material.002
f 10/1/1 9/2/1 11/3/1
f 11/3/2 9/2/2 12/4/2
f 12/4/3 9/2/3 13/5/3
f 13/5/4 9/2/4 14/6/4
f 14/6/5 9/2/5 15/7/5
f 15/7/6 9/2/6 16/8/6
f 1/9/7 2/10/7 3/11/7 4/12/7 5/13/7 6/14/7 7/15/7 8/16/7
f 16/8/8 9/2/8 17/17/8
f 17/17/9 9/2/9 10/1/9
f 25/18/10 17/17/10 10/1/10 18/19/10
f 24/20/11 16/8/11 17/17/11 25/18/11
f 23/21/12 15/7/12 16/8/12 24/20/12
f 22/22/13 14/6/13 15/7/13 23/21/13
f 21/23/14 13/5/14 14/6/14 22/22/14
f 20/24/15 12/4/15 13/5/15 21/23/15
f 19/25/16 11/3/16 12/4/16 20/24/16
f 18/19/17 10/1/17 11/3/17 19/25/17
f 35/26/18 34/27/18 26/28/18 27/29/18
f 36/30/19 35/26/19 27/29/19 28/31/19
f 37/32/20 36/30/20 28/31/20 29/33/20
f 38/34/21 37/32/21 29/33/21 30/35/21
f 39/36/22 38/34/22 30/35/22 31/37/22
f 40/38/23 39/36/23 31/37/23 32/39/23
f 41/40/24 40/38/24 32/39/24 33/41/24
f 34/27/25 41/40/25 33/41/25 26/28/25
f 2/10/26 1/9/26 34/27/26 35/26/26
f 3/11/27 2/10/27 35/26/27 36/30/27
f 4/12/28 3/11/28 36/30/28 37/32/28
f 5/13/29 4/12/29 37/32/29 38/34/29
f 6/14/30 5/13/30 38/34/30 39/36/30
f 7/15/31 6/14/31 39/36/31 40/38/31
f 8/16/32 7/15/32 40/38/32 41/40/32
f 1/9/33 8/16/33 41/40/33 34/27/33
f 24/20/34 23/21/34 47/42/34 48/43/34
f 29/33/35 28/31/35 52/44/35 53/45/35
f 21/23/36 20/24/36 44/46/36 45/47/36
f 30/35/37 29/33/37 53/45/37 54/48/37
f 25/18/38 24/20/38 48/43/38 49/49/38
f 31/37/39 30/35/39 54/48/39 55/50/39
f 22/22/40 21/23/40 45/47/40 46/51/40
f 32/39/41 31/37/41 55/50/41 56/52/41
f 19/25/42 18/19/42 42/53/42 43/54/42
f 18/19/43 25/18/43 49/49/43 42/53/43
f 33/41/44 32/39/44 56/52/44 57/55/44
f 23/21/45 22/22/45 46/51/45 47/42/45
f 26/28/46 33/41/46 57/55/46 50/56/46
f 27/29/47 26/28/47 50/56/47 51/57/47
f 20/24/48 19/25/48 43/54/48 44/46/48
f 28/31/49 27/29/49 51/57/49 52/44/49
f 56/52/50 55/50/50 47/58/50 48/59/50
f 57/55/51 56/52/51 48/59/51 49/60/51
f 50/56/52 57/55/52 49/60/52 42/61/52
f 51/57/53 50/56/53 42/61/53 43/62/53
f 52/44/54 51/57/54 43/62/54 44/63/54
f 53/45/55 52/44/55 44/63/55 45/64/55
f 54/48/56 53/45/56 45/64/56 46/65/56
f 55/50/57 54/48/57 46/65/57 47/58/57
f 67/1/58 68/3/58 66/2/58
f 68/3/59 69/4/59 66/2/59
f 69/4/60 70/5/60 66/2/60
f 70/5/61 71/6/61 66/2/61
f 71/6/62 72/7/62 66/2/62
f 72/7/63 73/8/63 66/2/63
f 58/9/64 65/16/64 64/15/64 63/14/64 62/13/64 61/12/64 60/11/64 59/10/64
f 73/8/65 74/17/65 66/2/65
f 74/17/66 67/1/66 66/2/66
f 82/18/67 75/19/67 67/1/67 74/17/67
f 81/20/68 82/18/68 74/17/68 73/8/68
f 80/21/69 81/20/69 73/8/69 72/7/69
f 79/22/70 80/21/70 72/7/70 71/6/70
f 78/23/71 79/22/71 71/6/71 70/5/71
f 77/24/72 78/23/72 70/5/72 69/4/72
f 76/25/73 77/24/73 69/4/73 68/3/73
f 75/19/74 76/25/74 68/3/74 67/1/74
f 92/26/75 84/29/75 83/28/75 91/27/75
f 93/30/76 85/31/76 84/29/76 92/26/76
f 94/32/77 86/33/77 85/31/77 93/30/77
f 95/34/78 87/35/78 86/33/78 94/32/78
f 96/36/79 88/37/79 87/35/79 95/34/79
f 97/38/80 89/39/80 88/37/80 96/36/80
f 98/40/81 90/41/81 89/39/81 97/38/81
f 91/27/82 83/28/82 90/41/82 98/40/82
f 59/10/83 92/26/83 91/27/83 58/9/83
f 60/11/84 93/30/84 92/26/84 59/10/84
f 61/12/85 94/32/85 93/30/85 60/11/85
f 62/13/86 95/34/86 94/32/86 61/12/86
f 63/14/87 96/36/87 95/34/87 62/13/87
f 64/15/88 97/38/88 96/36/88 63/14/88
f 65/16/89 98/40/89 97/38/89 64/15/89
f 58/9/90 91/27/90 98/40/90 65/16/90
f 81/20/91 105/43/91 104/42/91 80/21/91
f 86/33/92 110/45/92 109/44/92 85/31/92
f 78/23/93 102/47/93 101/46/93 77/24/93
f 87/35/94 111/48/94 110/45/94 86/33/94
f 82/18/95 106/49/95 105/43/95 81/20/95
f 88/37/96 112/50/96 111/48/96 87/35/96
f 79/22/97 103/51/97 102/47/97 78/23/97
f 89/39/98 113/52/98 112/50/98 88/37/98
f 76/25/99 100/54/99 99/53/99 75/19/99
f 75/19/100 99/53/100 106/49/100 82/18/100
f 90/41/101 114/55/101 113/52/101 89/39/101
f 80/21/102 104/42/102 103/51/102 79/22/102
f 83/28/103 107/56/103 114/55/103 90/41/103
f 84/29/104 108/57/104 107/56/104 83/28/104
f 77/24/105 101/46/105 100/54/105 76/25/105
f 85/31/106 109/44/106 108/57/106 84/29/106
f 113/52/107 105/59/107 104/58/107 112/50/107
f 114/55/108 106/60/108 105/59/108 113/52/108
f 107/56/109 99/61/109 106/60/109 114/55/109
f 108/57/110 100/62/110 99/61/110 107/56/110
f 109/44/111 101/63/111 100/62/111 108/57/111
f 110/45/112 102/64/112 101/63/112 109/44/112
f 111/48/113 103/65/113 102/64/113 110/45/113
f 112/50/114 104/58/114 103/65/114 111/48/114
f 124/1/115 125/3/115 123/2/115
f 125/3/116 126/4/116 123/2/116
f 126/4/117 127/5/117 123/2/117
f 127/5/118 128/6/118 123/2/118
f 128/6/119 129/7/119 123/2/119
f 129/7/120 130/8/120 123/2/120
f 115/9/64 122/16/64 121/15/64 120/14/64 119/13/64 118/12/64 117/11/64 116/10/64
f 130/8/121 131/17/121 123/2/121
f 131/17/122 124/1/122 123/2/122
f 139/18/123 132/19/123 124/1/123 131/17/123
f 138/20/124 139/18/124 131/17/124 130/8/124
f 137/21/125 138/20/125 130/8/125 129/7/125
f 136/22/126 137/21/126 129/7/126 128/6/126
f 135/23/127 136/22/127 128/6/127 127/5/127
f 134/24/128 135/23/128 127/5/128 126/4/128
f 133/25/129 134/24/129 126/4/129 125/3/129
f 132/19/130 133/25/130 125/3/130 124/1/130
f 149/26/75 141/29/75 140/28/75 148/27/75
f 150/30/76 142/31/76 141/29/76 149/26/76
f 151/32/77 143/33/77 142/31/77 150/30/77
f 152/34/78 144/35/78 143/33/78 151/32/78
f 153/36/79 145/37/79 144/35/79 152/34/79
f 154/38/80 146/39/80 145/37/80 153/36/80
f 155/40/81 147/41/81 146/39/81 154/38/81
f 148/27/82 140/28/82 147/41/82 155/40/82
f 116/10/83 149/26/83 148/27/83 115/9/83
f 117/11/84 150/30/84 149/26/84 116/10/84
f 118/12/85 151/32/85 150/30/85 117/11/85
f 119/13/86 152/34/86 151/32/86 118/12/86
f 120/14/87 153/36/87 152/34/87 119/13/87
f 121/15/88 154/38/88 153/36/88 120/14/88
f 122/16/89 155/40/89 154/38/89 121/15/89
f 115/9/90 148/27/90 155/40/90 122/16/90
f 138/20/131 162/43/131 161/42/131 137/21/131
f 143/33/132 167/45/132 166/44/132 142/31/132
f 135/23/133 159/47/133 158/46/133 134/24/133
f 144/35/134 168/48/134 167/45/134 143/33/134
f 139/18/135 163/49/135 162/43/135 138/20/135
f 145/37/136 169/50/136 168/48/136 144/35/136
f 136/22/137 160/51/137 159/47/137 135/23/137
f 146/39/138 170/52/138 169/50/138 145/37/138
f 133/25/139 157/54/139 156/53/139 132/19/139
f 132/19/140 156/53/140 163/49/140 139/18/140
f 147/41/141 171/55/141 170/52/141 146/39/141
f 137/21/142 161/42/142 160/51/142 136/22/142
f 140/28/143 164/56/143 171/55/143 147/41/143
f 141/29/144 165/57/144 164/56/144 140/28/144
f 134/24/145 158/46/145 157/54/145 133/25/145
f 142/31/146 166/44/146 165/57/146 141/29/146
f 170/52/147 162/59/147 161/58/147 169/50/147
f 171/55/148 163/60/148 162/59/148 170/52/148
f 164/56/149 156/61/149 163/60/149 171/55/149
f 165/57/150 157/62/150 156/61/150 164/56/150
f 166/44/151 158/63/151 157/62/151 165/57/151
f 167/45/152 159/64/152 158/63/152 166/44/152
f 168/48/153 160/65/153 159/64/153 167/45/153
f 169/50/154 161/58/154 160/65/154 168/48/154
f 181/1/155 180/2/155 182/3/155
f 182/3/156 180/2/156 183/4/156
f 183/4/157 180/2/157 184/5/157
f 184/5/158 180/2/158 185/6/158
f 185/6/159 180/2/159 186/7/159
f 186/7/160 180/2/160 187/8/160
f 172/9/7 173/10/7 174/11/7 175/12/7 176/13/7 177/14/7 178/15/7 179/16/7
f 187/8/161 180/2/161 188/17/161
f 188/17/162 180/2/162 181/1/162
f 196/18/163 188/17/163 181/1/163 189/19/163
f 195/20/164 187/8/164 188/17/164 196/18/164
f 194/21/165 186/7/165 187/8/165 195/20/165
f 193/22/166 185/6/166 186/7/166 194/21/166
f 192/23/167 184/5/167 185/6/167 193/22/167
f 191/24/168 183/4/168 184/5/168 192/23/168
f 190/25/169 182/3/169 183/4/169 191/24/169
f 189/19/170 181/1/170 182/3/170 190/25/170
f 206/26/18 205/27/18 197/28/18 198/29/18
f 207/30/19 206/26/19 198/29/19 199/31/19
f 208/32/20 207/30/20 199/31/20 200/33/20
f 209/34/21 208/32/21 200/33/21 201/35/21
f 210/36/22 209/34/22 201/35/22 202/37/22
f 211/38/23 210/36/23 202/37/23 203/39/23
f 212/40/24 211/38/24 203/39/24 204/41/24
f 205/27/25 212/40/25 204/41/25 197/28/25
f 173/10/171 172/9/171 205/27/171 206/26/171
f 174/11/172 173/10/172 206/26/172 207/30/172
f 175/12/173 174/11/173 207/30/173 208/32/173
f 176/13/174 175/12/174 208/32/174 209/34/174
f 177/14/175 176/13/175 209/34/175 210/36/175
f 178/15/176 177/14/176 210/36/176 211/38/176
f 179/16/177 178/15/177 211/38/177 212/40/177
f 172/9/178 179/16/178 212/40/178 205/27/178
f 195/20/179 194/21/179 218/42/179 219/43/179
f 200/33/180 199/31/180 223/44/180 224/45/180
f 192/23/181 191/24/181 215/46/181 216/47/181
f 201/35/182 200/33/182 224/45/182 225/48/182
f 196/18/183 195/20/183 219/43/183 220/49/183
f 202/37/184 201/35/184 225/48/184 226/50/184
f 193/22/185 192/23/185 216/47/185 217/51/185
f 203/39/186 202/37/186 226/50/186 227/52/186
f 190/25/187 189/19/187 213/53/187 214/54/187
f 189/19/188 196/18/188 220/49/188 213/53/188
f 204/41/189 203/39/189 227/52/189 228/55/189
f 194/21/190 193/22/190 217/51/190 218/42/190
f 197/28/46 204/41/46 228/55/46 221/56/46
f 198/29/191 197/28/191 221/56/191 222/57/191
f 191/24/192 190/25/192 214/54/192 215/46/192
f 199/31/193 198/29/193 222/57/193 223/44/193
f 227/52/7 226/50/7 218/58/7 219/59/7
f 228/55/7 227/52/7 219/59/7 220/60/7
f 221/56/7 228/55/7 220/60/7 213/61/7
f 222/57/7 221/56/7 213/61/7 214/62/7
f 223/44/7 222/57/7 214/62/7 215/63/7
f 224/45/7 223/44/7 215/63/7 216/64/7
f 225/48/7 224/45/7 216/64/7 217/65/7
f 226/50/7 225/48/7 217/65/7 218/58/7
