# Blender 5.1.2
# www.blender.org
mtllib salakot.mtl
o Salakot
v -0.000000 0.454311 -0.018686
v 0.013213 0.454311 -0.013213
v 0.018686 0.454311 0.000000
v 0.013213 0.454311 0.013213
v -0.000000 0.454311 0.018686
v -0.013213 0.454311 0.013213
v -0.018686 0.454311 0.000000
v -0.013213 0.454311 -0.013213
v 0.000000 0.501000 0.000000
v 0.000000 -0.218210 -0.750495
v 0.530680 -0.218210 -0.530680
v 0.750495 -0.218210 0.000000
v 0.530680 -0.218210 0.530680
v -0.000000 -0.218210 0.750495
v -0.530680 -0.218210 0.530680
v -0.750495 -0.218210 0.000000
v -0.530680 -0.218210 -0.530680
v -0.000055 -0.499506 -1.499132
v 1.060082 -0.499319 -1.060210
v 1.499442 -0.499172 -0.000061
v 1.060342 -0.499116 1.060318
v -0.000026 -0.499122 1.499522
v -1.060293 -0.499194 1.060195
v -1.499237 -0.499360 -0.000090
v -1.060010 -0.499530 -1.060063
v -0.000002 -0.500953 -1.241244
v 0.877683 -0.500951 -0.877690
v 1.241226 -0.500948 -0.000005
v 0.877676 -0.500945 0.877673
v -0.000003 -0.500946 1.241220
v -0.877685 -0.500948 0.877677
v -1.241238 -0.500952 -0.000004
v -0.877691 -0.500954 -0.877693
v 0.000000 -0.253531 -0.720558
v 0.509512 -0.253531 -0.509512
v 0.720558 -0.253531 0.000000
v 0.509512 -0.253531 0.509512
v 0.000000 -0.253531 0.720558
v -0.509512 -0.253531 0.509512
v -0.720558 -0.253531 0.000000
v -0.509512 -0.253531 -0.509512
v -0.005989 -0.534759 -1.511116
v 1.054191 -0.534677 -1.071851
v 1.493151 -0.534511 -0.011660
v 1.053979 -0.534362 1.048299
v -0.005969 -0.534382 1.487358
v -1.066046 -0.534550 1.048406
v -1.505330 -0.534701 -0.011680
v -1.066252 -0.534766 -1.071952
v -0.006010 -0.534967 -1.391630
v 0.969723 -0.534967 -0.987463
v 1.373877 -0.534967 -0.011730
v 0.969714 -0.534966 0.963994
v -0.006010 -0.534966 1.368153
v -0.981739 -0.534967 0.963999
v -1.385907 -0.534967 -0.011730
v -0.981747 -0.534967 -0.987467
v -0.000000 0.455199 -0.019146
v 0.013539 0.455199 -0.013539
v 0.019146 0.455199 0.000000
v 0.013539 0.455199 0.013539
v -0.000000 0.455199 0.019146
v -0.013539 0.455199 0.013539
v -0.019146 0.455199 0.000000
v -0.013539 0.455199 -0.013539
v 0.000000 0.500000 0.000000
v 0.000000 -0.219079 -0.750000
v 0.530330 -0.219079 -0.530330
v 0.750000 -0.219079 0.000000
v 0.530330 -0.219079 0.530330
v 0.000000 -0.219079 0.750000
v -0.530330 -0.219079 0.530330
v -0.750000 -0.219079 0.000000
v -0.530330 -0.219079 -0.530330
v 0.000000 -0.500000 -1.500000
v 1.060660 -0.500000 -1.060660
v 1.500000 -0.500000 0.000000
v 1.060660 -0.500000 1.060660
v 0.000000 -0.500000 1.500000
v -1.060660 -0.500000 1.060660
v -1.500000 -0.500000 0.000000
v -1.060660 -0.500000 -1.060660
v 0.000000 -0.500000 -1.241546
v 0.877905 -0.500000 -0.877905
v 1.241546 -0.500000 -0.000000
v 0.877905 -0.500000 0.877905
v 0.000000 -0.500000 1.241546
v -0.877905 -0.500000 0.877905
v -1.241546 -0.500000 -0.000000
v -0.877905 -0.500000 -0.877905
v 0.000000 -0.252695 -0.721107
v 0.509899 -0.252695 -0.509899
v 0.721107 -0.252695 0.000000
v 0.509899 -0.252695 0.509899
v 0.000000 -0.252695 0.721107
v -0.509899 -0.252695 0.509899
v -0.721107 -0.252695 0.000000
v -0.509899 -0.252695 -0.509899
v -0.006011 -0.533971 -1.511731
v 1.054649 -0.533971 -1.072391
v 1.493989 -0.533971 -0.011731
v 1.054649 -0.533971 1.048929
v -0.006011 -0.533971 1.488269
v -1.066671 -0.533971 1.048929
v -1.506011 -0.533971 -0.011731
v -1.066671 -0.533971 -1.072391
v -0.006011 -0.533971 -1.391713
v 0.969784 -0.533971 -0.987526
v 1.373971 -0.533971 -0.011731
v 0.969784 -0.533971 0.964064
v -0.006011 -0.533971 1.368251
v -0.981806 -0.533971 0.964064
v -1.385993 -0.533971 -0.011731
v -0.981806 -0.533971 -0.987526
vn 0.2755 0.6941 -0.6651
vn 0.6651 0.6941 -0.2755
vn 0.6651 0.6941 0.2755
vn 0.2755 0.6941 0.6651
vn -0.2755 0.6941 0.6651
vn -0.6651 0.6941 0.2755
vn -0.0000 -1.0000 -0.0000
vn -0.6651 0.6941 -0.2755
vn -0.2755 0.6941 -0.6651
vn -0.1442 0.9263 -0.3481
vn -0.3479 0.9264 -0.1443
vn -0.3478 0.9265 0.1439
vn -0.1440 0.9265 0.3475
vn 0.1439 0.9266 0.3475
vn 0.3476 0.9265 0.1439
vn 0.3476 0.9265 -0.1441
vn 0.1440 0.9264 -0.3480
vn -0.1750 -0.8893 0.4226
vn -0.4226 -0.8893 0.1750
vn -0.4226 -0.8893 -0.1750
vn -0.1750 -0.8893 -0.4226
vn 0.1750 -0.8893 -0.4226
vn 0.4226 -0.8893 -0.1750
vn 0.4226 -0.8893 0.1750
vn 0.1750 -0.8893 0.4226
vn -0.2822 -0.6755 0.6812
vn -0.6812 -0.6755 0.2822
vn -0.6812 -0.6755 -0.2822
vn -0.2822 -0.6755 -0.6812
vn 0.2822 -0.6755 -0.6812
vn 0.6812 -0.6755 -0.2822
vn 0.6812 -0.6755 0.2822
vn 0.2822 -0.6755 0.6812
vn 0.9235 -0.0282 -0.3825
vn -0.2558 -0.9609 -0.1060
vn -0.8864 0.2818 -0.3672
vn -0.1086 -0.9589 -0.2621
vn 0.8876 -0.2775 0.3677
vn 0.1047 -0.9618 -0.2528
vn -0.3573 0.3582 -0.8626
vn 0.2353 -0.9670 -0.0975
vn -0.3716 -0.2380 0.8974
vn 0.3579 -0.3544 0.8639
vn 0.2209 -0.9710 0.0915
vn 0.3712 0.2425 -0.8963
vn 0.0896 -0.9722 0.2163
vn -0.0924 -0.9704 0.2232
vn -0.9234 0.0334 0.3825
vn -0.2390 -0.9660 0.0990
vn -0.0028 -1.0000 0.0012
vn -0.0020 -1.0000 -0.0008
vn -0.0007 -1.0000 -0.0017
vn 0.0009 -1.0000 -0.0021
vn 0.0032 -1.0000 -0.0012
vn 0.0044 -1.0000 0.0019
vn 0.0021 -1.0000 0.0050
vn -0.0017 -1.0000 0.0042
vn -0.2756 -0.6939 0.6653
vn -0.6653 -0.6939 0.2756
vn -0.6653 -0.6939 -0.2756
vn -0.2756 -0.6939 -0.6653
vn 0.2756 -0.6939 -0.6653
vn 0.6653 -0.6939 -0.2756
vn -0.0000 1.0000 -0.0000
vn 0.6653 -0.6939 0.2756
vn 0.2756 -0.6939 0.6653
vn 0.1438 -0.9267 0.3471
vn 0.3471 -0.9267 0.1438
vn 0.3471 -0.9267 -0.1438
vn 0.1438 -0.9267 -0.3471
vn -0.1438 -0.9267 -0.3471
vn -0.3471 -0.9267 -0.1438
vn -0.3471 -0.9267 0.1438
vn -0.1438 -0.9267 0.3471
vn 0.1750 0.8893 -0.4226
vn 0.4226 0.8893 -0.1750
vn 0.4226 0.8893 0.1750
vn 0.1750 0.8893 0.4226
vn -0.1750 0.8893 0.4226
vn -0.4226 0.8893 0.1750
vn -0.4226 0.8893 -0.1750
vn -0.1750 0.8893 -0.4226
vn 0.2822 0.6755 -0.6812
vn 0.6812 0.6755 -0.2822
vn 0.6812 0.6755 0.2822
vn 0.2822 0.6755 0.6812
vn -0.2822 0.6755 0.6812
vn -0.6812 0.6755 0.2822
vn -0.6812 0.6755 -0.2822
vn -0.2822 0.6755 -0.6812
vn -0.9234 0.0313 0.3825
vn 0.2559 0.9609 0.1060
vn 0.8860 -0.2835 0.3670
vn 0.1086 0.9589 0.2622
vn -0.8860 0.2835 -0.3670
vn -0.1048 0.9618 0.2529
vn 0.3569 -0.3607 0.8617
vn -0.2353 0.9670 0.0975
vn 0.3711 0.2437 -0.8960
vn -0.3569 0.3607 -0.8617
vn -0.2209 0.9710 -0.0915
vn -0.3711 -0.2437 0.8960
vn -0.0896 0.9722 -0.2163
vn 0.0925 0.9704 -0.2232
vn 0.9234 -0.0313 -0.3825
vn 0.2390 0.9660 -0.0990
vt 0.250984 0.686533
vt 0.263288 0.553784
vt 0.315099 0.627371
vt 0.346986 0.501883
vt 0.311011 0.392370
vt 0.251371 0.339650
vt 0.195394 0.386023
vt 0.172208 0.497977
vt 0.730688 0.552951
vt 0.732105 0.554126
vt 0.732692 0.556960
vt 0.732105 0.559795
vt 0.730688 0.560969
vt 0.729270 0.559795
vt 0.728683 0.556960
vt 0.729270 0.554126
vt 0.195394 0.609932
vt 0.139417 0.721886
vt 0.251371 0.814632
vt 0.093044 0.497977
vt 0.139417 0.274068
vt 0.251371 0.181322
vt 0.363326 0.274068
vt 0.409699 0.497977
vt 0.363326 0.721886
vt 0.783455 0.370477
vt 0.718868 0.316971
vt 0.718868 0.239693
vt 0.810777 0.315833
vt 0.810208 0.499652
vt 0.848847 0.499652
vt 0.783455 0.628827
vt 0.810777 0.683471
vt 0.718868 0.682333
vt 0.718868 0.759611
vt 0.654280 0.628827
vt 0.626958 0.683471
vt 0.627527 0.499652
vt 0.588888 0.499652
vt 0.654280 0.370477
vt 0.626958 0.315833
vt 0.138782 0.276545
vt 0.092409 0.500454
vt 0.862711 0.497196
vt 0.820396 0.701511
vt 0.409064 0.500454
vt 0.362691 0.276545
vt 0.718238 0.786141
vt 0.138782 0.724362
vt 0.616081 0.701511
vt 0.250737 0.183799
vt 0.573766 0.497196
vt 0.250737 0.817109
vt 0.362691 0.724362
vt 0.616081 0.292881
vt 0.718238 0.208250
vt 0.820396 0.292881
vt 0.607196 0.719280
vt 0.561201 0.497196
vt 0.607196 0.275111
vt 0.718238 0.183121
vt 0.829281 0.275111
vt 0.875276 0.497196
vt 0.829281 0.719280
vt 0.718238 0.811270
s 0
usemtl Material.001
f 10/1/1 9/2/1 11/3/1
f 11/3/2 9/2/2 12/4/2
f 12/4/3 9/2/3 13/5/3
f 13/5/4 9/2/4 14/6/4
f 14/6/5 9/2/5 15/7/5
f 15/7/6 9/2/6 16/8/6
f 1/9/7 2/10/7 3/11/7 4/12/7 5/13/7 6/14/7 7/15/7 8/16/7
f 16/8/8 9/2/8 17/17/8
f 17/17/9 9/2/9 10/1/9
f 25/18/10 17/17/10 10/1/10 18/19/10
f 24/20/11 16/8/11 17/17/11 25/18/11
f 23/21/12 15/7/12 16/8/12 24/20/12
f 22/22/13 14/6/13 15/7/13 23/21/13
f 21/23/14 13/5/14 14/6/14 22/22/14
f 20/24/15 12/4/15 13/5/15 21/23/15
f 19/25/16 11/3/16 12/4/16 20/24/16
f 18/19/17 10/1/17 11/3/17 19/25/17
f 35/26/18 34/27/18 26/28/18 27/29/18
f 36/30/19 35/26/19 27/29/19 28/31/19
f 37/32/20 36/30/20 28/31/20 29/33/20
f 38/34/21 37/32/21 29/33/21 30/35/21
f 39/36/22 38/34/22 30/35/22 31/37/22
f 40/38/23 39/36/23 31/37/23 32/39/23
f 41/40/24 40/38/24 32/39/24 33/41/24
f 34/27/25 41/40/25 33/41/25 26/28/25
f 2/10/26 1/9/26 34/27/26 35/26/26
f 3/11/27 2/10/27 35/26/27 36/30/27
f 4/12/28 3/11/28 36/30/28 37/32/28
f 5/13/29 4/12/29 37/32/29 38/34/29
f 6/14/30 5/13/30 38/34/30 39/36/30
f 7/15/31 6/14/31 39/36/31 40/38/31
f 8/16/32 7/15/32 40/38/32 41/40/32
f 1/9/33 8/16/33 41/40/33 34/27/33
f 24/20/34 23/21/34 47/42/34 48/43/34
f 29/33/35 28/31/35 52/44/35 53/45/35
f 21/23/36 20/24/36 44/46/36 45/47/36
f 30/35/37 29/33/37 53/45/37 54/48/37
f 25/18/38 24/20/38 48/43/38 49/49/38
f 31/37/39 30/35/39 54/48/39 55/50/39
f 22/22/40 21/23/40 45/47/40 46/51/40
f 32/39/41 31/37/41 55/50/41 56/52/41
f 19/25/42 18/19/42 42/53/42 43/54/42
f 18/19/43 25/18/43 49/49/43 42/53/43
f 33/41/44 32/39/44 56/52/44 57/55/44
f 23/21/45 22/22/45 46/51/45 47/42/45
f 26/28/46 33/41/46 57/55/46 50/56/46
f 27/29/47 26/28/47 50/56/47 51/57/47
f 20/24/48 19/25/48 43/54/48 44/46/48
f 28/31/49 27/29/49 51/57/49 52/44/49
f 56/52/50 55/50/50 47/58/50 48/59/50
f 57/55/51 56/52/51 48/59/51 49/60/51
f 50/56/52 57/55/52 49/60/52 42/61/52
f 51/57/53 50/56/53 42/61/53 43/62/53
f 52/44/54 51/57/54 43/62/54 44/63/54
f 53/45/55 52/44/55 44/63/55 45/64/55
f 54/48/56 53/45/56 45/64/56 46/65/56
f 55/50/57 54/48/57 46/65/57 47/58/57
f 67/1/58 68/3/58 66/2/58
f 68/3/59 69/4/59 66/2/59
f 69/4/60 70/5/60 66/2/60
f 70/5/61 71/6/61 66/2/61
f 71/6/62 72/7/62 66/2/62
f 72/7/63 73/8/63 66/2/63
f 58/9/64 65/16/64 64/15/64 63/14/64 62/13/64 61/12/64 60/11/64 59/10/64
f 73/8/65 74/17/65 66/2/65
f 74/17/66 67/1/66 66/2/66
f 82/18/67 75/19/67 67/1/67 74/17/67
f 81/20/68 82/18/68 74/17/68 73/8/68
f 80/21/69 81/20/69 73/8/69 72/7/69
f 79/22/70 80/21/70 72/7/70 71/6/70
f 78/23/71 79/22/71 71/6/71 70/5/71
f 77/24/72 78/23/72 70/5/72 69/4/72
f 76/25/73 77/24/73 69/4/73 68/3/73
f 75/19/74 76/25/74 68/3/74 67/1/74
f 92/26/75 84/29/75 83/28/75 91/27/75
f 93/30/76 85/31/76 84/29/76 92/26/76
f 94/32/77 86/33/77 85/31/77 93/30/77
f 95/34/78 87/35/78 86/33/78 94/32/78
f 96/36/79 88/37/79 87/35/79 95/34/79
f 97/38/80 89/39/80 88/37/80 96/36/80
f 98/40/81 90/41/81 89/39/81 97/38/81
f 91/27/82 83/28/82 90/41/82 98/40/82
f 59/10/83 92/26/83 91/27/83 58/9/83
f 60/11/84 93/30/84 92/26/84 59/10/84
f 61/12/85 94/32/85 93/30/85 60/11/85
f 62/13/86 95/34/86 94/32/86 61/12/86
f 63/14/87 96/36/87 95/34/87 62/13/87
f 64/15/88 97/38/88 96/36/88 63/14/88
f 65/16/89 98/40/89 97/38/89 64/15/89
f 58/9/90 91/27/90 98/40/90 65/16/90
f 81/20/91 105/43/91 104/42/91 80/21/91
f 86/33/92 110/45/92 109/44/92 85/31/92
f 78/23/93 102/47/93 101/46/93 77/24/93
f 87/35/94 111/48/94 110/45/94 86/33/94
f 82/18/95 106/49/95 105/43/95 81/20/95
f 88/37/96 112/50/96 111/48/96 87/35/96
f 79/22/97 103/51/97 102/47/97 78/23/97
f 89/39/98 113/52/98 112/50/98 88/37/98
f 76/25/99 100/54/99 99/53/99 75/19/99
f 75/19/100 99/53/100 106/49/100 82/18/100
f 90/41/101 114/55/101 113/52/101 89/39/101
f 80/21/102 104/42/102 103/51/102 79/22/102
f 83/28/103 107/56/103 114/55/103 90/41/103
f 84/29/104 108/57/104 107/56/104 83/28/104
f 77/24/105 101/46/105 100/54/105 76/25/105
f 85/31/106 109/44/106 108/57/106 84/29/106
f 113/52/64 105/59/64 104/58/64 112/50/64
f 114/55/64 106/60/64 105/59/64 113/52/64
f 107/56/64 99/61/64 106/60/64 114/55/64
f 108/57/64 100/62/64 99/61/64 107/56/64
f 109/44/64 101/63/64 100/62/64 108/57/64
f 110/45/64 102/64/64 101/63/64 109/44/64
f 111/48/64 103/65/64 102/64/64 110/45/64
f 112/50/64 104/58/64 103/65/64 111/48/64
