# Blender 5.1.2
# www.blender.org
mtllib Plate Overlay.mtl
o Plate_Overlay
v 0.000000 -0.000885 -0.084377
v 0.000000 0.023338 -0.098603
v 0.049596 -0.000885 -0.068262
v 0.057957 0.023338 -0.079772
v 0.080247 -0.000885 -0.026074
v 0.093778 0.023338 -0.030470
v 0.080247 -0.000885 0.026074
v 0.093778 0.023338 0.030470
v 0.049596 -0.000885 0.068262
v 0.057957 0.023338 0.079772
v -0.000000 -0.000885 0.084377
v -0.000000 0.023338 0.098603
v -0.049596 -0.000885 0.068262
v -0.057957 0.023338 0.079772
v -0.080247 -0.000885 0.026074
v -0.093778 0.023338 0.030470
v -0.080247 -0.000885 -0.026074
v -0.093778 0.023338 -0.030470
v -0.049596 -0.000885 -0.068262
v -0.057957 0.023338 -0.079772
v 0.000000 0.035082 -0.141835
v 0.083369 0.035082 -0.114748
v 0.134893 0.035082 -0.043830
v 0.134893 0.035082 0.043830
v 0.083369 0.035082 0.114748
v -0.000000 0.035082 0.141835
v -0.083369 0.035082 0.114748
v -0.134893 0.035082 0.043830
v -0.134893 0.035082 -0.043830
v -0.083369 0.035082 -0.114748
v 0.000000 0.027419 -0.095754
v 0.056283 0.027419 -0.077467
v 0.091068 0.027419 -0.029590
v 0.091068 0.027419 0.029590
v 0.056283 0.027419 0.077467
v 0.000000 0.027419 0.095754
v -0.056283 0.027419 0.077467
v -0.091068 0.027419 0.029590
v -0.091068 0.027419 -0.029590
v -0.056283 0.027419 -0.077467
v 0.000000 0.004568 -0.081865
v 0.048119 0.004568 -0.066230
v 0.077857 0.004568 -0.025298
v 0.077857 0.004568 0.025298
v 0.048119 0.004568 0.066230
v 0.000000 0.004568 0.081865
v -0.048119 0.004568 0.066230
v -0.077857 0.004568 0.025298
v -0.077857 0.004568 -0.025298
v -0.048119 0.004568 -0.066230
v 0.000000 -0.000059 -0.083813
v 0.000000 0.024176 -0.098058
v 0.049264 -0.000059 -0.067806
v 0.057637 0.024176 -0.079331
v 0.079711 -0.000059 -0.025900
v 0.093259 0.024176 -0.030302
v 0.079711 -0.000059 0.025900
v 0.093259 0.024176 0.030302
v 0.049264 -0.000059 0.067806
v 0.057637 0.024176 0.079331
v 0.000000 -0.000059 0.083813
v 0.000000 0.024176 0.098058
v -0.049264 -0.000059 0.067806
v -0.057637 0.024176 0.079331
v -0.079711 -0.000059 0.025900
v -0.093259 0.024176 0.030302
v -0.079711 -0.000059 -0.025900
v -0.093259 0.024176 -0.030302
v -0.049264 -0.000059 -0.067806
v -0.057637 0.024176 -0.079331
v 0.000000 0.034901 -0.140852
v 0.082791 0.034901 -0.113952
v 0.133958 0.034901 -0.043526
v 0.133958 0.034901 0.043526
v 0.082791 0.034901 0.113952
v 0.000000 0.034901 0.140852
v -0.082791 0.034901 0.113952
v -0.133958 0.034901 0.043526
v -0.133958 0.034901 -0.043526
v -0.082791 0.034901 -0.113952
v 0.000000 0.026558 -0.096263
v 0.056582 0.026558 -0.077879
v 0.091552 0.026558 -0.029747
v 0.091552 0.026558 0.029747
v 0.056582 0.026558 0.077879
v 0.000000 0.026558 0.096263
v -0.056582 0.026558 0.077879
v -0.091552 0.026558 0.029747
v -0.091552 0.026558 -0.029747
v -0.056582 0.026558 -0.077879
v 0.000000 0.003738 -0.082423
v 0.048447 0.003738 -0.066681
v 0.078388 0.003738 -0.025470
v 0.078388 0.003738 0.025470
v 0.048447 0.003738 0.066681
v 0.000000 0.003738 0.082423
v -0.048447 0.003738 0.066681
v -0.078388 0.003738 0.025470
v -0.078388 0.003738 -0.025470
v -0.048447 0.003738 -0.066681
vn 0.2698 -0.4877 -0.8303
vn 0.7063 -0.4877 -0.5132
vn 0.8730 -0.4877 -0.0000
vn 0.7063 -0.4877 0.5132
vn 0.2698 -0.4877 0.8303
vn -0.2698 -0.4877 0.8303
vn -0.7063 -0.4877 0.5132
vn -0.8730 -0.4877 -0.0000
vn -0.0849 -0.9615 0.2612
vn -0.7063 -0.4877 -0.5132
vn -0.2698 -0.4877 -0.8303
vn -0.0000 -1.0000 -0.0000
vn -0.0532 0.9851 -0.1638
vn 0.0849 -0.9615 0.2612
vn 0.2222 -0.9615 0.1614
vn 0.0849 -0.9615 -0.2612
vn 0.2747 -0.9615 -0.0000
vn 0.2222 -0.9615 -0.1614
vn -0.0849 -0.9615 -0.2612
vn -0.2222 -0.9615 -0.1614
vn -0.2747 -0.9615 -0.0000
vn -0.2222 -0.9615 0.1614
vn -0.7004 0.5005 0.5089
vn -0.1394 0.9851 0.1012
vn 0.1394 0.9851 0.1012
vn 0.0532 0.9851 -0.1638
vn -0.1723 0.9851 -0.0000
vn 0.0532 0.9851 0.1638
vn 0.1394 0.9851 -0.1012
vn -0.1394 0.9851 -0.1012
vn -0.0532 0.9851 0.1638
vn 0.1723 0.9851 -0.0000
vn -0.0000 1.0000 -0.0000
vn 0.7004 0.5005 0.5089
vn 0.2675 0.5005 -0.8234
vn -0.8657 0.5005 -0.0000
vn 0.2675 0.5005 0.8234
vn 0.7004 0.5005 -0.5089
vn -0.7004 0.5005 -0.5089
vn -0.2675 0.5005 0.8234
vn 0.8657 0.5005 -0.0000
vn -0.2675 0.5005 -0.8234
vn -0.2697 0.4880 0.8301
vn -0.7062 0.4880 0.5131
vn -0.8729 0.4880 -0.0000
vn -0.7062 0.4880 -0.5131
vn -0.2697 0.4880 -0.8301
vn 0.2697 0.4880 -0.8301
vn 0.7062 0.4880 -0.5131
vn 0.8729 0.4880 -0.0000
vn 0.0787 0.9670 -0.2423
vn 0.7062 0.4880 0.5131
vn 0.2697 0.4880 0.8301
vn 0.0597 -0.9812 0.1836
vn -0.0787 0.9670 -0.2423
vn -0.2062 0.9670 -0.1498
vn -0.0787 0.9670 0.2423
vn -0.2548 0.9670 -0.0000
vn -0.2062 0.9670 0.1498
vn 0.0787 0.9670 0.2423
vn 0.2062 0.9670 0.1498
vn 0.2548 0.9670 -0.0000
vn 0.2062 0.9670 -0.1498
vn 0.7008 -0.4997 -0.5091
vn 0.1562 -0.9812 -0.1135
vn -0.1562 -0.9812 -0.1135
vn -0.0597 -0.9812 0.1836
vn 0.1930 -0.9812 -0.0000
vn -0.0597 -0.9812 -0.1836
vn -0.1562 -0.9812 0.1135
vn 0.1562 -0.9812 0.1135
vn 0.0597 -0.9812 -0.1836
vn -0.1930 -0.9812 -0.0000
vn -0.7008 -0.4997 -0.5091
vn -0.2677 -0.4997 0.8238
vn 0.8662 -0.4997 -0.0000
vn -0.2677 -0.4997 -0.8238
vn -0.7008 -0.4997 0.5091
vn 0.7008 -0.4997 0.5091
vn 0.2677 -0.4997 -0.8238
vn -0.8662 -0.4997 -0.0000
vn 0.2677 -0.4997 0.8238
vt 0.752578 0.968345
vt 0.752578 0.985988
vt 0.749050 0.985988
vt 0.749050 0.968345
vt 0.745521 0.985988
vt 0.745521 0.968345
vt 0.741992 0.985988
vt 0.741992 0.968345
vt 0.738464 0.985988
vt 0.738464 0.968345
vt 0.734935 0.985988
vt 0.734935 0.968345
vt 0.731407 0.985988
vt 0.731407 0.968345
vt 0.727878 0.985988
vt 0.727878 0.968345
vt 0.724349 0.985988
vt 0.724349 0.968345
vt 0.720821 0.985988
vt 0.720821 0.968345
vt 0.717292 0.985988
vt 0.717292 0.968345
vt 0.743757 0.967992
vt 0.748735 0.966374
vt 0.751811 0.962140
vt 0.751811 0.956906
vt 0.748735 0.952672
vt 0.743757 0.951054
vt 0.738779 0.952672
vt 0.735703 0.956906
vt 0.735703 0.962140
vt 0.738779 0.966374
vt 0.731091 0.966374
vt 0.726114 0.967992
vt 0.721136 0.966374
vt 0.718060 0.962140
vt 0.718060 0.956906
vt 0.721136 0.952672
vt 0.726114 0.951054
vt 0.731091 0.952672
vt 0.734168 0.956906
vt 0.734168 0.962140
s 1
usemtl Material.003
f 1/1/1 2/2/1 4/3/1 3/4/1
f 3/4/2 4/3/2 6/5/2 5/6/2
f 5/6/3 6/5/3 8/7/3 7/8/3
f 7/8/4 8/7/4 10/9/4 9/10/4
f 9/10/5 10/9/5 12/11/5 11/12/5
f 11/12/6 12/11/6 14/13/6 13/14/6
f 13/14/7 14/13/7 16/15/7 15/16/7
f 15/16/8 16/15/8 18/17/8 17/18/8
f 14/13/9 12/11/9 26/11/9 27/13/9
f 17/18/10 18/17/10 20/19/10 19/20/10
f 19/20/11 20/19/11 2/21/11 1/22/11
f 1/23/12 3/24/12 5/25/12 7/26/12 9/27/12 11/28/12 13/29/12 15/30/12 17/31/12 19/32/12
f 26/11/13 25/9/13 35/9/13 36/11/13
f 12/11/14 10/9/14 25/9/14 26/11/14
f 10/9/15 8/7/15 24/7/15 25/9/15
f 4/3/16 2/2/16 21/2/16 22/3/16
f 8/7/17 6/5/17 23/5/17 24/7/17
f 6/5/18 4/3/18 22/3/18 23/5/18
f 2/21/19 20/19/19 30/19/19 21/21/19
f 20/19/20 18/17/20 29/17/20 30/19/20
f 18/17/21 16/15/21 28/15/21 29/17/21
f 16/15/22 14/13/22 27/13/22 28/15/22
f 33/5/23 32/3/23 42/3/23 43/5/23
f 23/5/24 22/3/24 32/3/24 33/5/24
f 30/19/25 29/17/25 39/17/25 40/19/25
f 27/13/26 26/11/26 36/11/26 37/13/26
f 24/7/27 23/5/27 33/5/27 34/7/27
f 21/21/28 30/19/28 40/19/28 31/21/28
f 28/15/29 27/13/29 37/13/29 38/15/29
f 25/9/30 24/7/30 34/7/30 35/9/30
f 22/3/31 21/2/31 31/2/31 32/3/31
f 29/17/32 28/15/32 38/15/32 39/17/32
f 42/33/33 41/34/33 50/35/33 49/36/33 48/37/33 47/38/33 46/39/33 45/40/33 44/41/33 43/42/33
f 40/19/34 39/17/34 49/17/34 50/19/34
f 37/13/35 36/11/35 46/11/35 47/13/35
f 34/7/36 33/5/36 43/5/36 44/7/36
f 31/21/37 40/19/37 50/19/37 41/21/37
f 38/15/38 37/13/38 47/13/38 48/15/38
f 35/9/39 34/7/39 44/7/39 45/9/39
f 32/3/40 31/2/40 41/2/40 42/3/40
f 39/17/41 38/15/41 48/15/41 49/17/41
f 36/11/42 35/9/42 45/9/42 46/11/42
f 51/1/43 53/4/43 54/3/43 52/2/43
f 53/4/44 55/6/44 56/5/44 54/3/44
f 55/6/45 57/8/45 58/7/45 56/5/45
f 57/8/46 59/10/46 60/9/46 58/7/46
f 59/10/47 61/12/47 62/11/47 60/9/47
f 61/12/48 63/14/48 64/13/48 62/11/48
f 63/14/49 65/16/49 66/15/49 64/13/49
f 65/16/50 67/18/50 68/17/50 66/15/50
f 64/13/51 77/13/51 76/11/51 62/11/51
f 67/18/52 69/20/52 70/19/52 68/17/52
f 69/20/53 51/22/53 52/21/53 70/19/53
f 51/23/33 69/32/33 67/31/33 65/30/33 63/29/33 61/28/33 59/27/33 57/26/33 55/25/33 53/24/33
f 76/11/54 86/11/54 85/9/54 75/9/54
f 62/11/55 76/11/55 75/9/55 60/9/55
f 60/9/56 75/9/56 74/7/56 58/7/56
f 54/3/57 72/3/57 71/2/57 52/2/57
f 58/7/58 74/7/58 73/5/58 56/5/58
f 56/5/59 73/5/59 72/3/59 54/3/59
f 52/21/60 71/21/60 80/19/60 70/19/60
f 70/19/61 80/19/61 79/17/61 68/17/61
f 68/17/62 79/17/62 78/15/62 66/15/62
f 66/15/63 78/15/63 77/13/63 64/13/63
f 83/5/64 93/5/64 92/3/64 82/3/64
f 73/5/65 83/5/65 82/3/65 72/3/65
f 80/19/66 90/19/66 89/17/66 79/17/66
f 77/13/67 87/13/67 86/11/67 76/11/67
f 74/7/68 84/7/68 83/5/68 73/5/68
f 71/21/69 81/21/69 90/19/69 80/19/69
f 78/15/70 88/15/70 87/13/70 77/13/70
f 75/9/71 85/9/71 84/7/71 74/7/71
f 72/3/72 82/3/72 81/2/72 71/2/72
f 79/17/73 89/17/73 88/15/73 78/15/73
f 92/33/12 93/42/12 94/41/12 95/40/12 96/39/12 97/38/12 98/37/12 99/36/12 100/35/12 91/34/12
f 90/19/74 100/19/74 99/17/74 89/17/74
f 87/13/75 97/13/75 96/11/75 86/11/75
f 84/7/76 94/7/76 93/5/76 83/5/76
f 81/21/77 91/21/77 100/19/77 90/19/77
f 88/15/78 98/15/78 97/13/78 87/13/78
f 85/9/79 95/9/79 94/7/79 84/7/79
f 82/3/80 92/3/80 91/2/80 81/2/80
f 89/17/81 99/17/81 98/15/81 88/15/81
f 86/11/82 96/11/82 95/9/82 85/9/82
