# Blender 5.1.2
# www.blender.org
mtllib pictureframe.mtl
o Cube.001
v -0.036415 0.113250 0.015406
v -0.036415 0.085068 0.011244
v -0.018208 0.085068 0.011244
v -0.018208 0.113250 0.015406
v -0.036415 0.002615 -0.015406
v -0.036415 0.000523 -0.001243
v -0.036415 0.028705 0.002919
v -0.036415 0.115342 0.001243
v -0.036415 0.056887 0.007081
v -0.036415 0.085068 0.011244
v -0.036415 0.113250 0.015406
v 0.036415 0.028705 0.002919
v 0.036415 0.000523 -0.001243
v 0.036415 0.002615 -0.015406
v 0.036415 0.115342 0.001243
v 0.036415 0.056887 0.007081
v 0.036415 0.085068 0.011244
v 0.036415 0.113250 0.015406
v 0.036415 0.002615 -0.015406
v 0.036415 0.000523 -0.001243
v 0.018208 0.000523 -0.001243
v 0.000000 0.000523 -0.001243
v -0.018208 0.000523 -0.001243
v -0.036415 0.000523 -0.001243
v -0.036415 0.002615 -0.015406
v -0.036415 0.115342 0.001243
v -0.036415 0.113250 0.015406
v -0.018208 0.113250 0.015406
v -0.000000 0.113250 0.015406
v 0.018208 0.113250 0.015406
v 0.036415 0.113250 0.015406
v 0.036415 0.115342 0.001243
v 0.029390 0.104891 0.013528
v 0.029390 0.009199 -0.001633
v -0.029390 0.009199 -0.001633
v -0.029390 0.104891 0.013528
v -0.029390 0.104891 0.013528
v -0.029390 0.009199 -0.001633
v -0.029390 0.010974 -0.013063
v -0.029390 0.106667 0.002097
v 0.029390 0.010974 -0.013063
v 0.029390 0.009199 -0.001633
v 0.029390 0.104891 0.013528
v 0.029390 0.106667 0.002097
v -0.029390 0.010974 -0.013063
v -0.029390 0.009199 -0.001633
v 0.029390 0.009199 -0.001633
v 0.029390 0.010974 -0.013063
v 0.029390 0.106667 0.002097
v 0.029390 0.104891 0.013528
v -0.029390 0.104891 0.013528
v -0.029390 0.106667 0.002097
v 0.036415 0.115342 0.001243
v 0.029390 0.106667 0.002097
v -0.029390 0.106667 0.002097
v -0.036415 0.115342 0.001243
v 0.036415 0.115342 0.001243
v 0.036415 0.002615 -0.015406
v 0.029390 0.010974 -0.013063
v 0.029390 0.106667 0.002097
v 0.029390 0.010974 -0.013063
v 0.036415 0.002615 -0.015406
v -0.036415 0.002615 -0.015406
v -0.029390 0.010974 -0.013063
v -0.029390 0.010974 -0.013063
v -0.036415 0.002615 -0.015406
v -0.036415 0.115342 0.001243
v -0.029390 0.106667 0.002097
v -0.036415 0.056887 0.007081
v -0.036415 0.028705 0.002919
v -0.018208 0.028705 0.002919
v -0.018208 0.042796 0.005000
v -0.018208 0.056887 0.007081
v 0.009104 0.042796 0.005000
v 0.006601 0.000530 0.019624
v -0.000000 0.000530 0.019624
v -0.000000 0.042796 0.005000
v -0.000000 0.113250 0.015406
v -0.000000 0.085068 0.011244
v 0.018208 0.085068 0.011244
v 0.018208 0.113250 0.015406
v -0.000000 0.085068 0.011244
v -0.000000 0.056887 0.007081
v 0.009104 0.056887 0.007081
v 0.018208 0.056887 0.007081
v 0.018208 0.085068 0.011244
v 0.018208 0.085068 0.011244
v 0.018208 0.056887 0.007081
v 0.036415 0.056887 0.007081
v 0.036415 0.085068 0.011244
v 0.036415 0.085068 0.011244
v 0.036415 0.113250 0.015406
v -0.000000 0.028705 0.002919
v 0.000000 0.000523 -0.001243
v 0.018208 0.000523 -0.001243
v 0.018208 0.028705 0.002919
v 0.009104 0.028705 0.002919
v 0.036415 0.000523 -0.001243
v 0.036415 0.028705 0.002919
v 0.018208 0.042796 0.005000
v 0.018208 0.028705 0.002919
v 0.036415 0.028705 0.002919
v 0.036415 0.056887 0.007081
v 0.018208 0.056887 0.007081
v -0.036415 0.028705 0.002919
v -0.036415 0.000523 -0.001243
v -0.018208 0.000523 -0.001243
v -0.018208 0.028705 0.002919
v -0.009104 0.028705 0.002919
v -0.018208 0.056887 0.007081
v -0.018208 0.042796 0.005000
v -0.009104 0.042796 0.005000
v -0.009104 0.056887 0.007081
v -0.036415 0.085068 0.011244
v -0.036415 0.056887 0.007081
v -0.018208 0.056887 0.007081
v -0.018208 0.085068 0.011244
v -0.018208 0.085068 0.011244
v -0.018208 0.056887 0.007081
v -0.009104 0.056887 0.007081
v -0.018208 0.042796 0.005000
v -0.018208 0.028705 0.002919
v -0.009104 0.028705 0.002919
v -0.009104 0.042796 0.005000
v -0.000000 0.028705 0.002919
v -0.000000 0.042796 0.005000
v -0.000000 0.056887 0.007081
v -0.000000 0.000317 0.029951
v 0.006601 0.000317 0.029951
v 0.009104 0.056887 0.007081
v 0.009104 0.028705 0.002919
v 0.009104 0.042796 0.005000
v 0.018208 0.028705 0.002919
v 0.018208 0.042796 0.005000
v 0.009104 0.056887 0.007081
v 0.009104 0.042796 0.005000
v 0.018208 0.042796 0.005000
v 0.018208 0.056887 0.007081
v 0.006601 0.000530 0.019624
v 0.006601 0.000317 0.029951
v -0.000000 0.000317 0.029951
v -0.000000 0.000530 0.019624
v -0.006601 0.000317 0.029951
v -0.006601 0.000530 0.019624
v 0.009104 0.056887 0.007081
v 0.006601 0.000317 0.029951
v 0.006601 0.000530 0.019624
v 0.009104 0.042796 0.005000
v -0.009104 0.056887 0.007081
v -0.006601 0.000317 0.029951
v -0.006601 0.000530 0.019624
v -0.006601 0.000317 0.029951
v -0.009104 0.056887 0.007081
v -0.009104 0.042796 0.005000
v -0.006601 0.000530 0.019624
v -0.009104 0.042796 0.005000
vn -0.0000 -0.1461 0.9893
vn -1.0000 -0.0000 -0.0000
vn 1.0000 -0.0000 -0.0000
vn -0.0000 -0.9893 -0.1461
vn -0.0000 0.9893 0.1461
vn -0.0000 0.1565 -0.9877
vn -0.0000 0.9881 0.1535
vn -0.0000 -0.9881 -0.1535
vn -0.0000 -0.0980 -0.9952
vn -0.2226 0.1471 -0.9638
vn -0.2226 0.1471 -0.9637
vn -0.0000 0.2698 -0.9629
vn 0.2226 0.1471 -0.9638
vn 0.2226 0.1471 -0.9637
vn -0.0000 -0.3270 -0.9450
vn -0.0000 -0.1460 0.9893
vn -0.0000 0.3748 0.9271
vn -0.0000 -0.9998 -0.0206
vn 0.9986 -0.0355 0.0397
vn -0.9986 -0.0355 0.0397
vt 0.292539 0.902322
vt 0.290436 0.902322
vt 0.290436 0.900219
vt 0.292539 0.900219
vt 0.280905 0.924336
vt 0.280905 0.923900
vt 0.281014 0.923900
vt 0.281341 0.924336
vt 0.281123 0.923900
vt 0.281232 0.923900
vt 0.281341 0.923900
vt 0.281014 0.925208
vt 0.280905 0.925208
vt 0.280905 0.924772
vt 0.281341 0.924772
vt 0.281123 0.925208
vt 0.281232 0.925208
vt 0.281341 0.925208
vt 0.280469 0.924772
vt 0.280469 0.924663
vt 0.280469 0.924554
vt 0.280469 0.924445
vt 0.280469 0.924336
vt 0.281777 0.924336
vt 0.281777 0.924445
vt 0.281777 0.924554
vt 0.281777 0.924663
vt 0.281777 0.924772
vt 0.292539 0.893911
vt 0.284127 0.893911
vt 0.284127 0.902322
vt 0.284127 0.910734
vt 0.292539 0.910734
vt 0.284127 0.919146
vt 0.284127 0.927558
vt 0.292539 0.927558
vt 0.292539 0.919146
vt 0.275716 0.910734
vt 0.275716 0.919146
vt 0.300951 0.919146
vt 0.300951 0.910734
vt 0.288333 0.902322
vt 0.286230 0.902322
vt 0.286230 0.900219
vt 0.287282 0.900219
vt 0.288333 0.900219
vt 0.287282 0.897065
vt 0.287282 0.898116
vt 0.292539 0.898116
vt 0.290436 0.898116
vt 0.290436 0.896014
vt 0.292539 0.896014
vt 0.288333 0.898116
vt 0.288333 0.897065
vt 0.288333 0.896014
vt 0.288333 0.893911
vt 0.290436 0.893911
vt 0.286230 0.898116
vt 0.284127 0.898116
vt 0.284127 0.896014
vt 0.286230 0.896014
vt 0.286230 0.897065
vt 0.286230 0.893911
vt 0.287282 0.896014
vt 0.284127 0.900219
vt 0.286230 0.899168
vt 0.287282 0.899168
vt 0.288333 0.899168
s 0
usemtl Material.004
f 1/1/1 2/2/1 3/3/1
f 1/1/1 3/3/1 4/4/1
f 5/5/2 6/6/2 7/7/2
f 8/8/2 5/5/2 7/7/2
f 8/8/2 7/7/2 9/9/2
f 8/8/2 9/9/2 10/10/2
f 8/8/2 10/10/2 11/11/2
f 12/12/3 13/13/3 14/14/3
f 12/12/3 14/14/3 15/15/3
f 16/16/3 12/12/3 15/15/3
f 17/17/3 16/16/3 15/15/3
f 18/18/3 17/17/3 15/15/3
f 19/14/4 20/19/4 21/20/4
f 19/14/4 21/20/4 22/21/4
f 19/14/4 22/21/4 23/22/4
f 19/14/4 23/22/4 24/23/4
f 19/14/4 24/23/4 25/5/4
f 26/8/5 27/24/5 28/25/5
f 26/8/5 28/25/5 29/26/5
f 26/8/5 29/26/5 30/27/5
f 26/8/5 30/27/5 31/28/5
f 26/8/5 31/28/5 32/15/5
s 1
f 33/29/6 34/30/6 35/31/6
f 33/29/6 35/31/6 36/1/6
s 0
f 37/1/3 38/31/3 39/32/3
f 37/1/3 39/32/3 40/33/3
f 41/34/2 42/35/2 43/36/2
f 44/37/2 41/34/2 43/36/2
f 45/32/7 46/38/7 47/39/7
f 45/32/7 47/39/7 48/34/7
f 49/37/8 50/40/8 51/41/8
f 49/37/8 51/41/8 52/33/8
f 53/15/9 54/15/9 55/8/9
f 53/15/9 55/8/9 56/8/9
s 1
f 57/15/10 58/14/10 59/14/10
f 57/15/10 59/14/10 60/15/11
s 0
f 61/14/12 62/14/12 63/5/12
f 61/14/12 63/5/12 64/5/12
s 1
f 65/5/13 66/5/13 67/8/13
f 68/8/14 65/5/13 67/8/13
s 0
f 69/42/1 70/43/1 71/44/1
f 69/42/1 71/44/1 72/45/1
f 69/42/1 72/45/1 73/46/1
f 74/47/15 75/47/15 76/48/15
f 74/47/15 76/48/15 77/48/15
f 78/49/1 79/50/1 80/51/1
f 78/49/1 80/51/1 81/52/1
f 82/50/1 83/53/1 84/54/1
f 82/50/1 84/54/1 85/55/1
f 82/50/1 85/55/1 86/51/1
f 87/51/1 88/55/1 89/56/1
f 87/51/1 89/56/1 90/57/1
f 81/52/1 80/51/1 91/57/1
f 81/52/1 91/57/1 92/29/1
f 93/58/1 94/59/1 95/60/1
f 93/58/1 95/60/1 96/61/1
s 1
f 97/62/16 93/58/16 96/61/16
s 0
f 96/61/1 95/60/1 98/30/1
f 96/61/1 98/30/1 99/63/1
f 100/64/1 101/61/1 102/63/1
f 100/64/1 102/63/1 103/56/1
f 104/55/1 100/64/1 103/56/1
f 105/43/1 106/31/1 107/65/1
f 105/43/1 107/65/1 108/44/1
f 108/44/1 107/65/1 94/59/1
f 108/44/1 94/59/1 93/58/1
s 1
f 109/66/16 108/44/16 93/58/16
s 0
f 110/46/1 111/45/1 112/67/1
f 110/46/1 112/67/1 113/68/1
f 114/2/1 115/42/1 116/46/1
f 114/2/1 116/46/1 117/3/1
f 118/3/1 119/46/1 120/68/1
f 118/3/1 120/68/1 83/53/1
f 118/3/1 83/53/1 82/50/1
f 4/4/1 3/3/1 79/50/1
f 4/4/1 79/50/1 78/49/1
s 1
f 121/45/1 122/44/1 123/66/1
s 0
f 121/45/1 123/66/1 124/67/1
s 1
f 124/67/1 123/66/1 125/58/1
s 0
f 124/67/1 125/58/1 126/48/1
f 127/53/17 128/53/17 129/54/17
f 127/53/17 129/54/17 130/54/17
s 1
f 126/48/1 125/58/1 131/62/1
s 0
f 126/48/1 131/62/1 132/47/1
s 1
f 132/47/1 131/62/1 133/61/1
s 0
f 132/47/1 133/61/1 134/64/1
f 135/54/1 136/47/1 137/64/1
f 135/54/1 137/64/1 138/55/1
f 139/47/18 140/54/18 141/53/18
f 139/47/18 141/53/18 142/48/18
f 142/48/18 141/53/18 143/68/18
f 142/48/18 143/68/18 144/67/18
s 1
f 145/54/19 146/54/19 147/47/19
f 145/54/19 147/47/19 148/47/19
s 0
f 149/68/17 150/68/17 128/53/17
f 149/68/17 128/53/17 127/53/17
s 1
f 151/67/20 152/68/20 153/68/20
f 154/67/20 151/67/20 153/68/20
s 0
f 77/48/15 76/48/15 155/67/15
f 77/48/15 155/67/15 156/67/15
