# Blender 5.1.2
# www.blender.org
mtllib Alya bag Overlay.mtl
o Overlay_Bag
v 1.106803 -0.569804 0.484912
v 1.256581 0.720370 0.646590
v -0.569841 -0.569804 0.484912
v -0.731949 0.720326 0.646590
v 1.106803 -0.569804 -0.246683
v 1.256789 0.720061 -0.408919
v -0.569841 -0.569804 -0.246683
v -0.732066 0.720049 -0.408916
v -0.732042 -0.638377 0.647133
v 1.268998 -0.638382 0.647134
v -0.732047 -0.638381 -0.408894
v 1.269002 -0.638384 -0.408897
v -0.671997 -0.638714 0.587068
v 1.208959 -0.638714 0.587068
v -0.671997 -0.638714 -0.348839
v 1.208959 -0.638714 -0.348839
v -0.531694 0.519598 -0.509330
v -0.531694 -0.437896 -0.509330
v 1.068661 -0.437895 -0.509329
v 1.068663 0.519597 -0.509329
v 1.369441 -0.437889 0.491429
v 1.369446 0.519561 0.491428
v 1.369434 0.519611 -0.253211
v 1.369438 -0.437888 -0.253210
v -0.832485 -0.437893 0.465595
v -0.832485 -0.437893 -0.227366
v -0.832485 0.519596 -0.227366
v -0.531677 -0.437878 0.736589
v 1.068639 -0.437878 0.736589
v 1.068868 0.763123 0.435987
v -0.531900 0.763125 0.435989
v -0.531598 0.763273 -0.208440
v 1.068566 0.763273 -0.208439
v 1.268890 0.040074 0.647068
v -0.731958 0.040080 0.647050
v 1.369282 0.040263 0.491098
v -0.832370 0.040337 0.465296
v 1.068617 0.040094 0.736253
v -0.531655 0.040094 0.736254
v 1.369110 0.518829 0.225113
v -0.832194 0.518882 0.225113
v 1.278955 0.040220 0.672650
v 1.256519 0.720183 0.647186
v -0.732015 0.720170 0.647033
v 1.369446 0.519561 0.491428
v 1.068631 0.040206 0.761808
v 1.068634 0.519610 0.736585
v -0.531666 0.519611 0.736586
v 0.668481 0.763280 0.113627
v 0.668189 0.763144 0.436023
v -0.742033 0.040231 0.672628
v -0.531666 0.040205 0.761809
v -0.707317 0.719715 -0.408888
v -0.854273 0.522339 0.468349
v -0.854043 0.042897 0.467933
v -0.854220 0.522001 0.225201
v 1.401411 0.040166 0.491036
v 1.401646 0.519692 0.491403
v 1.401578 0.519308 0.225143
v 1.401495 0.519452 0.491815
v 0.268481 0.763275 0.435714
v -0.531624 0.763274 0.113627
v 0.268481 0.763274 -0.208466
v 1.068593 0.763273 0.113627
v 0.268481 0.763280 0.113627
v -0.131227 0.763144 0.436023
v -0.131519 0.763280 0.113627
v 1.069258 0.962768 0.436013
v 0.667704 0.962768 0.436013
v -0.130742 0.962768 0.436013
v -0.532296 0.962768 0.436013
v 0.868481 0.763246 0.113367
v 0.868481 1.163249 0.435861
v -0.331519 1.163249 0.435861
v -0.331519 0.763246 0.113367
v -0.131172 0.763188 0.274388
v -0.531968 0.763145 0.274396
v 1.068936 0.763142 0.274396
v 0.668134 0.763188 0.274388
v 0.343908 0.026861 0.780442
v 0.343857 0.108955 0.774013
v 0.193054 0.026861 0.780442
v 0.193105 0.108955 0.774013
v 0.343910 0.026837 0.725295
v 0.343852 0.108938 0.725312
v 0.193052 0.026837 0.725295
v 0.193110 0.108938 0.725312
v 0.268481 -0.004780 0.780471
v 0.268481 -0.004796 0.725266
v 0.268481 0.118109 0.774110
v 0.268481 0.118089 0.725215
v 1.107029 -0.568856 0.485138
v 1.256259 0.719423 0.646590
v -0.570066 -0.568856 0.485138
v -0.731519 0.719423 0.646590
v 1.107029 -0.568856 -0.246909
v 1.256259 0.719423 -0.408361
v -0.570066 -0.568856 -0.246909
v -0.731519 0.719423 -0.408361
v -0.731519 -0.637720 0.646590
v 1.268481 -0.637720 0.646590
v -0.731519 -0.637720 -0.408361
v 1.268481 -0.637720 -0.408361
v -0.672076 -0.637720 0.587147
v 1.209038 -0.637720 0.587147
v -0.672076 -0.637720 -0.348918
v 1.209038 -0.637720 -0.348918
v -0.531519 0.519423 -0.508361
v -0.531519 -0.437720 -0.508361
v 1.068481 -0.437720 -0.508361
v 1.068481 0.519423 -0.508361
v 1.368481 -0.437720 0.491204
v 1.368481 0.519423 0.491204
v 1.368481 0.519423 -0.252975
v 1.368481 -0.437720 -0.252975
v -0.831519 -0.437720 0.465401
v -0.831519 -0.437720 -0.227172
v -0.831519 0.519423 -0.227172
v -0.531519 -0.437720 0.735614
v 1.068481 -0.437720 0.735614
v 1.068481 0.762280 0.435614
v -0.531519 0.762280 0.435614
v -0.531519 0.762280 -0.208361
v 1.068481 0.762280 -0.208361
v 1.268481 0.040851 0.646590
v -0.731519 0.040851 0.646590
v 1.368481 0.040851 0.491204
v -0.831519 0.040851 0.465401
v 1.068481 0.040851 0.735614
v -0.531519 0.040851 0.735614
v 1.368481 0.519423 0.225614
v -0.831519 0.519423 0.225614
v 1.278481 0.040851 0.672035
v 1.256259 0.719423 0.646590
v -0.731519 0.719423 0.646590
v 1.368481 0.519423 0.491204
v 1.068481 0.040851 0.761060
v 1.068481 0.519423 0.735614
v -0.531519 0.519423 0.735614
v 0.668481 0.762280 0.113627
v 0.668481 0.762280 0.435614
v -0.741519 0.040851 0.672036
v -0.531519 0.040851 0.761060
v -0.706519 0.719423 -0.408361
v -0.853318 0.522126 0.468140
v -0.853318 0.043555 0.468140
v -0.853318 0.522126 0.225614
v 1.400703 0.040851 0.491204
v 1.400703 0.519423 0.491204
v 1.400703 0.519423 0.225614
v 1.400703 0.519423 0.491204
v 0.268481 0.762280 0.435614
v -0.531519 0.762280 0.113627
v 0.268481 0.762280 -0.208361
v 1.068481 0.762280 0.113627
v 0.268481 0.762280 0.113627
v -0.131519 0.762280 0.435614
v -0.131519 0.762280 0.113627
v 1.068481 0.962280 0.435614
v 0.668481 0.962280 0.435614
v -0.131519 0.962280 0.435614
v -0.531519 0.962280 0.435614
v 0.868481 0.762280 0.113627
v 0.868481 1.162280 0.435614
v -0.331519 1.162280 0.435614
v -0.331519 0.762280 0.113627
v -0.131519 0.762280 0.274621
v -0.531519 0.762280 0.274621
v 1.068481 0.762280 0.274620
v 0.668481 0.762280 0.274620
v 0.343245 0.027280 0.779822
v 0.343245 0.108399 0.773451
v 0.193718 0.027280 0.779822
v 0.193718 0.108399 0.773451
v 0.343245 0.027280 0.725896
v 0.343245 0.108399 0.725896
v 0.193718 0.027280 0.725896
v 0.193718 0.108399 0.725896
v 0.268481 -0.004019 0.779822
v 0.268481 -0.004019 0.725896
v 0.268481 0.117357 0.773451
v 0.268481 0.117357 0.725896
vn -0.4074 0.0004 0.9132
vn 0.0020 -1.0000 0.0046
vn -0.0000 0.4479 -0.8941
vn 0.8405 0.0004 0.5418
vn -0.0000 -1.0000 -0.0000
vn -0.0000 -1.0000 0.0056
vn -0.0056 -1.0000 -0.0000
vn -0.0000 -1.0000 -0.0055
vn 0.0055 -1.0000 -0.0000
vn -0.0000 -0.8290 -0.5592
vn 0.5592 -0.8290 -0.0000
vn -0.0000 -0.8290 0.5592
vn -0.5592 -0.8290 -0.0000
vn -0.0000 -0.0000 -1.0000
vn -0.4481 -0.0000 -0.8940
vn 0.4593 0.0024 -0.8883
vn -0.0000 -0.4479 -0.8941
vn 0.0144 -0.9523 -0.3048
vn 0.8941 -0.4479 -0.0000
vn 0.8253 0.0043 -0.5647
vn -0.8750 -0.0000 -0.4841
vn -0.8941 -0.4479 -0.0000
vn -0.8936 0.4488 0.0013
vn -0.0000 -0.4074 0.9132
vn 0.2230 0.9748 -0.0001
vn -0.2101 0.9777 -0.0001
vn -0.0000 0.9775 -0.2107
vn 0.4074 0.0004 0.9133
vn -0.0000 0.0007 1.0000
vn 0.1715 0.9209 0.3501
vn -0.8751 0.0003 0.4840
vn 0.8713 0.4907 0.0014
vn -0.8573 0.0184 0.5145
vn -1.0000 0.0002 0.0002
vn -0.1134 -0.4474 -0.8871
vn 0.0002 1.0000 0.0002
vn -0.0000 0.0525 0.9986
vn 0.3886 0.0477 0.9202
vn -0.0000 0.4074 0.9132
vn 0.0025 -0.4855 -0.8742
vn -0.3806 0.0438 0.9237
vn -0.0021 -1.0000 0.0047
vn -0.0000 -1.0000 0.0043
vn -0.1059 0.9518 0.2877
vn -0.0617 -0.9977 0.0264
vn -1.0000 -0.0005 -0.0002
vn -0.1341 -0.9383 -0.3189
vn -0.8510 0.5251 -0.0002
vn 1.0000 -0.0005 -0.0003
vn 0.7913 0.0282 0.6108
vn 0.8109 0.5852 -0.0002
vn 0.0010 -1.0000 0.0003
vn 1.0000 0.0002 0.0002
vn -0.0000 1.0000 -0.0000
vn -0.0002 1.0000 0.0002
vn -0.0000 0.9799 0.1995
vn -0.0000 0.0002 1.0000
vn -0.0002 1.0000 0.0006
vn 0.0001 1.0000 0.0008
vn 0.5310 0.5321 -0.6595
vn -0.5310 0.5321 -0.6595
vn -1.0000 -0.0020 0.0004
vn 1.0000 -0.0024 0.0003
vn -0.0001 1.0000 0.0008
vn 0.0002 1.0000 0.0006
vn 1.0000 -0.0020 0.0004
vn -1.0000 -0.0024 0.0003
vn -0.0000 0.0623 0.9981
vn -1.0000 0.0007 -0.0000
vn -0.0000 -0.0002 -1.0000
vn 1.0000 0.0007 -0.0000
vn 0.3868 -0.9222 0.0003
vn 0.1205 0.9927 -0.0004
vn -0.3868 -0.9222 0.0003
vn -0.1205 0.9927 -0.0004
vn 0.4067 -0.0000 -0.9136
vn -0.0000 -0.4472 0.8944
vn -0.8409 -0.0000 -0.5412
vn -0.0000 0.8288 0.5595
vn -0.5595 0.8288 -0.0000
vn -0.0000 0.8288 -0.5595
vn 0.5595 0.8288 -0.0000
vn -0.0000 -0.0000 1.0000
vn 0.4472 -0.0000 0.8944
vn -0.4584 -0.0024 0.8888
vn -0.0000 0.4472 0.8944
vn -0.0000 0.9537 0.3009
vn -0.8944 0.4472 -0.0000
vn -0.8258 -0.0044 0.5639
vn 0.8755 -0.0000 0.4832
vn 0.8944 0.4472 -0.0000
vn 0.8944 -0.4472 -0.0000
vn -0.0000 0.4067 -0.9136
vn -0.2225 -0.9749 -0.0000
vn 0.2095 -0.9778 -0.0000
vn -0.0000 -0.9778 0.2095
vn -0.4067 -0.0000 -0.9136
vn 0.8755 -0.0000 -0.4832
vn -0.8721 -0.4893 -0.0000
vn 0.8574 -0.0187 -0.5143
vn 1.0000 -0.0000 -0.0000
vn 0.1112 0.4472 0.8875
vn -0.0000 -0.0531 -0.9986
vn -0.3879 -0.0479 -0.9205
vn -0.0000 -0.4067 -0.9136
vn -0.0000 0.4852 0.8744
vn 0.3798 -0.0439 -0.9240
vn 0.0612 0.9978 -0.0267
vn 0.1168 0.9417 0.3155
vn 0.8509 -0.5253 -0.0000
vn -1.0000 -0.0000 -0.0000
vn -0.7914 -0.0286 -0.6106
vn -0.8107 -0.5855 -0.0000
vn -0.0000 -0.9800 -0.1991
vn -0.5312 -0.5312 0.6600
vn 0.5312 -0.5312 0.6600
vn -0.0000 -0.0628 -0.9980
vn -0.3862 0.9224 -0.0000
vn -0.1190 -0.9929 -0.0000
vn 0.3862 0.9224 -0.0000
vn 0.1190 -0.9929 -0.0000
vn 0.9466 -0.3225 -0.0027
vn -0.3269 0.8639 0.3832
vn 0.2465 0.6989 -0.6714
vn 0.2934 -0.4442 0.8465
vt 0.300786 0.194136
vt 0.300786 0.058955
vt 0.340629 0.098798
vt 0.340629 0.194136
vt 0.046976 0.558628
vt 0.059557 0.586892
vt 0.055961 0.588305
vt 0.043380 0.558628
vt 0.699214 0.760601
vt 0.303221 0.760601
vt 0.340629 0.720758
vt 0.659371 0.720758
vt 0.699214 0.194136
vt 0.699214 0.058955
vt 0.719136 0.098798
vt 0.719136 0.194136
vt 0.089254 0.678488
vt 0.196596 0.678488
vt 0.196596 0.924404
vt 0.089254 0.924404
vt 0.074296 0.663530
vt 0.074296 0.939362
vt 0.065580 0.948078
vt 0.065580 0.654814
vt 0.211554 0.663530
vt 0.220270 0.654814
vt 0.211554 0.939362
vt 0.220270 0.948078
vt 0.659371 0.530082
vt 0.340629 0.530082
vt 0.699214 0.490239
vt 0.300786 0.490239
vt 0.234934 0.684140
vt 0.234934 0.918752
vt 0.119048 0.601023
vt 0.208641 0.585164
vt 0.119048 0.605577
vt 0.197486 0.962742
vt 0.088365 0.962742
vt 0.280864 0.720758
vt 0.280864 0.530082
vt 0.719136 0.530082
vt 0.719136 0.720758
vt 0.092148 0.640150
vt 0.193702 0.640150
vt 0.982557 0.910325
vt 0.938504 0.934638
vt 0.828417 0.934638
vt 0.052526 0.918752
vt 0.052526 0.684140
vt 0.726065 0.427033
vt 0.982557 0.427033
vt 0.933930 0.472688
vt 0.855645 0.472688
vt 0.816502 0.472688
vt 0.777360 0.472688
vt 0.726065 0.910325
vt 0.777360 0.861699
vt 0.816502 0.861699
vt 0.855645 0.861699
vt 0.933930 0.861699
vt 0.659371 0.769139
vt 0.500000 0.769139
vt 0.340629 0.769139
vt 0.659371 0.194136
vt 0.659371 0.098798
vt 0.875000 0.500000
vt 0.280864 0.194136
vt 0.280864 0.098798
vt 0.944777 0.399748
vt 0.828417 0.399748
vt 0.298794 0.194136
vt 0.300786 0.329318
vt 0.276522 0.290013
vt 0.276522 0.194675
vt 0.955140 0.068154
vt 0.955140 0.171332
vt 0.903443 0.274510
vt 0.805824 0.274510
vt 0.805824 0.068154
vt 0.119048 0.290122
vt 0.085162 0.290122
vt 0.084775 0.287041
vt 0.119048 0.287041
vt 0.855645 0.667193
vt 0.777360 0.667193
vt 0.777360 0.569941
vt 0.816502 0.569941
vt 0.855645 0.569941
vt 0.659371 0.289475
vt 0.340629 0.289475
vt 0.701206 0.194136
vt 0.696779 0.329318
vt 0.081516 0.601023
vt 0.081516 0.605577
vt 0.059557 0.304254
vt 0.046976 0.332518
vt 0.043380 0.332518
vt 0.055961 0.302841
vt 0.875000 0.750000
vt 0.955731 0.171915
vt 0.955731 0.275093
vt 0.903443 0.275093
vt 0.208641 0.304254
vt 0.828417 0.939938
vt 0.769452 0.939938
vt 0.046147 0.161228
vt 0.097411 0.253602
vt 0.046147 0.253602
vt 0.725555 0.194136
vt 0.725555 0.289475
vt 0.763844 0.391914
vt 0.828417 0.391914
vt 0.189788 0.068853
vt 0.189788 0.253602
vt 0.046147 0.068853
vt 0.933930 0.667193
vt 0.855645 0.521314
vt 0.855645 0.813072
vt 0.855645 0.764446
vt 0.816502 0.764446
vt 0.777360 0.764446
vt 0.659371 0.337855
vt 0.579686 0.337855
vt 0.500000 0.337855
vt 0.420314 0.337855
vt 0.340629 0.337855
vt 0.420314 0.377698
vt 0.380471 0.417541
vt 0.340629 0.377698
vt 0.659371 0.377698
vt 0.619529 0.417541
vt 0.579686 0.377698
vt 0.579686 0.769139
vt 0.619529 0.769139
vt 0.619529 0.848825
vt 0.579686 0.808982
vt 0.659371 0.808982
vt 0.340629 0.808982
vt 0.380471 0.769139
vt 0.380471 0.848825
vt 0.420314 0.769139
vt 0.420314 0.808982
vt 0.531424 0.894081
vt 0.531424 0.928177
vt 0.500000 0.931942
vt 0.468576 0.928177
vt 0.468576 0.894081
vt 0.500000 0.880926
s 0
usemtl Material.008
f 35/1/1 9/2/1 28/3/1 39/4/1
f 38/5/2 34/6/2 42/7/2 46/8/2
f 8/9/3 6/10/3 20/11/3 17/12/3
f 34/13/4 10/14/4 21/15/4 36/16/4
f 3/17/5 7/18/5 5/19/5 1/20/5
f 13/21/6 14/22/6 10/23/6 9/24/6
f 15/25/7 13/21/7 9/24/7 11/26/7
f 16/27/8 15/25/8 11/26/8 12/28/8
f 14/22/9 16/27/9 12/28/9 10/23/9
f 3/17/10 1/20/10 14/22/10 13/21/10
f 7/18/11 3/17/11 13/21/11 15/25/11
f 5/19/12 7/18/12 15/25/12 16/27/12
f 1/20/13 5/19/13 16/27/13 14/22/13
f 18/29/14 17/12/14 20/11/14 19/30/14
f 11/31/15 8/9/15 17/12/15 18/29/15
f 6/10/16 12/32/16 19/30/16 20/11/16
f 12/28/17 11/26/17 18/33/17 19/34/17
f 40/35/18 6/36/18 59/37/18
f 10/23/19 12/28/19 24/38/19 21/39/19
f 12/32/20 6/10/20 23/40/20 24/41/20
f 8/9/21 11/31/21 26/42/21 27/43/21
f 11/26/22 9/24/22 25/44/22 26/45/22
f 8/46/23 27/47/23 41/48/23
f 9/24/24 10/23/24 29/49/24 28/50/24
f 2/51/25 6/52/25 33/53/25 64/54/25 78/55/25 30/56/25
f 8/46/26 4/57/26 31/58/26 77/59/26 62/60/26 32/61/26
f 6/10/27 8/9/27 32/62/27 63/63/27 33/64/27
f 10/14/28 34/13/28 38/65/28 29/66/28
f 29/66/29 38/65/29 39/4/29 28/3/29
f 31/67/30 4/67/30 44/67/30
f 9/2/31 35/1/31 37/68/31 25/69/31
f 23/70/32 6/52/32 40/71/32
f 51/72/33 44/73/33 54/74/33 55/75/33
f 25/76/34 37/77/34 41/78/34 27/79/34 26/80/34
f 41/81/35 37/82/35 55/83/35 56/84/35
f 65/85/36 61/86/36 50/87/36 79/88/36 49/89/36
f 46/65/37 47/90/37 48/91/37 52/4/37
f 42/92/38 43/93/38 47/90/38 46/65/38
f 43/93/39 44/73/39 48/91/39 47/90/39
f 36/94/40 40/35/40 59/37/40 57/95/40
f 44/73/41 51/72/41 52/4/41 48/91/41
f 35/96/42 39/97/42 52/98/42 51/99/42
f 39/97/43 38/5/43 46/8/43 52/98/43
f 2/100/44 30/100/44 43/100/44
f 51/99/45 55/83/45 37/82/45 35/96/45
f 55/101/46 54/102/46 56/103/46
f 8/104/47 41/81/47 56/84/47
f 8/46/48 56/105/48 54/106/48 44/57/48 4/57/48
f 57/107/49 59/108/49 58/109/49
f 57/110/50 58/111/50 60/111/50 43/93/50 42/92/50
f 6/52/51 2/51/51 58/112/51 59/113/51
f 36/94/52 57/95/52 42/7/52 34/6/52
f 24/114/53 23/115/53 40/108/53 36/107/53 21/116/53
f 63/117/54 65/85/54 49/89/54 72/118/54 64/54/54 33/53/54
f 32/61/54 62/60/54 75/119/54 67/120/54 65/85/54 63/117/54
f 67/120/55 76/121/55 66/122/55 61/86/55 65/85/55
f 30/123/56 50/124/56 61/125/56 66/126/56 31/127/56 44/73/56 43/93/56
f 31/127/57 66/126/57 70/128/57 74/129/57 71/130/57
f 50/124/57 30/123/57 68/131/57 73/132/57 69/133/57
f 67/120/58 75/119/58 76/121/58
f 62/60/59 77/59/59 75/119/59
f 76/134/60 75/135/60 74/136/60 70/137/60
f 75/135/61 77/62/61 71/138/61 74/136/61
f 71/58/62 77/59/62 31/58/62
f 66/122/63 76/121/63 70/122/63
f 64/54/64 72/118/64 78/55/64
f 49/89/65 79/88/65 72/118/65
f 68/139/60 78/64/60 72/140/60 73/141/60
f 73/141/61 72/140/61 79/142/61 69/143/61
f 78/55/66 68/56/66 30/56/66
f 79/88/67 50/87/67 69/87/67
f 80/144/68 81/145/68 90/146/68 83/147/68 82/148/68 88/149/68
f 82/148/69 83/147/69 87/147/69 86/148/69
f 86/148/70 87/147/70 91/146/70 85/145/70 84/144/70 89/149/70
f 84/144/71 85/145/71 81/145/71 80/144/71
f 88/149/72 89/149/72 84/144/72 80/144/72
f 91/146/73 90/146/73 81/145/73 85/145/73
f 82/148/74 86/148/74 89/149/74 88/149/74
f 87/147/75 83/147/75 90/146/75 91/146/75
f 126/1/76 130/4/76 119/3/76 100/2/76
f 129/5/54 137/8/54 133/7/54 125/6/54
f 99/9/77 108/12/77 111/11/77 97/10/77
f 125/13/78 127/16/78 112/15/78 101/14/78
f 94/17/54 92/20/54 96/19/54 98/18/54
f 104/21/54 100/24/54 101/23/54 105/22/54
f 106/25/54 102/26/54 100/24/54 104/21/54
f 107/27/54 103/28/54 102/26/54 106/25/54
f 105/22/54 101/23/54 103/28/54 107/27/54
f 94/17/79 104/21/79 105/22/79 92/20/79
f 98/18/80 106/25/80 104/21/80 94/17/80
f 96/19/81 107/27/81 106/25/81 98/18/81
f 92/20/82 105/22/82 107/27/82 96/19/82
f 109/29/83 110/30/83 111/11/83 108/12/83
f 102/31/84 109/29/84 108/12/84 99/9/84
f 97/10/85 111/11/85 110/30/85 103/32/85
f 103/28/86 110/34/86 109/33/86 102/26/86
f 131/35/87 150/37/87 97/36/87
f 101/23/88 112/39/88 115/38/88 103/28/88
f 103/32/89 115/41/89 114/40/89 97/10/89
f 99/9/90 118/43/90 117/42/90 102/31/90
f 102/26/91 117/45/91 116/44/91 100/24/91
f 99/46/92 132/48/92 118/47/92
f 100/24/93 119/50/93 120/49/93 101/23/93
f 93/51/94 121/56/94 169/55/94 155/54/94 124/53/94 97/52/94
f 99/46/95 123/61/95 153/60/95 168/59/95 122/58/95 95/57/95
f 97/10/96 124/64/96 154/63/96 123/62/96 99/9/96
f 101/14/97 120/66/97 129/65/97 125/13/97
f 120/66/14 119/3/14 130/4/14 129/65/14
f 122/67/54 135/67/54 95/67/54
f 100/2/98 116/69/98 128/68/98 126/1/98
f 114/70/99 131/71/99 97/52/99
f 142/72/100 146/75/100 145/74/100 135/73/100
f 116/76/101 117/80/101 118/79/101 132/78/101 128/77/101
f 132/81/102 147/84/102 146/83/102 128/82/102
f 156/85/5 140/89/5 170/88/5 141/87/5 152/86/5
f 137/65/103 143/4/103 139/91/103 138/90/103
f 133/92/104 137/65/104 138/90/104 134/93/104
f 134/93/105 138/90/105 139/91/105 135/73/105
f 127/94/106 148/95/106 150/37/106 131/35/106
f 135/73/107 139/91/107 143/4/107 142/72/107
f 126/96/54 142/99/54 143/98/54 130/97/54
f 130/97/54 143/98/54 137/8/54 129/5/54
f 93/100/54 134/100/54 121/100/54
f 142/99/108 126/96/108 128/82/108 146/83/108
f 146/101/101 147/103/101 145/102/101
f 99/104/109 147/84/109 132/81/109
f 99/46/110 95/57/110 135/57/110 145/106/110 147/105/110
f 148/107/111 149/109/111 150/108/111
f 148/110/112 133/92/112 134/93/112 151/111/112 149/111/112
f 97/52/113 150/113/113 149/112/113 93/51/113
f 127/94/54 125/6/54 133/7/54 148/95/54
f 115/114/111 112/116/111 127/107/111 131/108/111 114/115/111
f 154/117/5 124/53/5 155/54/5 163/118/5 140/89/5 156/85/5
f 123/61/5 154/117/5 156/85/5 158/120/5 166/119/5 153/60/5
f 158/120/5 156/85/5 152/86/5 157/122/5 167/121/5
f 121/123/114 134/93/114 135/73/114 122/127/114 157/126/114 152/125/114 141/124/114
f 122/127/14 162/130/14 165/129/14 161/128/14 157/126/14
f 141/124/14 160/133/14 164/132/14 159/131/14 121/123/14
f 158/120/5 167/121/5 166/119/5
f 153/60/5 166/119/5 168/59/5
f 167/134/115 161/137/115 165/136/115 166/135/115
f 166/135/116 165/136/116 162/138/116 168/62/116
f 162/58/101 122/58/101 168/59/101
f 157/122/111 161/122/111 167/121/111
f 155/54/5 169/55/5 163/118/5
f 140/89/5 163/118/5 170/88/5
f 159/139/115 164/141/115 163/140/115 169/64/115
f 164/141/116 160/143/116 170/142/116 163/140/116
f 169/55/111 121/56/111 159/56/111
f 170/88/101 160/87/101 141/87/101
f 171/144/117 179/149/117 173/148/117 174/147/117 181/146/117 172/145/117
f 173/148/101 177/148/101 178/147/101 174/147/101
f 177/148/83 180/149/83 175/144/83 176/145/83 182/146/83 178/147/83
f 175/144/111 171/144/111 172/145/111 176/145/111
f 179/149/118 171/144/118 175/144/118 180/149/118
f 182/146/119 176/145/119 172/145/119 181/146/119
f 173/148/120 179/149/120 180/149/120 177/148/120
f 178/147/121 182/146/121 181/146/121 174/147/121
f 2/100/122 43/100/122 134/100/122 93/100/122
f 60/111/123 58/111/123 149/111/123 151/111/123
f 43/93/124 60/111/124 151/111/124 134/93/124
f 58/112/125 2/51/125 93/51/125 149/112/125
l 22 45
l 53 8
l 113 136
l 144 99
o Overlay_Oring1
v 1.238645 0.473821 -0.193801
v 1.262730 0.467322 -0.196469
v 1.280377 0.485058 -0.198424
v 1.273926 0.509317 -0.197709
v 1.249813 0.515808 -0.195038
v 1.232185 0.498053 -0.193086
v 1.270678 0.518050 -0.306352
v 1.291552 0.507118 -0.297738
v 1.302774 0.515981 -0.277114
v 1.293105 0.535799 -0.265095
v 1.272210 0.546732 -0.273729
v 1.261008 0.537849 -0.294355
v 1.358604 0.606514 -0.316087
v 1.370665 0.586715 -0.306498
v 1.364244 0.577825 -0.283931
v 1.345733 0.588751 -0.270935
v 1.333679 0.608580 -0.280543
v 1.340122 0.617446 -0.303113
v 1.398675 0.631293 -0.211527
v 1.405133 0.607058 -0.212242
v 1.387494 0.589301 -0.210288
v 1.363394 0.595796 -0.207619
v 1.356938 0.620046 -0.206904
v 1.374588 0.637792 -0.208859
v 1.382458 0.606514 -0.100732
v 1.392128 0.586715 -0.112728
v 1.380924 0.577825 -0.133343
v 1.360017 0.588751 -0.141972
v 1.350358 0.608580 -0.129960
v 1.361584 0.617446 -0.109346
v 1.294532 0.518050 -0.090989
v 1.313016 0.507118 -0.103963
v 1.319451 0.515981 -0.126542
v 1.307387 0.535799 -0.136153
v 1.288888 0.546732 -0.123157
v 1.282471 0.537849 -0.100579
v 1.238715 0.473891 -0.193809
v 1.262716 0.467421 -0.196468
v 1.280286 0.485099 -0.198414
v 1.273855 0.509247 -0.197701
v 1.249854 0.515717 -0.195043
v 1.232284 0.498039 -0.193097
v 1.270723 0.518086 -0.306270
v 1.291523 0.507196 -0.297682
v 1.302692 0.516034 -0.277136
v 1.293060 0.535763 -0.265178
v 1.272259 0.546653 -0.273765
v 1.261091 0.537814 -0.294311
v 1.358574 0.606474 -0.316000
v 1.370589 0.586745 -0.306440
v 1.364188 0.577906 -0.283947
v 1.345771 0.588796 -0.271016
v 1.333755 0.608525 -0.280577
v 1.340157 0.617364 -0.303069
v 1.398604 0.631223 -0.211519
v 1.405035 0.607074 -0.212231
v 1.387465 0.589397 -0.210285
v 1.363463 0.595867 -0.207627
v 1.357032 0.620015 -0.206914
v 1.374603 0.637693 -0.208860
v 1.382409 0.606474 -0.100810
v 1.392041 0.586745 -0.112768
v 1.380872 0.577906 -0.133314
v 1.360072 0.588796 -0.141902
v 1.350440 0.608525 -0.129943
v 1.361609 0.617364 -0.109397
v 1.294558 0.518086 -0.091079
v 1.312975 0.507196 -0.104011
v 1.319377 0.516034 -0.126503
v 1.307361 0.535763 -0.136063
v 1.288944 0.546653 -0.123132
v 1.282543 0.537814 -0.100640
vn -0.2795 -0.8639 -0.4190
vn 0.7024 -0.7075 -0.0781
vn 0.9080 0.2312 0.3493
vn 0.2790 0.8641 0.4190
vn -0.7032 0.7067 0.0776
vn -0.9079 -0.2317 -0.3494
vn 0.2157 -0.3161 -0.9239
vn 0.7027 -0.7071 -0.0785
vn 0.4130 -0.3163 0.8540
vn -0.2159 0.3164 0.9237
vn -0.7029 0.7071 0.0772
vn -0.4126 0.3161 -0.8543
vn 0.8733 0.2881 -0.3928
vn 0.6901 -0.7165 -0.1015
vn -0.3006 -0.9291 0.2154
vn -0.8972 -0.3141 0.3105
vn -0.6894 0.7173 0.1011
vn 0.2623 0.9152 -0.3060
vn 0.9381 0.2881 0.1922
vn 0.6956 -0.7165 -0.0520
vn -0.3405 -0.9291 -0.1444
vn -0.9434 -0.3141 -0.1066
vn -0.6948 0.7173 0.0522
vn 0.3229 0.9152 0.2412
vn 0.4127 -0.3161 0.8543
vn 0.7029 -0.7071 -0.0772
vn 0.2161 -0.3163 -0.9237
vn -0.4128 0.3164 -0.8541
vn -0.7027 0.7071 0.0785
vn -0.2157 0.3161 0.9239
vn -0.1810 -0.8639 0.4700
vn 0.7025 -0.7075 -0.0775
vn 0.8096 0.2312 -0.5395
vn 0.1806 0.8641 -0.4699
vn -0.7032 0.7067 0.0782
vn -0.8094 -0.2317 0.5396
vn 0.2793 0.8640 0.4190
vn -0.7028 0.7071 0.0778
vn -0.9079 -0.2315 -0.3494
vn -0.2793 -0.8640 -0.4190
vn 0.7028 -0.7071 -0.0778
vn 0.9079 0.2315 0.3494
vn -0.2158 0.3162 0.9238
vn -0.4128 0.3162 -0.8542
vn 0.2158 -0.3162 -0.9238
vn 0.4128 -0.3162 0.8542
vn -0.8734 -0.2880 0.3927
vn -0.6898 0.7169 0.1013
vn 0.3009 0.9289 -0.2158
vn 0.8970 0.3144 -0.3107
vn 0.6898 -0.7169 -0.1013
vn -0.2622 -0.9153 0.3059
vn -0.9382 -0.2880 -0.1921
vn -0.6952 0.7169 0.0521
vn 0.3408 0.9289 0.1447
vn 0.9432 0.3144 0.1069
vn 0.6952 -0.7169 -0.0521
vn -0.3227 -0.9153 -0.2411
vn 0.1809 0.8640 -0.4700
vn -0.8095 -0.2315 0.5396
vn -0.1809 -0.8640 0.4700
vn 0.8095 0.2315 -0.5396
vt 0.500000 0.982706
vt 0.500767 0.982706
vt 0.500767 0.983473
vt 0.500000 0.983473
vt 0.500767 0.984240
vt 0.500000 0.984240
vt 0.500767 0.985008
vt 0.500000 0.985008
vt 0.500000 0.980403
vt 0.500767 0.980403
vt 0.500767 0.981171
vt 0.500000 0.981171
vt 0.500767 0.981938
vt 0.500000 0.981938
vt 0.501535 0.982706
vt 0.501535 0.983473
vt 0.501535 0.984240
vt 0.501535 0.985008
vt 0.501535 0.980403
vt 0.501535 0.981171
vt 0.501535 0.981938
vt 0.502302 0.982706
vt 0.502302 0.983473
vt 0.502302 0.984240
vt 0.502302 0.985008
vt 0.502302 0.980403
vt 0.502302 0.981171
vt 0.502302 0.981938
vt 0.497698 0.982706
vt 0.498465 0.982706
vt 0.498465 0.983473
vt 0.497698 0.983473
vt 0.498465 0.984240
vt 0.497698 0.984240
vt 0.498465 0.985008
vt 0.497698 0.985008
vt 0.497698 0.980403
vt 0.498465 0.980403
vt 0.498465 0.981171
vt 0.497698 0.981171
vt 0.498465 0.981938
vt 0.497698 0.981938
vt 0.499233 0.982706
vt 0.499233 0.983473
vt 0.499233 0.984240
vt 0.499233 0.985008
vt 0.499233 0.980403
vt 0.499233 0.981171
vt 0.499233 0.981938
s 0
usemtl Material.009
f 183/150/126 189/151/126 190/152/126 184/153/126
f 184/153/127 190/152/127 191/154/127 185/155/127
f 185/155/128 191/154/128 192/156/128 186/157/128
f 186/158/129 192/159/129 193/160/129 187/161/129
f 187/161/130 193/160/130 194/162/130 188/163/130
f 188/163/131 194/162/131 189/151/131 183/150/131
f 189/151/132 195/164/132 196/165/132 190/152/132
f 190/152/133 196/165/133 197/166/133 191/154/133
f 191/154/134 197/166/134 198/167/134 192/156/134
f 192/159/135 198/168/135 199/169/135 193/160/135
f 193/160/136 199/169/136 200/170/136 194/162/136
f 194/162/137 200/170/137 195/164/137 189/151/137
f 195/164/138 201/171/138 202/172/138 196/165/138
f 196/165/139 202/172/139 203/173/139 197/166/139
f 197/166/140 203/173/140 204/174/140 198/167/140
f 198/168/141 204/175/141 205/176/141 199/169/141
f 199/169/142 205/176/142 206/177/142 200/170/142
f 200/170/143 206/177/143 201/171/143 195/164/143
f 201/178/144 207/179/144 208/180/144 202/181/144
f 202/181/145 208/180/145 209/182/145 203/183/145
f 203/183/146 209/182/146 210/184/146 204/185/146
f 204/186/147 210/187/147 211/188/147 205/189/147
f 205/189/148 211/188/148 212/190/148 206/191/148
f 206/191/149 212/190/149 207/179/149 201/178/149
f 207/179/150 213/192/150 214/193/150 208/180/150
f 208/180/151 214/193/151 215/194/151 209/182/151
f 209/182/152 215/194/152 216/195/152 210/184/152
f 210/187/153 216/196/153 217/197/153 211/188/153
f 211/188/154 217/197/154 218/198/154 212/190/154
f 212/190/155 218/198/155 213/192/155 207/179/155
f 213/192/156 183/150/156 184/153/156 214/193/156
f 214/193/157 184/153/157 185/155/157 215/194/157
f 215/194/158 185/155/158 186/157/158 216/195/158
f 216/196/159 186/158/159 187/161/159 217/197/159
f 217/197/160 187/161/160 188/163/160 218/198/160
f 218/198/161 188/163/161 183/150/161 213/192/161
f 219/150/162 220/153/162 226/152/162 225/151/162
f 220/153/163 221/155/163 227/154/163 226/152/163
f 221/155/164 222/157/164 228/156/164 227/154/164
f 222/158/165 223/161/165 229/160/165 228/159/165
f 223/161/166 224/163/166 230/162/166 229/160/166
f 224/163/167 219/150/167 225/151/167 230/162/167
f 225/151/168 226/152/168 232/165/168 231/164/168
f 226/152/163 227/154/163 233/166/163 232/165/163
f 227/154/169 228/156/169 234/167/169 233/166/169
f 228/159/170 229/160/170 235/169/170 234/168/170
f 229/160/166 230/162/166 236/170/166 235/169/166
f 230/162/171 225/151/171 231/164/171 236/170/171
f 231/164/172 232/165/172 238/172/172 237/171/172
f 232/165/173 233/166/173 239/173/173 238/172/173
f 233/166/174 234/167/174 240/174/174 239/173/174
f 234/168/175 235/169/175 241/176/175 240/175/175
f 235/169/176 236/170/176 242/177/176 241/176/176
f 236/170/177 231/164/177 237/171/177 242/177/177
f 237/178/178 238/181/178 244/180/178 243/179/178
f 238/181/179 239/183/179 245/182/179 244/180/179
f 239/183/180 240/185/180 246/184/180 245/182/180
f 240/186/181 241/189/181 247/188/181 246/187/181
f 241/189/182 242/191/182 248/190/182 247/188/182
f 242/191/183 237/178/183 243/179/183 248/190/183
f 243/179/169 244/180/169 250/193/169 249/192/169
f 244/180/163 245/182/163 251/194/163 250/193/163
f 245/182/168 246/184/168 252/195/168 251/194/168
f 246/187/171 247/188/171 253/197/171 252/196/171
f 247/188/166 248/190/166 254/198/166 253/197/166
f 248/190/170 243/179/170 249/192/170 254/198/170
f 249/192/184 250/193/184 220/153/184 219/150/184
f 250/193/163 251/194/163 221/155/163 220/153/163
f 251/194/185 252/195/185 222/157/185 221/155/185
f 252/196/186 253/197/186 223/161/186 222/158/186
f 253/197/166 254/198/166 224/163/166 223/161/166
f 254/198/187 249/192/187 219/150/187 224/163/187
o Overlay_Oring2
v -0.772140 0.473821 0.028920
v -0.765681 0.498053 0.028205
v -0.783309 0.515808 0.030157
v -0.807421 0.509317 0.032828
v -0.813873 0.485058 0.033542
v -0.796225 0.467322 0.031588
v -0.828028 0.518050 -0.073892
v -0.815967 0.537849 -0.064302
v -0.822383 0.546732 -0.041725
v -0.840882 0.535799 -0.028728
v -0.852947 0.515981 -0.038339
v -0.846511 0.507118 -0.060919
v -0.915954 0.606514 -0.064149
v -0.895080 0.617445 -0.055536
v -0.883852 0.608579 -0.034924
v -0.893514 0.588750 -0.022909
v -0.914420 0.577827 -0.031536
v -0.925624 0.586715 -0.052152
v -0.928655 0.634829 0.046256
v -0.904567 0.641327 0.043588
v -0.886919 0.623580 0.041633
v -0.893374 0.599333 0.042348
v -0.917476 0.592837 0.045018
v -0.935115 0.610596 0.046972
v -0.892101 0.606514 0.151205
v -0.873617 0.617445 0.138233
v -0.867173 0.608579 0.115664
v -0.879229 0.588750 0.106054
v -0.897741 0.577827 0.119047
v -0.904161 0.586715 0.141615
v -0.804174 0.518050 0.141471
v -0.794504 0.537849 0.129473
v -0.805705 0.546732 0.108847
v -0.826600 0.535799 0.100214
v -0.836269 0.515981 0.112233
v -0.825048 0.507118 0.132857
v -0.772210 0.473891 0.028928
v -0.765779 0.498039 0.028215
v -0.783350 0.515717 0.030162
v -0.807351 0.509247 0.032820
v -0.813782 0.485099 0.033532
v -0.796212 0.467421 0.031586
v -0.828054 0.518086 -0.073802
v -0.816038 0.537814 -0.064241
v -0.822440 0.546653 -0.041749
v -0.840857 0.535763 -0.028818
v -0.852872 0.516034 -0.038378
v -0.846471 0.507196 -0.060871
v -0.915905 0.606474 -0.064071
v -0.895104 0.617364 -0.055484
v -0.883936 0.608525 -0.034938
v -0.893567 0.588796 -0.022979
v -0.914368 0.577906 -0.031567
v -0.925537 0.586745 -0.052113
v -0.928585 0.634758 0.046248
v -0.904584 0.641229 0.043590
v -0.887014 0.623551 0.041644
v -0.893445 0.599403 0.042356
v -0.917446 0.592932 0.045015
v -0.935017 0.610610 0.046961
v -0.892070 0.606474 0.151119
v -0.873652 0.617364 0.138188
v -0.867251 0.608525 0.115695
v -0.879266 0.588796 0.106135
v -0.897683 0.577906 0.119066
v -0.904085 0.586745 0.141558
v -0.804218 0.518086 0.141388
v -0.794587 0.537814 0.129430
v -0.805755 0.546653 0.108884
v -0.826556 0.535763 0.100296
v -0.836188 0.516034 0.112255
v -0.825019 0.507196 0.132801
vn 0.8094 -0.2317 -0.5396
vn 0.7032 0.7067 -0.0782
vn -0.1806 0.8641 0.4699
vn -0.8096 0.2312 0.5395
vn -0.7025 -0.7075 0.0775
vn 0.1810 -0.8639 -0.4700
vn 0.2157 0.3161 -0.9239
vn 0.7027 0.7071 -0.0785
vn 0.4129 0.3165 0.8541
vn -0.2160 -0.3163 0.9237
vn -0.7029 -0.7071 0.0772
vn -0.4127 -0.3161 -0.8543
vn -0.3188 0.9113 -0.2608
vn 0.7094 0.6971 -0.1036
vn 0.9434 -0.3225 0.0777
vn 0.3353 -0.9259 0.1740
vn -0.7102 -0.6963 0.1034
vn -0.9399 0.2944 -0.1729
vn -0.2540 0.9113 0.3242
vn 0.7149 0.6971 -0.0542
vn 0.9035 -0.3225 -0.2822
vn 0.2891 -0.9259 -0.2432
vn -0.7157 -0.6963 0.0545
vn -0.8793 0.2944 0.3744
vn 0.4126 0.3161 0.8543
vn 0.7029 0.7071 -0.0772
vn 0.2159 0.3165 -0.9237
vn -0.4130 -0.3163 -0.8541
vn -0.7027 -0.7071 0.0785
vn -0.2157 -0.3161 0.9239
vn 0.9079 -0.2317 0.3494
vn 0.7032 0.7067 -0.0776
vn -0.2790 0.8641 -0.4190
vn -0.9080 0.2312 -0.3493
vn -0.7024 -0.7075 0.0781
vn 0.2795 -0.8639 0.4190
vn -0.8095 0.2315 0.5396
vn -0.7028 -0.7071 0.0778
vn 0.1809 -0.8640 -0.4700
vn 0.8095 -0.2315 -0.5396
vn 0.7028 0.7071 -0.0778
vn -0.1809 0.8640 0.4700
vn -0.2158 -0.3162 0.9238
vn -0.4128 -0.3162 -0.8542
vn 0.2158 0.3162 -0.9238
vn 0.4128 0.3162 0.8542
vn 0.3186 -0.9113 0.2607
vn -0.7098 -0.6967 0.1035
vn -0.9432 0.3228 -0.0780
vn -0.3357 0.9257 -0.1742
vn 0.7098 0.6967 -0.1035
vn 0.9400 -0.2942 0.1728
vn 0.2539 -0.9113 -0.3241
vn -0.7153 -0.6967 0.0543
vn -0.9033 0.3228 0.2825
vn -0.2894 0.9257 0.2434
vn 0.7153 0.6967 -0.0543
vn 0.8794 -0.2942 -0.3743
vn -0.9079 0.2315 -0.3494
vn 0.2793 -0.8640 0.4190
vn 0.9079 -0.2315 0.3494
vn -0.2793 0.8640 -0.4190
vt 0.500000 0.958936
vt 0.509361 0.958936
vt 0.509361 0.968297
vt 0.500000 0.968297
vt 0.509361 0.977658
vt 0.500000 0.977658
vt 0.509361 0.987019
vt 0.500000 0.987019
vt 0.500000 0.930853
vt 0.509361 0.930853
vt 0.509361 0.940214
vt 0.500000 0.940214
vt 0.509361 0.949575
vt 0.500000 0.949575
vt 0.518722 0.958936
vt 0.518722 0.968297
vt 0.518722 0.977658
vt 0.518722 0.987019
vt 0.518722 0.930853
vt 0.518722 0.940214
vt 0.518722 0.949575
vt 0.528083 0.958936
vt 0.528083 0.968297
vt 0.528083 0.977658
vt 0.528083 0.987019
vt 0.528083 0.930853
vt 0.528083 0.940214
vt 0.528083 0.949575
vt 0.471917 0.958936
vt 0.481278 0.958936
vt 0.481278 0.968297
vt 0.471917 0.968297
vt 0.481278 0.977658
vt 0.471917 0.977658
vt 0.481278 0.987019
vt 0.471917 0.987019
vt 0.471917 0.930853
vt 0.481278 0.930853
vt 0.481278 0.940214
vt 0.471917 0.940214
vt 0.481278 0.949575
vt 0.471917 0.949575
vt 0.490639 0.958936
vt 0.490639 0.968297
vt 0.490639 0.977658
vt 0.490639 0.987019
vt 0.490639 0.930853
vt 0.490639 0.940214
vt 0.490639 0.949575
s 0
usemtl Material.010
f 255/199/188 261/200/188 262/201/188 256/202/188
f 256/202/189 262/201/189 263/203/189 257/204/189
f 257/204/190 263/203/190 264/205/190 258/206/190
f 258/207/191 264/208/191 265/209/191 259/210/191
f 259/210/192 265/209/192 266/211/192 260/212/192
f 260/212/193 266/211/193 261/200/193 255/199/193
f 261/200/194 267/213/194 268/214/194 262/201/194
f 262/201/195 268/214/195 269/215/195 263/203/195
f 263/203/196 269/215/196 270/216/196 264/205/196
f 264/208/197 270/217/197 271/218/197 265/209/197
f 265/209/198 271/218/198 272/219/198 266/211/198
f 266/211/199 272/219/199 267/213/199 261/200/199
f 267/213/200 273/220/200 274/221/200 268/214/200
f 268/214/201 274/221/201 275/222/201 269/215/201
f 269/215/202 275/222/202 276/223/202 270/216/202
f 270/217/203 276/224/203 277/225/203 271/218/203
f 271/218/204 277/225/204 278/226/204 272/219/204
f 272/219/205 278/226/205 273/220/205 267/213/205
f 273/227/206 279/228/206 280/229/206 274/230/206
f 274/230/207 280/229/207 281/231/207 275/232/207
f 275/232/208 281/231/208 282/233/208 276/234/208
f 276/235/209 282/236/209 283/237/209 277/238/209
f 277/238/210 283/237/210 284/239/210 278/240/210
f 278/240/211 284/239/211 279/228/211 273/227/211
f 279/228/212 285/241/212 286/242/212 280/229/212
f 280/229/213 286/242/213 287/243/213 281/231/213
f 281/231/214 287/243/214 288/244/214 282/233/214
f 282/236/215 288/245/215 289/246/215 283/237/215
f 283/237/216 289/246/216 290/247/216 284/239/216
f 284/239/217 290/247/217 285/241/217 279/228/217
f 285/241/218 255/199/218 256/202/218 286/242/218
f 286/242/219 256/202/219 257/204/219 287/243/219
f 287/243/220 257/204/220 258/206/220 288/244/220
f 288/245/221 258/207/221 259/210/221 289/246/221
f 289/246/222 259/210/222 260/212/222 290/247/222
f 290/247/223 260/212/223 255/199/223 285/241/223
f 291/199/224 292/202/224 298/201/224 297/200/224
f 292/202/225 293/204/225 299/203/225 298/201/225
f 293/204/226 294/206/226 300/205/226 299/203/226
f 294/207/227 295/210/227 301/209/227 300/208/227
f 295/210/228 296/212/228 302/211/228 301/209/228
f 296/212/229 291/199/229 297/200/229 302/211/229
f 297/200/230 298/201/230 304/214/230 303/213/230
f 298/201/225 299/203/225 305/215/225 304/214/225
f 299/203/231 300/205/231 306/216/231 305/215/231
f 300/208/232 301/209/232 307/218/232 306/217/232
f 301/209/228 302/211/228 308/219/228 307/218/228
f 302/211/233 297/200/233 303/213/233 308/219/233
f 303/213/234 304/214/234 310/221/234 309/220/234
f 304/214/235 305/215/235 311/222/235 310/221/235
f 305/215/236 306/216/236 312/223/236 311/222/236
f 306/217/237 307/218/237 313/225/237 312/224/237
f 307/218/238 308/219/238 314/226/238 313/225/238
f 308/219/239 303/213/239 309/220/239 314/226/239
f 309/227/240 310/230/240 316/229/240 315/228/240
f 310/230/241 311/232/241 317/231/241 316/229/241
f 311/232/242 312/234/242 318/233/242 317/231/242
f 312/235/243 313/238/243 319/237/243 318/236/243
f 313/238/244 314/240/244 320/239/244 319/237/244
f 314/240/245 309/227/245 315/228/245 320/239/245
f 315/228/231 316/229/231 322/242/231 321/241/231
f 316/229/225 317/231/225 323/243/225 322/242/225
f 317/231/230 318/233/230 324/244/230 323/243/230
f 318/236/233 319/237/233 325/246/233 324/245/233
f 319/237/228 320/239/228 326/247/228 325/246/228
f 320/239/232 315/228/232 321/241/232 326/247/232
f 321/241/246 322/242/246 292/202/246 291/199/246
f 322/242/225 323/243/225 293/204/225 292/202/225
f 323/243/247 324/244/247 294/206/247 293/204/247
f 324/245/248 325/246/248 295/210/248 294/207/248
f 325/246/228 326/247/228 296/212/228 295/210/228
f 326/247/249 321/241/249 291/199/249 296/212/249
o Overlay_Sling
v 1.397630 -0.687829 -0.141849
v 1.398641 -0.730345 -0.142006
v -0.994383 -0.687836 0.123071
v -0.935891 -0.730345 0.116575
v 1.382654 -0.687829 -0.277056
v 1.383675 -0.730345 -0.277124
v -1.009353 -0.687836 -0.012082
v -0.950857 -0.730345 -0.018544
v 0.250706 -0.687823 0.156338
v 0.250706 -0.730345 0.156338
v 0.234793 -0.687817 0.021347
v 0.234793 -0.730352 0.021347
v -0.359784 -0.730352 -0.015838
v -0.373775 -0.687823 -0.151038
v -0.359784 -0.687817 -0.015838
v -0.373775 -0.730345 -0.151038
v 0.803029 -0.687817 -0.185623
v 0.787165 -0.730346 -0.320628
v 0.803029 -0.730351 -0.185623
v 0.787165 -0.687823 -0.320628
v -0.650734 -0.730352 0.016393
v -0.666625 -0.687823 -0.118604
v -0.650734 -0.687817 0.016393
v -0.666625 -0.730346 -0.118604
v 1.093983 -0.687817 -0.217857
v 1.079986 -0.730345 -0.353057
v 1.093983 -0.730352 -0.217857
v 1.079986 -0.687823 -0.353057
v 0.523805 -0.730348 -0.045161
v 0.507253 -0.687821 -0.179994
v 0.523805 -0.687821 -0.045161
v 0.507253 -0.730348 -0.179994
v -0.042163 -0.687823 0.188776
v -0.056154 -0.730352 0.053576
v -0.042163 -0.730345 0.188776
v -0.056154 -0.687817 0.053576
v 1.251538 -0.687823 -0.125707
v 1.237541 -0.730352 -0.260907
v 1.251538 -0.730345 -0.125707
v 1.237541 -0.687817 -0.260907
v -0.788821 -0.730346 0.100293
v -0.804713 -0.687817 -0.034704
v -0.788821 -0.687823 0.100293
v -0.804713 -0.730352 -0.034704
v 1.457137 -0.687836 -0.148468
v 1.442167 -0.687836 -0.283620
v 1.397155 0.353343 -0.141823
v 1.382185 0.353343 -0.276977
v 1.442164 0.353343 -0.283620
v 1.457134 0.353343 -0.148467
v -0.949846 -0.687829 -0.018700
v -0.934870 -0.687829 0.116506
v -0.949371 0.353343 -0.018726
v -1.009350 0.353343 -0.012082
v -0.994380 0.353343 0.123071
v -0.934400 0.353343 0.116428
v -0.867705 0.608326 -0.027771
v -0.951024 0.629574 -0.018542
v -0.936054 0.629574 0.116610
v -0.852735 0.608326 0.107382
v -0.903516 0.650841 -0.023782
v -0.888551 0.650841 0.111326
v 1.327155 0.608326 -0.134070
v 1.312185 0.608326 -0.269223
v 1.395503 0.629574 -0.278452
v 1.410473 0.629574 -0.143299
v 1.374640 0.650841 -0.139353
v 1.359674 0.650841 -0.274460
v 1.397968 -0.687836 -0.142010
v 1.397968 -0.730333 -0.142010
v -0.993565 -0.687836 0.122884
v -0.935235 -0.730333 0.116423
v 1.383020 -0.687836 -0.276973
v 1.383020 -0.730333 -0.276973
v -1.008514 -0.687836 -0.012079
v -0.950184 -0.730333 -0.018539
v 0.250098 -0.687836 0.156320
v 0.250098 -0.730333 0.156320
v 0.235149 -0.687836 0.021358
v 0.235149 -0.730333 0.021358
v -0.359437 -0.730333 -0.015924
v -0.374386 -0.687836 -0.150887
v -0.359437 -0.687836 -0.015924
v -0.374386 -0.730333 -0.150887
v 0.802679 -0.687836 -0.185639
v 0.787730 -0.730333 -0.320602
v 0.802679 -0.730333 -0.185639
v 0.787730 -0.687836 -0.320602
v -0.651088 -0.730333 0.016380
v -0.666037 -0.687836 -0.118583
v -0.651088 -0.687836 0.016380
v -0.666037 -0.730333 -0.118583
v 1.094329 -0.687836 -0.217943
v 1.079380 -0.730333 -0.352906
v 1.094329 -0.730333 -0.217943
v 1.079380 -0.687836 -0.352906
v 0.523017 -0.730333 -0.045098
v 0.508068 -0.687836 -0.180060
v 0.523017 -0.687836 -0.045098
v 0.508068 -0.730333 -0.180060
v -0.041552 -0.687836 0.188624
v -0.056501 -0.730333 0.053662
v -0.041552 -0.730333 0.188624
v -0.056501 -0.687836 0.053662
v 1.252143 -0.687836 -0.125858
v 1.237194 -0.730333 -0.260821
v 1.252143 -0.730333 -0.125858
v 1.237194 -0.687836 -0.260821
v -0.789410 -0.730333 0.100271
v -0.804359 -0.687836 -0.034691
v -0.789410 -0.687836 0.100271
v -0.804359 -0.730333 -0.034691
v 1.456298 -0.687836 -0.148471
v 1.441350 -0.687836 -0.283434
v 1.397968 0.353343 -0.142010
v 1.383020 0.353343 -0.276973
v 1.441350 0.353343 -0.283434
v 1.456298 0.353343 -0.148471
v -0.950184 -0.687836 -0.018539
v -0.935235 -0.687836 0.116423
v -0.950184 0.353343 -0.018539
v -1.008514 0.353343 -0.012079
v -0.993565 0.353343 0.122884
v -0.935235 0.353343 0.116423
v -0.868522 0.608326 -0.027585
v -0.950184 0.629574 -0.018539
v -0.935235 0.629574 0.116423
v -0.853573 0.608326 0.107378
v -0.903520 0.650823 -0.023708
v -0.888571 0.650823 0.111255
v 1.327972 0.608326 -0.134257
v 1.313023 0.608326 -0.269220
v 1.394686 0.629574 -0.278265
v 1.409634 0.629574 -0.143302
v 1.374636 0.650823 -0.139426
v 1.359688 0.650823 -0.274388
vn 0.1096 -0.0010 0.9940
vn -0.1104 -0.0005 -0.9939
vn 0.1105 -0.0010 0.9939
vn 0.0001 1.0000 -0.0000
vn -0.0000 -1.0000 -0.0000
vn -0.0000 1.0000 -0.0000
vn -0.1101 -0.0000 -0.9939
vn 0.5937 -0.0000 0.8047
vn -0.5416 -0.0000 0.8407
vn 0.1101 -0.0000 0.9939
vn -0.4489 -0.0000 -0.8936
vn -0.5193 -0.0000 -0.8546
vn -0.5049 -0.0000 0.8632
vn -0.5943 -0.0000 -0.8042
vn 0.4494 -0.0000 0.8933
vn 0.5416 -0.0000 -0.8407
vn 0.1100 -0.0005 0.9939
vn 0.5049 -0.0000 -0.8632
vn -0.1098 -0.0005 -0.9940
vn -0.0001 1.0000 -0.0000
vn 0.5193 -0.0000 0.8546
vn -0.5820 -0.8106 0.0645
vn 0.5820 -0.8106 -0.0645
vn -0.1096 -0.0010 -0.9940
vn -0.9939 -0.0005 0.1101
vn 0.9939 -0.0000 -0.1101
vn -0.1099 -0.0000 -0.9939
vn 0.1103 -0.0000 0.9939
vn 0.1099 -0.0000 0.9939
vn -0.1105 -0.0010 -0.9939
vn 0.1102 -0.0005 0.9939
vn 0.9460 -0.3067 -0.1048
vn -0.1103 -0.0000 -0.9939
vn -0.9939 -0.0000 0.1101
vn 0.9939 -0.0005 -0.1101
vn 0.7582 0.6465 -0.0840
vn -0.9722 0.2078 0.1077
vn -0.4040 0.9136 0.0448
vn 0.5050 0.8613 -0.0559
vn -0.9580 -0.2662 0.1061
vn 0.9799 0.1676 -0.1085
vn -0.6607 0.7471 0.0732
vn -0.5938 -0.0000 -0.8046
vn 0.5411 -0.0000 -0.8409
vn 0.4490 -0.0000 0.8935
vn 0.5186 -0.0000 0.8550
vn 0.5040 -0.0000 -0.8637
vn 0.5938 -0.0000 0.8046
vn -0.4490 -0.0000 -0.8935
vn -0.5411 -0.0000 0.8409
vn -0.5040 -0.0000 0.8637
vn -0.5186 -0.0000 -0.8550
vn 0.5829 0.8099 -0.0646
vn -0.5829 0.8099 0.0646
vn -0.9460 0.3067 0.1048
vn -0.7653 -0.6380 0.0848
vn 0.9722 -0.2078 -0.1077
vn 0.4098 -0.9110 -0.0454
vn -0.5135 -0.8562 0.0569
vn 0.9581 0.2662 -0.1061
vn -0.9799 -0.1676 0.1085
vn 0.6670 -0.7414 -0.0739
vt 0.074470 0.763487
vt 0.086213 0.764263
vt 0.074470 0.764263
vt 0.074470 0.812384
vt 0.086213 0.812384
vt 0.086213 0.813937
vt 0.074470 0.813937
vt 0.086213 0.739427
vt 0.074470 0.739427
vt 0.062726 0.812384
vt 0.062726 0.813937
vt 0.097957 0.812384
vt 0.097957 0.813937
vt 0.086213 0.798414
vt 0.097957 0.798414
vt 0.097957 0.801518
vt 0.086213 0.801518
vt 0.062726 0.798414
vt 0.074470 0.798414
vt 0.074470 0.801518
vt 0.062726 0.801518
vt 0.074470 0.748740
vt 0.086213 0.748740
vt 0.086213 0.751845
vt 0.074470 0.751845
vt 0.074470 0.792205
vt 0.086213 0.792205
vt 0.086213 0.795309
vt 0.074470 0.795309
vt 0.062726 0.792205
vt 0.062726 0.795309
vt 0.097957 0.792205
vt 0.097957 0.795309
vt 0.074470 0.754950
vt 0.086213 0.754950
vt 0.086213 0.758054
vt 0.074470 0.758054
vt 0.074470 0.742531
vt 0.086213 0.742531
vt 0.086213 0.745636
vt 0.074470 0.745636
vt 0.086213 0.804623
vt 0.097957 0.804623
vt 0.097957 0.807728
vt 0.086213 0.807728
vt 0.062726 0.804623
vt 0.074470 0.804623
vt 0.074470 0.807728
vt 0.062726 0.807728
vt 0.086213 0.790652
vt 0.097957 0.790652
vt 0.062726 0.790652
vt 0.074470 0.790652
vt 0.086213 0.761159
vt 0.074470 0.761159
vt 0.074470 0.740979
vt 0.086213 0.740979
vt 0.097957 0.810832
vt 0.086213 0.810832
vt 0.074470 0.810832
vt 0.062726 0.810832
vt 0.086213 0.789100
vt 0.074470 0.789876
vt 0.062726 0.789876
vt 0.097957 0.789100
vt 0.086213 0.762711
vt 0.074470 0.762711
vt 0.074470 0.789100
vt 0.080341 0.739427
vt 0.062726 0.789488
vt 0.074470 0.789488
vt 0.074470 0.763875
vt 0.062726 0.789100
vt 0.074470 0.826355
vt 0.080341 0.813937
vt 0.086213 0.838773
s 0
usemtl Material.011
f 378/248/250 329/250/250 330/249/250
f 366/251/251 331/254/251 332/253/251 364/252/251
f 328/255/252 371/255/252 327/256/252
f 363/257/253 327/258/253 331/254/253 366/251/253
f 364/252/254 332/253/254 328/260/254 365/259/254
f 360/261/254 338/264/254 336/263/254 361/262/254
f 359/265/255 335/268/255 337/267/255 362/266/255
f 362/266/256 337/267/256 338/264/256 360/261/256
f 357/269/257 335/272/257 336/271/257 355/270/257
f 348/273/256 340/276/256 342/275/256 350/274/256
f 349/277/255 341/278/255 340/276/255 348/273/255
f 350/274/254 342/275/254 339/280/254 347/279/254
f 359/281/258 341/284/258 339/283/258 361/282/258
f 351/285/259 343/288/259 345/287/259 353/286/259
f 358/289/254 344/292/254 345/291/254 355/290/254
f 357/293/255 343/296/255 346/295/255 356/294/255
f 356/294/260 346/295/260 344/292/260 358/289/260
f 370/297/254 350/274/254 347/279/254 367/298/254
f 369/299/255 349/277/255 348/273/255 368/300/255
f 368/300/261 348/273/261 350/274/261 370/297/261
f 341/284/259 349/302/259 347/301/259 339/283/259
f 363/303/262 351/285/262 353/286/262 365/304/262
f 344/292/254 352/306/254 353/305/254 345/291/254
f 343/296/255 351/308/255 354/307/255 346/295/255
f 346/295/256 354/307/256 352/306/256 344/292/256
f 337/267/263 356/294/263 358/289/263 338/264/263
f 335/268/255 357/293/255 356/294/255 337/267/255
f 338/264/254 358/289/254 355/290/254 336/263/254
f 343/288/264 357/269/264 355/270/264 345/287/264
f 335/272/259 359/281/259 361/282/259 336/271/259
f 340/276/265 362/266/265 360/261/265 342/275/265
f 341/278/255 359/265/255 362/266/255 340/276/255
f 342/275/254 360/261/254 361/262/254 339/280/254
f 327/256/266 363/303/266 365/304/266 328/255/266
f 352/306/254 364/252/254 365/259/254 353/305/254
f 351/308/255 363/257/255 366/251/255 354/307/255
f 354/307/267 366/251/267 364/252/267 352/306/267
f 334/309/268 377/310/268 368/300/268 370/297/268
f 378/311/269 369/299/269 368/300/269 377/310/269
f 334/309/254 370/297/254 367/298/254 330/312/254
f 349/302/270 369/314/270 367/313/270 347/301/270
f 329/250/271 333/315/271 334/309/271 330/312/271
f 332/253/272 372/253/272 371/260/272 328/260/272
f 331/254/273 372/253/273 332/253/273
f 327/258/274 373/258/274 374/254/274 331/254/274
f 376/255/259 392/255/259 393/316/259 389/256/259 373/256/259
f 372/253/275 375/253/275 376/260/275 371/260/275
f 331/254/276 374/254/276 375/253/276 372/253/276
f 371/255/277 376/255/277 373/256/277 327/256/277
f 378/248/278 382/248/278 381/250/278 329/250/278
f 333/315/279 377/310/279 334/309/279
f 369/314/280 378/248/280 330/249/280 367/313/280
f 379/310/281 383/310/281 386/311/281 382/311/281
f 333/315/282 380/315/282 379/310/282 377/310/282
f 329/250/283 381/250/283 380/315/283 333/315/283
f 377/310/284 379/310/284 382/311/284 378/311/284
f 388/317/285 386/311/285 383/310/285 387/318/285
f 381/250/286 385/250/286 384/315/286 380/315/286
f 382/248/259 386/248/259 388/319/259 385/250/259 381/250/259
f 380/315/256 384/315/256 387/318/256 383/310/256 379/310/256
f 385/320/287 388/317/287 387/318/287 384/315/287
f 393/321/288 392/323/288 391/253/288 394/322/288
f 373/258/289 389/258/289 390/254/289 374/254/289
f 374/254/256 390/254/256 394/322/256 391/253/256 375/253/256
f 375/253/290 391/253/290 392/260/290 376/260/290
f 389/258/291 393/321/291 394/322/291 390/254/291
f 446/248/256 398/249/256 397/250/256
f 434/251/259 432/252/259 400/253/259 399/254/259
f 396/255/256 395/256/256 439/255/256
f 431/257/254 434/251/254 399/254/254 395/258/254
f 432/252/255 433/259/255 396/260/255 400/253/255
f 428/261/255 429/262/255 404/263/255 406/264/255
f 427/265/254 430/266/254 405/267/254 403/268/254
f 430/266/259 428/261/259 406/264/259 405/267/259
f 425/269/292 423/270/292 404/271/292 403/272/292
f 416/273/259 418/274/259 410/275/259 408/276/259
f 417/277/254 416/273/254 408/276/254 409/278/254
f 418/274/255 415/279/255 407/280/255 410/275/255
f 427/281/293 429/282/293 407/283/293 409/284/293
f 419/285/256 421/286/256 413/287/256 411/288/256
f 426/289/255 423/290/255 413/291/255 412/292/255
f 425/293/254 424/294/254 414/295/254 411/296/254
f 424/294/294 426/289/294 412/292/294 414/295/294
f 438/297/255 435/298/255 415/279/255 418/274/255
f 437/299/254 436/300/254 416/273/254 417/277/254
f 436/300/295 438/297/295 418/274/295 416/273/295
f 409/284/256 407/283/256 415/301/256 417/302/256
f 431/303/296 433/304/296 421/286/296 419/285/296
f 412/292/255 413/291/255 421/305/255 420/306/255
f 411/296/254 414/295/254 422/307/254 419/308/254
f 414/295/259 412/292/259 420/306/259 422/307/259
f 405/267/297 406/264/297 426/289/297 424/294/297
f 403/268/254 405/267/254 424/294/254 425/293/254
f 406/264/255 404/263/255 423/290/255 426/289/255
f 411/288/298 413/287/298 423/270/298 425/269/298
f 403/272/256 404/271/256 429/282/256 427/281/256
f 408/276/299 410/275/299 428/261/299 430/266/299
f 409/278/254 408/276/254 430/266/254 427/265/254
f 410/275/255 407/280/255 429/262/255 428/261/255
f 395/256/256 396/255/256 433/304/256 431/303/256
f 420/306/255 421/305/255 433/259/255 432/252/255
f 419/308/254 422/307/254 434/251/254 431/257/254
f 422/307/300 420/306/300 432/252/300 434/251/300
f 402/309/259 438/297/259 436/300/259 445/310/259
f 446/311/254 445/310/254 436/300/254 437/299/254
f 402/309/255 398/312/255 435/298/255 438/297/255
f 417/302/301 415/301/301 435/313/301 437/314/301
f 397/250/302 398/312/302 402/309/302 401/315/302
f 400/253/303 396/260/303 439/260/303 440/253/303
f 399/254/259 400/253/259 440/253/259
f 395/258/275 399/254/275 442/254/275 441/258/275
f 444/255/256 441/256/256 457/256/256 461/316/256 460/255/256
f 440/253/283 439/260/283 444/260/283 443/253/283
f 399/254/259 440/253/259 443/253/259 442/254/259
f 439/255/256 395/256/256 441/256/256 444/255/256
f 446/248/256 397/250/256 449/250/256 450/248/256
f 401/315/259 402/309/259 445/310/259
f 437/314/256 435/313/256 398/249/256 446/248/256
f 447/310/304 450/311/304 454/311/304 451/310/304
f 401/315/259 445/310/259 447/310/259 448/315/259
f 397/250/275 401/315/275 448/315/275 449/250/275
f 445/310/283 446/311/283 450/311/283 447/310/283
f 456/317/305 455/318/305 451/310/305 454/311/305
f 449/250/306 448/315/306 452/315/306 453/250/306
f 450/248/256 449/250/256 453/250/256 456/319/256 454/248/256
f 448/315/259 447/310/259 451/310/259 455/318/259 452/315/259
f 453/320/307 452/315/307 455/318/307 456/317/307
f 461/321/308 462/322/308 459/253/308 460/323/308
f 441/258/309 442/254/309 458/254/309 457/258/309
f 442/254/259 443/253/259 459/253/259 462/322/259 458/254/259
f 443/253/310 444/260/310 460/260/310 459/253/310
f 457/258/311 458/254/311 462/322/311 461/321/311
