# Blender 5.1.2
# www.blender.org
mtllib Alya bag.mtl
o Bag
v 1.107029 -0.568856 0.485138
v 1.256259 0.719423 0.646590
v -0.570066 -0.568856 0.485138
v -0.731519 0.719423 0.646590
v 1.107029 -0.568856 -0.246909
v 1.256259 0.719423 -0.408361
v -0.570066 -0.568856 -0.246909
v -0.731519 0.719423 -0.408361
v -0.731519 -0.637720 0.646590
v 1.268481 -0.637720 0.646590
v -0.731519 -0.637720 -0.408361
v 1.268481 -0.637720 -0.408361
v -0.672076 -0.637720 0.587147
v 1.209038 -0.637720 0.587147
v -0.672076 -0.637720 -0.348918
v 1.209038 -0.637720 -0.348918
v -0.531519 0.519423 -0.508361
v -0.531519 -0.437720 -0.508361
v 1.068481 -0.437720 -0.508361
v 1.068481 0.519423 -0.508361
v 1.368481 -0.437720 0.491204
v 1.368481 0.519423 0.491204
v 1.368481 0.519423 -0.252975
v 1.368481 -0.437720 -0.252975
v -0.831519 -0.437720 0.465401
v -0.831519 -0.437720 -0.227172
v -0.831519 0.519423 -0.227172
v -0.531519 -0.437720 0.735614
v 1.068481 -0.437720 0.735614
v 1.068481 0.762280 0.435614
v -0.531519 0.762280 0.435614
v -0.531519 0.762280 -0.208361
v 1.068481 0.762280 -0.208361
v 1.268481 0.040851 0.646590
v -0.731519 0.040851 0.646590
v 1.368481 0.040851 0.491204
v -0.831519 0.040851 0.465401
v 1.068481 0.040851 0.735614
v -0.531519 0.040851 0.735614
v 1.368481 0.519423 0.225614
v -0.831519 0.519423 0.225614
v 1.278481 0.040851 0.672035
v 1.256259 0.719423 0.646590
v -0.731519 0.719423 0.646590
v 1.368481 0.519423 0.491204
v 1.068481 0.040851 0.761060
v 1.068481 0.519423 0.735614
v -0.531519 0.519423 0.735614
v 0.668481 0.762280 0.113627
v 0.668481 0.762280 0.435614
v -0.741519 0.040851 0.672036
v -0.531519 0.040851 0.761060
v -0.706519 0.719423 -0.408361
v -0.853318 0.522126 0.468140
v -0.853318 0.043555 0.468140
v -0.853318 0.522126 0.225614
v 1.400703 0.040851 0.491204
v 1.400703 0.519423 0.491204
v 1.400703 0.519423 0.225614
v 1.400703 0.519423 0.491204
v 0.268481 0.762280 0.435614
v -0.531519 0.762280 0.113627
v 0.268481 0.762280 -0.208361
v 1.068481 0.762280 0.113627
v 0.268481 0.762280 0.113627
v -0.131519 0.762280 0.435614
v -0.131519 0.762280 0.113627
v 1.068481 0.962280 0.435614
v 0.668481 0.962280 0.435614
v -0.131519 0.962280 0.435614
v -0.531519 0.962280 0.435614
v 0.868481 0.762280 0.113627
v 0.868481 1.162280 0.435614
v -0.331519 1.162280 0.435614
v -0.331519 0.762280 0.113627
v -0.131519 0.762280 0.274621
v -0.531519 0.762280 0.274621
v 1.068481 0.762280 0.274620
v 0.668481 0.762280 0.274620
v 0.343245 0.027280 0.779822
v 0.343245 0.108399 0.773451
v 0.193718 0.027280 0.779822
v 0.193718 0.108399 0.773451
v 0.343245 0.027280 0.725896
v 0.343245 0.108399 0.725896
v 0.193718 0.027280 0.725896
v 0.193718 0.108399 0.725896
v 0.268481 -0.004019 0.779822
v 0.268481 -0.004019 0.725896
v 0.268481 0.117357 0.773451
v 0.268481 0.117357 0.725896
vn -0.4067 -0.0000 0.9136
vn -0.0000 -1.0000 -0.0000
vn -0.0000 0.4472 -0.8944
vn 0.8409 -0.0000 0.5412
vn -0.0000 -0.8288 -0.5595
vn 0.5595 -0.8288 -0.0000
vn -0.0000 -0.8288 0.5595
vn -0.5595 -0.8288 -0.0000
vn -0.0000 -0.0000 -1.0000
vn -0.4472 -0.0000 -0.8944
vn 0.4584 0.0024 -0.8888
vn -0.0000 -0.4472 -0.8944
vn -0.0000 -0.9537 -0.3009
vn 0.8944 -0.4472 -0.0000
vn 0.8258 0.0044 -0.5639
vn -0.8755 -0.0000 -0.4832
vn -0.8944 -0.4472 -0.0000
vn -0.8944 0.4472 -0.0000
vn -0.0000 -0.4067 0.9136
vn 0.2225 0.9749 -0.0000
vn -0.2095 0.9778 -0.0000
vn -0.0000 0.9778 -0.2095
vn 0.4067 -0.0000 0.9136
vn -0.0000 -0.0000 1.0000
vn -0.0000 1.0000 -0.0000
vn -0.8755 -0.0000 0.4832
vn 0.8721 0.4893 -0.0000
vn -0.8574 0.0187 0.5143
vn -1.0000 -0.0000 -0.0000
vn -0.1112 -0.4472 -0.8875
vn -0.0000 0.0531 0.9986
vn 0.3879 0.0479 0.9205
vn -0.0000 0.4067 0.9136
vn -0.0000 -0.4852 -0.8744
vn -0.3798 0.0439 0.9240
vn -0.0612 -0.9978 0.0267
vn -0.1168 -0.9417 -0.3155
vn -0.8509 0.5253 -0.0000
vn 1.0000 -0.0000 -0.0000
vn 0.7914 0.0286 0.6106
vn 0.8107 0.5855 -0.0000
vn -0.0000 0.9800 0.1991
vn 0.5312 0.5312 -0.6600
vn -0.5312 0.5312 -0.6600
vn -0.0000 0.0628 0.9980
vn 0.3862 -0.9224 -0.0000
vn 0.1190 0.9929 -0.0000
vn -0.3862 -0.9224 -0.0000
vn -0.1190 0.9929 -0.0000
vt 0.300786 0.194136
vt 0.300786 0.058955
vt 0.340629 0.098798
vt 0.340629 0.194136
vt 0.046976 0.558628
vt 0.059557 0.586892
vt 0.055961 0.588305
vt 0.043380 0.558628
vt 0.699214 0.760601
vt 0.303221 0.760601
vt 0.340629 0.720758
vt 0.659371 0.720758
vt 0.699214 0.194136
vt 0.699214 0.058955
vt 0.719136 0.098798
vt 0.719136 0.194136
vt 0.089254 0.678488
vt 0.196596 0.678488
vt 0.196596 0.924404
vt 0.089254 0.924404
vt 0.074296 0.663530
vt 0.074296 0.939362
vt 0.065580 0.948078
vt 0.065580 0.654814
vt 0.211554 0.663530
vt 0.220270 0.654814
vt 0.211554 0.939362
vt 0.220270 0.948078
vt 0.659371 0.530082
vt 0.340629 0.530082
vt 0.699214 0.490239
vt 0.300786 0.490239
vt 0.234934 0.684140
vt 0.234934 0.918752
vt 0.119048 0.601023
vt 0.208641 0.585164
vt 0.119048 0.605577
vt 0.197486 0.962742
vt 0.088365 0.962742
vt 0.280864 0.720758
vt 0.280864 0.530082
vt 0.719136 0.530082
vt 0.719136 0.720758
vt 0.092148 0.640150
vt 0.193702 0.640150
vt 0.982557 0.910325
vt 0.938504 0.934638
vt 0.828417 0.934638
vt 0.052526 0.918752
vt 0.052526 0.684140
vt 0.726065 0.427033
vt 0.982557 0.427033
vt 0.933930 0.472688
vt 0.855645 0.472688
vt 0.816502 0.472688
vt 0.777360 0.472688
vt 0.726065 0.910325
vt 0.777360 0.861699
vt 0.816502 0.861699
vt 0.855645 0.861699
vt 0.933930 0.861699
vt 0.659371 0.769139
vt 0.500000 0.769139
vt 0.340629 0.769139
vt 0.659371 0.194136
vt 0.659371 0.098798
vt 0.875000 0.500000
vt 0.280864 0.194136
vt 0.280864 0.098798
vt 0.944777 0.399748
vt 0.828417 0.399748
vt 0.298794 0.194136
vt 0.300786 0.329318
vt 0.276522 0.290013
vt 0.276522 0.194675
vt 0.955140 0.068154
vt 0.955140 0.171332
vt 0.903443 0.274510
vt 0.805824 0.274510
vt 0.805824 0.068154
vt 0.119048 0.290122
vt 0.085162 0.290122
vt 0.084775 0.287041
vt 0.119048 0.287041
vt 0.855645 0.667193
vt 0.777360 0.667193
vt 0.777360 0.569941
vt 0.816502 0.569941
vt 0.855645 0.569941
vt 0.659371 0.289475
vt 0.340629 0.289475
vt 0.701206 0.194136
vt 0.696779 0.329318
vt 0.081516 0.601023
vt 0.081516 0.605577
vt 0.059557 0.304254
vt 0.046976 0.332518
vt 0.043380 0.332518
vt 0.055961 0.302841
vt 0.875000 0.750000
vt 0.955731 0.171915
vt 0.955731 0.275093
vt 0.903443 0.275093
vt 0.208641 0.304254
vt 0.828417 0.939938
vt 0.769452 0.939938
vt 0.046147 0.161228
vt 0.097411 0.253602
vt 0.046147 0.253602
vt 0.725555 0.194136
vt 0.725555 0.289475
vt 0.763844 0.391914
vt 0.828417 0.391914
vt 0.189788 0.068853
vt 0.189788 0.253602
vt 0.046147 0.068853
vt 0.933930 0.667193
vt 0.855645 0.521314
vt 0.855645 0.813072
vt 0.855645 0.764446
vt 0.816502 0.764446
vt 0.777360 0.764446
vt 0.659371 0.337855
vt 0.579686 0.337855
vt 0.500000 0.337855
vt 0.420314 0.337855
vt 0.340629 0.337855
vt 0.420314 0.377698
vt 0.380471 0.417541
vt 0.340629 0.377698
vt 0.659371 0.377698
vt 0.619529 0.417541
vt 0.579686 0.377698
vt 0.579686 0.769139
vt 0.619529 0.769139
vt 0.619529 0.848825
vt 0.579686 0.808982
vt 0.659371 0.808982
vt 0.340629 0.808982
vt 0.380471 0.769139
vt 0.380471 0.848825
vt 0.420314 0.769139
vt 0.420314 0.808982
vt 0.531424 0.894081
vt 0.531424 0.928177
vt 0.500000 0.931942
vt 0.468576 0.928177
vt 0.468576 0.894081
vt 0.500000 0.880926
s 0
usemtl Material
f 35/1/1 9/2/1 28/3/1 39/4/1
f 38/5/2 34/6/2 42/7/2 46/8/2
f 8/9/3 6/10/3 20/11/3 17/12/3
f 34/13/4 10/14/4 21/15/4 36/16/4
f 3/17/2 7/18/2 5/19/2 1/20/2
f 13/21/2 14/22/2 10/23/2 9/24/2
f 15/25/2 13/21/2 9/24/2 11/26/2
f 16/27/2 15/25/2 11/26/2 12/28/2
f 14/22/2 16/27/2 12/28/2 10/23/2
f 3/17/5 1/20/5 14/22/5 13/21/5
f 7/18/6 3/17/6 13/21/6 15/25/6
f 5/19/7 7/18/7 15/25/7 16/27/7
f 1/20/8 5/19/8 16/27/8 14/22/8
f 18/29/9 17/12/9 20/11/9 19/30/9
f 11/31/10 8/9/10 17/12/10 18/29/10
f 6/10/11 12/32/11 19/30/11 20/11/11
f 12/28/12 11/26/12 18/33/12 19/34/12
f 40/35/13 6/36/13 59/37/13
f 10/23/14 12/28/14 24/38/14 21/39/14
f 12/32/15 6/10/15 23/40/15 24/41/15
f 8/9/16 11/31/16 26/42/16 27/43/16
f 11/26/17 9/24/17 25/44/17 26/45/17
f 8/46/18 27/47/18 41/48/18
f 9/24/19 10/23/19 29/49/19 28/50/19
f 2/51/20 6/52/20 33/53/20 64/54/20 78/55/20 30/56/20
f 8/46/21 4/57/21 31/58/21 77/59/21 62/60/21 32/61/21
f 6/10/22 8/9/22 32/62/22 63/63/22 33/64/22
f 10/14/23 34/13/23 38/65/23 29/66/23
f 29/66/24 38/65/24 39/4/24 28/3/24
f 31/67/25 4/67/25 44/67/25
f 9/2/26 35/1/26 37/68/26 25/69/26
f 23/70/27 6/52/27 40/71/27
f 51/72/28 44/73/28 54/74/28 55/75/28
f 25/76/29 37/77/29 41/78/29 27/79/29 26/80/29
f 41/81/30 37/82/30 55/83/30 56/84/30
f 65/85/25 61/86/25 50/87/25 79/88/25 49/89/25
f 46/65/31 47/90/31 48/91/31 52/4/31
f 42/92/32 43/93/32 47/90/32 46/65/32
f 43/93/33 44/73/33 48/91/33 47/90/33
f 36/94/34 40/35/34 59/37/34 57/95/34
f 44/73/35 51/72/35 52/4/35 48/91/35
f 35/96/2 39/97/2 52/98/2 51/99/2
f 39/97/2 38/5/2 46/8/2 52/98/2
f 2/100/25 30/100/25 43/100/25
f 51/99/36 55/83/36 37/82/36 35/96/36
f 55/101/29 54/102/29 56/103/29
f 8/104/37 41/81/37 56/84/37
f 8/46/38 56/105/38 54/106/38 44/57/38 4/57/38
f 57/107/39 59/108/39 58/109/39
f 57/110/40 58/111/40 60/111/40 43/93/40 42/92/40
f 6/52/41 2/51/41 58/112/41 59/113/41
f 36/94/2 57/95/2 42/7/2 34/6/2
f 24/114/39 23/115/39 40/108/39 36/107/39 21/116/39
f 63/117/25 65/85/25 49/89/25 72/118/25 64/54/25 33/53/25
f 32/61/25 62/60/25 75/119/25 67/120/25 65/85/25 63/117/25
f 67/120/25 76/121/25 66/122/25 61/86/25 65/85/25
f 30/123/42 50/124/42 61/125/42 66/126/42 31/127/42 44/73/42 43/93/42
f 31/127/24 66/126/24 70/128/24 74/129/24 71/130/24
f 50/124/24 30/123/24 68/131/24 73/132/24 69/133/24
f 67/120/25 75/119/25 76/121/25
f 62/60/25 77/59/25 75/119/25
f 76/134/43 75/135/43 74/136/43 70/137/43
f 75/135/44 77/62/44 71/138/44 74/136/44
f 71/58/29 77/59/29 31/58/29
f 66/122/39 76/121/39 70/122/39
f 64/54/25 72/118/25 78/55/25
f 49/89/25 79/88/25 72/118/25
f 68/139/43 78/64/43 72/140/43 73/141/43
f 73/141/44 72/140/44 79/142/44 69/143/44
f 78/55/39 68/56/39 30/56/39
f 79/88/29 50/87/29 69/87/29
f 80/144/45 81/145/45 90/146/45 83/147/45 82/148/45 88/149/45
f 82/148/29 83/147/29 87/147/29 86/148/29
f 86/148/9 87/147/9 91/146/9 85/145/9 84/144/9 89/149/9
f 84/144/39 85/145/39 81/145/39 80/144/39
f 88/149/46 89/149/46 84/144/46 80/144/46
f 91/146/47 90/146/47 81/145/47 85/145/47
f 82/148/48 86/148/48 89/149/48 88/149/48
f 87/147/49 83/147/49 90/146/49 91/146/49
l 22 45
l 53 8
o Oring1
v 1.238715 0.473891 -0.193809
v 1.262716 0.467421 -0.196468
v 1.280286 0.485099 -0.198414
v 1.273855 0.509247 -0.197701
v 1.249854 0.515717 -0.195043
v 1.232284 0.498039 -0.193097
v 1.270723 0.518086 -0.306270
v 1.291523 0.507196 -0.297682
v 1.302692 0.516034 -0.277136
v 1.293060 0.535763 -0.265178
v 1.272259 0.546653 -0.273765
v 1.261091 0.537814 -0.294311
v 1.358574 0.606474 -0.316000
v 1.370589 0.586745 -0.306440
v 1.364188 0.577906 -0.283947
v 1.345771 0.588796 -0.271016
v 1.333755 0.608525 -0.280577
v 1.340157 0.617364 -0.303069
v 1.398604 0.631223 -0.211519
v 1.405035 0.607074 -0.212231
v 1.387465 0.589397 -0.210285
v 1.363463 0.595867 -0.207627
v 1.357032 0.620015 -0.206914
v 1.374603 0.637693 -0.208860
v 1.382409 0.606474 -0.100810
v 1.392041 0.586745 -0.112768
v 1.380872 0.577906 -0.133314
v 1.360072 0.588796 -0.141902
v 1.350440 0.608525 -0.129943
v 1.361609 0.617364 -0.109397
v 1.294558 0.518086 -0.091079
v 1.312975 0.507196 -0.104011
v 1.319377 0.516034 -0.126503
v 1.307361 0.535763 -0.136063
v 1.288944 0.546653 -0.123132
v 1.282543 0.537814 -0.100640
vn -0.2793 -0.8640 -0.4190
vn 0.7028 -0.7071 -0.0778
vn 0.9079 0.2315 0.3494
vn 0.2793 0.8640 0.4190
vn -0.7028 0.7071 0.0778
vn -0.9079 -0.2315 -0.3494
vn 0.2158 -0.3162 -0.9238
vn 0.4128 -0.3162 0.8542
vn -0.2158 0.3162 0.9238
vn -0.4128 0.3162 -0.8542
vn 0.8734 0.2880 -0.3927
vn 0.6898 -0.7169 -0.1013
vn -0.3009 -0.9289 0.2158
vn -0.8970 -0.3144 0.3107
vn -0.6898 0.7169 0.1013
vn 0.2622 0.9153 -0.3059
vn 0.9382 0.2880 0.1921
vn 0.6952 -0.7169 -0.0521
vn -0.3408 -0.9289 -0.1447
vn -0.9432 -0.3144 -0.1069
vn -0.6952 0.7169 0.0521
vn 0.3227 0.9153 0.2411
vn -0.1809 -0.8640 0.4700
vn 0.8095 0.2315 -0.5396
vn 0.1809 0.8640 -0.4700
vn -0.8095 -0.2315 0.5396
vt 0.500000 0.982706
vt 0.500767 0.982706
vt 0.500767 0.983473
vt 0.500000 0.983473
vt 0.500767 0.984240
vt 0.500000 0.984240
vt 0.500767 0.985008
vt 0.500000 0.985008
vt 0.500000 0.980403
vt 0.500767 0.980403
vt 0.500767 0.981171
vt 0.500000 0.981171
vt 0.500767 0.981938
vt 0.500000 0.981938
vt 0.501535 0.982706
vt 0.501535 0.983473
vt 0.501535 0.984240
vt 0.501535 0.985008
vt 0.501535 0.980403
vt 0.501535 0.981171
vt 0.501535 0.981938
vt 0.502302 0.982706
vt 0.502302 0.983473
vt 0.502302 0.984240
vt 0.502302 0.985008
vt 0.502302 0.980403
vt 0.502302 0.981171
vt 0.502302 0.981938
vt 0.497698 0.982706
vt 0.498465 0.982706
vt 0.498465 0.983473
vt 0.497698 0.983473
vt 0.498465 0.984240
vt 0.497698 0.984240
vt 0.498465 0.985008
vt 0.497698 0.985008
vt 0.497698 0.980403
vt 0.498465 0.980403
vt 0.498465 0.981171
vt 0.497698 0.981171
vt 0.498465 0.981938
vt 0.497698 0.981938
vt 0.499233 0.982706
vt 0.499233 0.983473
vt 0.499233 0.984240
vt 0.499233 0.985008
vt 0.499233 0.980403
vt 0.499233 0.981171
vt 0.499233 0.981938
s 0
usemtl Material.002
f 92/150/50 98/151/50 99/152/50 93/153/50
f 93/153/51 99/152/51 100/154/51 94/155/51
f 94/155/52 100/154/52 101/156/52 95/157/52
f 95/158/53 101/159/53 102/160/53 96/161/53
f 96/161/54 102/160/54 103/162/54 97/163/54
f 97/163/55 103/162/55 98/151/55 92/150/55
f 98/151/56 104/164/56 105/165/56 99/152/56
f 99/152/51 105/165/51 106/166/51 100/154/51
f 100/154/57 106/166/57 107/167/57 101/156/57
f 101/159/58 107/168/58 108/169/58 102/160/58
f 102/160/54 108/169/54 109/170/54 103/162/54
f 103/162/59 109/170/59 104/164/59 98/151/59
f 104/164/60 110/171/60 111/172/60 105/165/60
f 105/165/61 111/172/61 112/173/61 106/166/61
f 106/166/62 112/173/62 113/174/62 107/167/62
f 107/168/63 113/175/63 114/176/63 108/169/63
f 108/169/64 114/176/64 115/177/64 109/170/64
f 109/170/65 115/177/65 110/171/65 104/164/65
f 110/178/66 116/179/66 117/180/66 111/181/66
f 111/181/67 117/180/67 118/182/67 112/183/67
f 112/183/68 118/182/68 119/184/68 113/185/68
f 113/186/69 119/187/69 120/188/69 114/189/69
f 114/189/70 120/188/70 121/190/70 115/191/70
f 115/191/71 121/190/71 116/179/71 110/178/71
f 116/179/57 122/192/57 123/193/57 117/180/57
f 117/180/51 123/193/51 124/194/51 118/182/51
f 118/182/56 124/194/56 125/195/56 119/184/56
f 119/187/59 125/196/59 126/197/59 120/188/59
f 120/188/54 126/197/54 127/198/54 121/190/54
f 121/190/58 127/198/58 122/192/58 116/179/58
f 122/192/72 92/150/72 93/153/72 123/193/72
f 123/193/51 93/153/51 94/155/51 124/194/51
f 124/194/73 94/155/73 95/157/73 125/195/73
f 125/196/74 95/158/74 96/161/74 126/197/74
f 126/197/54 96/161/54 97/163/54 127/198/54
f 127/198/75 97/163/75 92/150/75 122/192/75
o Oring2
v -0.772210 0.473891 0.028928
v -0.765779 0.498039 0.028215
v -0.783350 0.515717 0.030162
v -0.807351 0.509247 0.032820
v -0.813782 0.485099 0.033532
v -0.796212 0.467421 0.031586
v -0.828054 0.518086 -0.073802
v -0.816038 0.537814 -0.064241
v -0.822440 0.546653 -0.041749
v -0.840857 0.535763 -0.028818
v -0.852872 0.516034 -0.038378
v -0.846471 0.507196 -0.060871
v -0.915905 0.606474 -0.064071
v -0.895104 0.617364 -0.055484
v -0.883936 0.608525 -0.034938
v -0.893567 0.588796 -0.022979
v -0.914368 0.577906 -0.031567
v -0.925537 0.586745 -0.052113
v -0.928585 0.634758 0.046248
v -0.904584 0.641229 0.043590
v -0.887014 0.623551 0.041644
v -0.893445 0.599403 0.042356
v -0.917446 0.592932 0.045015
v -0.935017 0.610610 0.046961
v -0.892070 0.606474 0.151119
v -0.873652 0.617364 0.138188
v -0.867251 0.608525 0.115695
v -0.879266 0.588796 0.106135
v -0.897683 0.577906 0.119066
v -0.904085 0.586745 0.141558
v -0.804218 0.518086 0.141388
v -0.794587 0.537814 0.129430
v -0.805755 0.546653 0.108884
v -0.826556 0.535763 0.100296
v -0.836188 0.516034 0.112255
v -0.825019 0.507196 0.132801
vn 0.8095 -0.2315 -0.5396
vn 0.7028 0.7071 -0.0778
vn -0.1809 0.8640 0.4700
vn -0.8095 0.2315 0.5396
vn -0.7028 -0.7071 0.0778
vn 0.1809 -0.8640 -0.4700
vn 0.2158 0.3162 -0.9238
vn 0.4128 0.3162 0.8542
vn -0.2158 -0.3162 0.9238
vn -0.4128 -0.3162 -0.8542
vn -0.3186 0.9113 -0.2607
vn 0.7098 0.6967 -0.1035
vn 0.9432 -0.3228 0.0780
vn 0.3357 -0.9257 0.1742
vn -0.7098 -0.6967 0.1035
vn -0.9400 0.2942 -0.1728
vn -0.2539 0.9113 0.3241
vn 0.7153 0.6967 -0.0543
vn 0.9033 -0.3228 -0.2825
vn 0.2894 -0.9257 -0.2434
vn -0.7153 -0.6967 0.0543
vn -0.8794 0.2942 0.3743
vn 0.9079 -0.2315 0.3494
vn -0.2793 0.8640 -0.4190
vn -0.9079 0.2315 -0.3494
vn 0.2793 -0.8640 0.4190
vt 0.500000 0.958936
vt 0.509361 0.958936
vt 0.509361 0.968297
vt 0.500000 0.968297
vt 0.509361 0.977658
vt 0.500000 0.977658
vt 0.509361 0.987019
vt 0.500000 0.987019
vt 0.500000 0.930853
vt 0.509361 0.930853
vt 0.509361 0.940214
vt 0.500000 0.940214
vt 0.509361 0.949575
vt 0.500000 0.949575
vt 0.518722 0.958936
vt 0.518722 0.968297
vt 0.518722 0.977658
vt 0.518722 0.987019
vt 0.518722 0.930853
vt 0.518722 0.940214
vt 0.518722 0.949575
vt 0.528083 0.958936
vt 0.528083 0.968297
vt 0.528083 0.977658
vt 0.528083 0.987019
vt 0.528083 0.930853
vt 0.528083 0.940214
vt 0.528083 0.949575
vt 0.471917 0.958936
vt 0.481278 0.958936
vt 0.481278 0.968297
vt 0.471917 0.968297
vt 0.481278 0.977658
vt 0.471917 0.977658
vt 0.481278 0.987019
vt 0.471917 0.987019
vt 0.471917 0.930853
vt 0.481278 0.930853
vt 0.481278 0.940214
vt 0.471917 0.940214
vt 0.481278 0.949575
vt 0.471917 0.949575
vt 0.490639 0.958936
vt 0.490639 0.968297
vt 0.490639 0.977658
vt 0.490639 0.987019
vt 0.490639 0.930853
vt 0.490639 0.940214
vt 0.490639 0.949575
s 0
usemtl Material.003
f 128/199/76 134/200/76 135/201/76 129/202/76
f 129/202/77 135/201/77 136/203/77 130/204/77
f 130/204/78 136/203/78 137/205/78 131/206/78
f 131/207/79 137/208/79 138/209/79 132/210/79
f 132/210/80 138/209/80 139/211/80 133/212/80
f 133/212/81 139/211/81 134/200/81 128/199/81
f 134/200/82 140/213/82 141/214/82 135/201/82
f 135/201/77 141/214/77 142/215/77 136/203/77
f 136/203/83 142/215/83 143/216/83 137/205/83
f 137/208/84 143/217/84 144/218/84 138/209/84
f 138/209/80 144/218/80 145/219/80 139/211/80
f 139/211/85 145/219/85 140/213/85 134/200/85
f 140/213/86 146/220/86 147/221/86 141/214/86
f 141/214/87 147/221/87 148/222/87 142/215/87
f 142/215/88 148/222/88 149/223/88 143/216/88
f 143/217/89 149/224/89 150/225/89 144/218/89
f 144/218/90 150/225/90 151/226/90 145/219/90
f 145/219/91 151/226/91 146/220/91 140/213/91
f 146/227/92 152/228/92 153/229/92 147/230/92
f 147/230/93 153/229/93 154/231/93 148/232/93
f 148/232/94 154/231/94 155/233/94 149/234/94
f 149/235/95 155/236/95 156/237/95 150/238/95
f 150/238/96 156/237/96 157/239/96 151/240/96
f 151/240/97 157/239/97 152/228/97 146/227/97
f 152/228/83 158/241/83 159/242/83 153/229/83
f 153/229/77 159/242/77 160/243/77 154/231/77
f 154/231/82 160/243/82 161/244/82 155/233/82
f 155/236/85 161/245/85 162/246/85 156/237/85
f 156/237/80 162/246/80 163/247/80 157/239/80
f 157/239/84 163/247/84 158/241/84 152/228/84
f 158/241/98 128/199/98 129/202/98 159/242/98
f 159/242/77 129/202/77 130/204/77 160/243/77
f 160/243/99 130/204/99 131/206/99 161/244/99
f 161/245/100 131/207/100 132/210/100 162/246/100
f 162/246/80 132/210/80 133/212/80 163/247/80
f 163/247/101 133/212/101 128/199/101 158/241/101
o Sling
v 1.397968 -0.687836 -0.142010
v 1.397968 -0.730333 -0.142010
v -0.993565 -0.687836 0.122884
v -0.935235 -0.730333 0.116423
v 1.383020 -0.687836 -0.276973
v 1.383020 -0.730333 -0.276973
v -1.008514 -0.687836 -0.012079
v -0.950184 -0.730333 -0.018539
v 0.250098 -0.687836 0.156320
v 0.250098 -0.730333 0.156320
v 0.235149 -0.687836 0.021358
v 0.235149 -0.730333 0.021358
v -0.359437 -0.730333 -0.015924
v -0.374386 -0.687836 -0.150887
v -0.359437 -0.687836 -0.015924
v -0.374386 -0.730333 -0.150887
v 0.802679 -0.687836 -0.185639
v 0.787730 -0.730333 -0.320602
v 0.802679 -0.730333 -0.185639
v 0.787730 -0.687836 -0.320602
v -0.651088 -0.730333 0.016380
v -0.666037 -0.687836 -0.118583
v -0.651088 -0.687836 0.016380
v -0.666037 -0.730333 -0.118583
v 1.094329 -0.687836 -0.217943
v 1.079380 -0.730333 -0.352906
v 1.094329 -0.730333 -0.217943
v 1.079380 -0.687836 -0.352906
v 0.523017 -0.730333 -0.045098
v 0.508068 -0.687836 -0.180060
v 0.523017 -0.687836 -0.045098
v 0.508068 -0.730333 -0.180060
v -0.041552 -0.687836 0.188624
v -0.056501 -0.730333 0.053662
v -0.041552 -0.730333 0.188624
v -0.056501 -0.687836 0.053662
v 1.252143 -0.687836 -0.125858
v 1.237194 -0.730333 -0.260821
v 1.252143 -0.730333 -0.125858
v 1.237194 -0.687836 -0.260821
v -0.789410 -0.730333 0.100271
v -0.804359 -0.687836 -0.034691
v -0.789410 -0.687836 0.100271
v -0.804359 -0.730333 -0.034691
v 1.456298 -0.687836 -0.148471
v 1.441350 -0.687836 -0.283434
v 1.397968 0.353343 -0.142010
v 1.383020 0.353343 -0.276973
v 1.441350 0.353343 -0.283434
v 1.456298 0.353343 -0.148471
v -0.950184 -0.687836 -0.018539
v -0.935235 -0.687836 0.116423
v -0.950184 0.353343 -0.018539
v -1.008514 0.353343 -0.012079
v -0.993565 0.353343 0.122884
v -0.935235 0.353343 0.116423
v -0.868522 0.608326 -0.027585
v -0.950184 0.629574 -0.018539
v -0.935235 0.629574 0.116423
v -0.853573 0.608326 0.107378
v -0.903520 0.650823 -0.023708
v -0.888571 0.650823 0.111255
v 1.327972 0.608326 -0.134257
v 1.313023 0.608326 -0.269220
v 1.394686 0.629574 -0.278265
v 1.409634 0.629574 -0.143302
v 1.374636 0.650823 -0.139426
v 1.359688 0.650823 -0.274388
vn 0.1101 -0.0000 0.9939
vn -0.1101 -0.0000 -0.9939
vn -0.0000 1.0000 -0.0000
vn -0.0000 -1.0000 -0.0000
vn 0.5938 -0.0000 0.8046
vn -0.5411 -0.0000 0.8409
vn -0.4490 -0.0000 -0.8935
vn -0.5186 -0.0000 -0.8550
vn -0.5040 -0.0000 0.8637
vn -0.5938 -0.0000 -0.8046
vn 0.4490 -0.0000 0.8935
vn 0.5411 -0.0000 -0.8409
vn 0.5040 -0.0000 -0.8637
vn 0.5186 -0.0000 0.8550
vn -0.5829 -0.8099 0.0646
vn 0.5829 -0.8099 -0.0646
vn -0.9939 -0.0000 0.1101
vn 0.9939 -0.0000 -0.1101
vn 0.9460 -0.3067 -0.1048
vn 0.7653 0.6380 -0.0848
vn -0.9722 0.2078 0.1077
vn -0.4098 0.9110 0.0454
vn 0.5135 0.8562 -0.0569
vn -0.9581 -0.2662 0.1061
vn 0.9799 0.1676 -0.1085
vn -0.6670 0.7414 0.0739
vt 0.074470 0.763487
vt 0.086213 0.764263
vt 0.074470 0.764263
vt 0.074470 0.812384
vt 0.086213 0.812384
vt 0.086213 0.813937
vt 0.074470 0.813937
vt 0.086213 0.739427
vt 0.074470 0.739427
vt 0.062726 0.812384
vt 0.062726 0.813937
vt 0.097957 0.812384
vt 0.097957 0.813937
vt 0.086213 0.798414
vt 0.097957 0.798414
vt 0.097957 0.801518
vt 0.086213 0.801518
vt 0.062726 0.798414
vt 0.074470 0.798414
vt 0.074470 0.801518
vt 0.062726 0.801518
vt 0.074470 0.748740
vt 0.086213 0.748740
vt 0.086213 0.751845
vt 0.074470 0.751845
vt 0.074470 0.792205
vt 0.086213 0.792205
vt 0.086213 0.795309
vt 0.074470 0.795309
vt 0.062726 0.792205
vt 0.062726 0.795309
vt 0.097957 0.792205
vt 0.097957 0.795309
vt 0.074470 0.754950
vt 0.086213 0.754950
vt 0.086213 0.758054
vt 0.074470 0.758054
vt 0.074470 0.742531
vt 0.086213 0.742531
vt 0.086213 0.745636
vt 0.074470 0.745636
vt 0.086213 0.804623
vt 0.097957 0.804623
vt 0.097957 0.807728
vt 0.086213 0.807728
vt 0.062726 0.804623
vt 0.074470 0.804623
vt 0.074470 0.807728
vt 0.062726 0.807728
vt 0.086213 0.790652
vt 0.097957 0.790652
vt 0.062726 0.790652
vt 0.074470 0.790652
vt 0.086213 0.761159
vt 0.074470 0.761159
vt 0.074470 0.740979
vt 0.086213 0.740979
vt 0.097957 0.810832
vt 0.086213 0.810832
vt 0.074470 0.810832
vt 0.062726 0.810832
vt 0.086213 0.789100
vt 0.074470 0.789876
vt 0.062726 0.789876
vt 0.097957 0.789100
vt 0.086213 0.762711
vt 0.074470 0.762711
vt 0.074470 0.789100
vt 0.080341 0.739427
vt 0.062726 0.789488
vt 0.074470 0.789488
vt 0.074470 0.763875
vt 0.062726 0.789100
vt 0.074470 0.826355
vt 0.080341 0.813937
vt 0.086213 0.838773
s 0
usemtl Material.001
f 215/248/102 166/250/102 167/249/102
f 203/251/103 168/254/103 169/253/103 201/252/103
f 165/255/102 208/255/102 164/256/102
f 200/257/104 164/258/104 168/254/104 203/251/104
f 201/252/105 169/253/105 165/260/105 202/259/105
f 197/261/105 175/264/105 173/263/105 198/262/105
f 196/265/104 172/268/104 174/267/104 199/266/104
f 199/266/103 174/267/103 175/264/103 197/261/103
f 194/269/106 172/272/106 173/271/106 192/270/106
f 185/273/103 177/276/103 179/275/103 187/274/103
f 186/277/104 178/278/104 177/276/104 185/273/104
f 187/274/105 179/275/105 176/280/105 184/279/105
f 196/281/107 178/284/107 176/283/107 198/282/107
f 188/285/102 180/288/102 182/287/102 190/286/102
f 195/289/105 181/292/105 182/291/105 192/290/105
f 194/293/104 180/296/104 183/295/104 193/294/104
f 193/294/108 183/295/108 181/292/108 195/289/108
f 207/297/105 187/274/105 184/279/105 204/298/105
f 206/299/104 186/277/104 185/273/104 205/300/104
f 205/300/109 185/273/109 187/274/109 207/297/109
f 178/284/102 186/302/102 184/301/102 176/283/102
f 200/303/110 188/285/110 190/286/110 202/304/110
f 181/292/105 189/306/105 190/305/105 182/291/105
f 180/296/104 188/308/104 191/307/104 183/295/104
f 183/295/103 191/307/103 189/306/103 181/292/103
f 174/267/111 193/294/111 195/289/111 175/264/111
f 172/268/104 194/293/104 193/294/104 174/267/104
f 175/264/105 195/289/105 192/290/105 173/263/105
f 180/288/112 194/269/112 192/270/112 182/287/112
f 172/272/102 196/281/102 198/282/102 173/271/102
f 177/276/113 199/266/113 197/261/113 179/275/113
f 178/278/104 196/265/104 199/266/104 177/276/104
f 179/275/105 197/261/105 198/262/105 176/280/105
f 164/256/102 200/303/102 202/304/102 165/255/102
f 189/306/105 201/252/105 202/259/105 190/305/105
f 188/308/104 200/257/104 203/251/104 191/307/104
f 191/307/114 203/251/114 201/252/114 189/306/114
f 171/309/103 214/310/103 205/300/103 207/297/103
f 215/311/104 206/299/104 205/300/104 214/310/104
f 171/309/105 207/297/105 204/298/105 167/312/105
f 186/302/115 206/314/115 204/313/115 184/301/115
f 166/250/116 170/315/116 171/309/116 167/312/116
f 169/253/117 209/253/117 208/260/117 165/260/117
f 168/254/103 209/253/103 169/253/103
f 164/258/118 210/258/118 211/254/118 168/254/118
f 213/255/102 229/255/102 230/316/102 226/256/102 210/256/102
f 209/253/119 212/253/119 213/260/119 208/260/119
f 168/254/103 211/254/103 212/253/103 209/253/103
f 208/255/102 213/255/102 210/256/102 164/256/102
f 215/248/102 219/248/102 218/250/102 166/250/102
f 170/315/103 214/310/103 171/309/103
f 206/314/102 215/248/102 167/249/102 204/313/102
f 216/310/120 220/310/120 223/311/120 219/311/120
f 170/315/103 217/315/103 216/310/103 214/310/103
f 166/250/118 218/250/118 217/315/118 170/315/118
f 214/310/119 216/310/119 219/311/119 215/311/119
f 225/317/121 223/311/121 220/310/121 224/318/121
f 218/250/122 222/250/122 221/315/122 217/315/122
f 219/248/102 223/248/102 225/319/102 222/250/102 218/250/102
f 217/315/103 221/315/103 224/318/103 220/310/103 216/310/103
f 222/320/123 225/317/123 224/318/123 221/315/123
f 230/321/124 229/323/124 228/253/124 231/322/124
f 210/258/125 226/258/125 227/254/125 211/254/125
f 211/254/103 227/254/103 231/322/103 228/253/103 212/253/103
f 212/253/126 228/253/126 229/260/126 213/260/126
f 226/258/127 230/321/127 231/322/127 227/254/127
