# Blender 5.1.2
# www.blender.org
mtllib LunchBox.mtl
o LunchBox
v -0.670902 -0.447678 1.000000
v -0.670902 0.338507 1.000000
v -0.670902 -0.447678 -1.000000
v -0.670902 0.338507 -1.000000
v 0.670902 -0.447678 1.000000
v 0.670902 0.338507 1.000000
v 0.670902 -0.447678 -1.000000
v 0.670902 0.338507 -1.000000
v -0.920439 0.266238 1.249537
v -0.920439 0.266238 -1.249537
v 0.920440 0.266238 -1.249537
v 0.920440 0.266238 1.249537
v -0.937756 0.267944 1.266854
v -0.937756 0.267944 -1.266854
v 0.937756 0.267944 -1.266854
v 0.937756 0.267944 1.266854
vn 0.2556 0.9668 -0.0000
vn -0.0000 -1.0000 -0.0000
vn -0.0000 1.0000 -0.0000
vn -0.0000 -0.3300 0.9440
vn 0.9440 -0.3300 -0.0000
vn -0.0000 -0.3300 -0.9440
vn -0.9440 -0.3300 -0.0000
vn -0.0981 -0.9952 -0.0000
vn 0.0981 -0.9952 -0.0000
vn -0.0000 -0.9952 -0.0980
vn -0.0000 -0.9952 0.0980
vn -0.0000 0.9668 -0.2556
vn -0.2556 0.9668 -0.0000
vn -0.0000 0.9668 0.2556
vt 0.343335 0.178350
vt 0.266866 0.178350
vt 0.266866 0.497032
vt 0.343335 0.497032
vt 0.662017 0.665422
vt 0.343335 0.665422
vt 0.343335 0.984104
vt 0.662017 0.984104
vt 0.662017 0.497032
vt 0.662017 0.178350
vt 0.343335 0.009960
vt 0.343335 0.115257
vt 0.662017 0.115257
vt 0.662017 0.009960
vt 0.105674 0.497032
vt 0.254287 0.497032
vt 0.254287 0.178350
vt 0.105674 0.178350
vt 0.662017 0.560125
vt 0.343335 0.560125
vt 0.899679 0.178350
vt 0.751065 0.178350
vt 0.751065 0.497032
vt 0.899679 0.497032
vt 0.738487 0.178350
vt 0.738487 0.497032
vt 0.662017 0.551213
vt 0.343335 0.551213
vt 0.343335 0.124169
vt 0.662017 0.124169
s 0
usemtl Material.001
f 6/1/1 16/2/1 15/3/1 8/4/1
f 3/5/2 7/6/2 5/7/2 1/8/2
f 8/4/3 4/9/3 2/10/3 6/1/3
f 5/11/4 12/12/4 9/13/4 1/14/4
f 7/15/5 11/16/5 12/17/5 5/18/5
f 3/5/6 10/19/6 11/20/6 7/6/6
f 1/21/7 9/22/7 10/23/7 3/24/7
f 10/23/8 9/22/8 13/25/8 14/26/8
f 12/17/9 11/16/9 15/3/9 16/2/9
f 11/20/10 10/19/10 14/27/10 15/28/10
f 9/13/11 12/12/11 16/29/11 13/30/11
f 8/4/12 15/28/12 14/27/12 4/9/12
f 4/9/13 14/26/13 13/25/13 2/10/13
f 2/10/14 13/30/14 16/29/14 6/1/14
