# Blender 5.1.2
# www.blender.org
mtllib Bell Wood Overlay.mtl
o Cylinder
v 0.000000 0.123115 -0.007996
v 0.000000 0.077164 -0.007996
v -0.004942 0.077164 -0.006469
v -0.004942 0.123115 -0.006469
v 0.000000 0.145429 0.009314
v 0.000000 0.123115 0.007996
v 0.004942 0.123115 0.006469
v 0.005756 0.145429 0.007535
v -0.007996 0.123115 0.002471
v -0.007996 0.077164 0.002471
v -0.004942 0.077164 0.006469
v -0.004942 0.123115 0.006469
v 0.004942 0.123115 0.006469
v 0.004942 0.077164 0.006469
v 0.007996 0.077164 0.002471
v 0.007996 0.123115 0.002471
v 0.004942 0.123115 -0.006469
v 0.004942 0.077164 -0.006469
v 0.000000 0.077164 -0.007996
v 0.000000 0.123115 -0.007996
v -0.007996 0.123115 -0.002471
v -0.007996 0.077164 -0.002471
v -0.007996 0.077164 0.002471
v -0.007996 0.123115 0.002471
v 0.000000 0.123115 0.007996
v 0.000000 0.077164 0.007996
v 0.004942 0.077164 0.006469
v 0.004942 0.123115 0.006469
v 0.007996 0.123115 -0.002471
v 0.007996 0.077164 -0.002471
v 0.004942 0.077164 -0.006469
v 0.004942 0.123115 -0.006469
v -0.004942 0.123115 -0.006469
v -0.004942 0.077164 -0.006469
v -0.007996 0.077164 -0.002471
v -0.007996 0.123115 -0.002471
v -0.004942 0.123115 0.006469
v -0.004942 0.077164 0.006469
v 0.000000 0.077164 0.007996
v 0.000000 0.123115 0.007996
v 0.007996 0.123115 0.002471
v 0.007996 0.077164 0.002471
v 0.007996 0.077164 -0.002471
v 0.007996 0.123115 -0.002471
v 0.009314 0.145429 -0.002878
v 0.005756 0.145429 -0.007535
v 0.004041 0.147921 -0.005290
v 0.006538 0.147921 -0.002020
v 0.009314 0.145429 -0.002878
v 0.007996 0.123115 -0.002471
v 0.004942 0.123115 -0.006469
v 0.005756 0.145429 -0.007535
v -0.005756 0.145429 -0.007535
v -0.004942 0.123115 -0.006469
v -0.007996 0.123115 -0.002471
v -0.009314 0.145429 -0.002878
v -0.005756 0.145429 0.007535
v -0.004942 0.123115 0.006469
v 0.000000 0.123115 0.007996
v 0.000000 0.145429 0.009314
v 0.009314 0.145429 0.002878
v 0.007996 0.123115 0.002471
v 0.007996 0.123115 -0.002471
v 0.009314 0.145429 -0.002878
v 0.000000 0.145429 -0.009314
v 0.000000 0.123115 -0.007996
v -0.004942 0.123115 -0.006469
v -0.005756 0.145429 -0.007535
v -0.009314 0.145429 0.002878
v -0.007996 0.123115 0.002471
v -0.004942 0.123115 0.006469
v -0.005756 0.145429 0.007535
v 0.005756 0.145429 0.007535
v 0.004942 0.123115 0.006469
v 0.007996 0.123115 0.002471
v 0.009314 0.145429 0.002878
v 0.005756 0.145429 -0.007535
v 0.004942 0.123115 -0.006469
v 0.000000 0.123115 -0.007996
v 0.000000 0.145429 -0.009314
v -0.009314 0.145429 -0.002878
v -0.007996 0.123115 -0.002471
v -0.007996 0.123115 0.002471
v -0.009314 0.145429 0.002878
v 0.004041 0.147921 -0.005290
v 0.000000 0.147921 -0.006538
v -0.004041 0.147921 -0.005290
v 0.006538 0.147921 -0.002020
v -0.006538 0.147921 -0.002020
v 0.006538 0.147921 0.002020
v -0.006538 0.147921 0.002020
v 0.004041 0.147921 0.005289
v -0.004041 0.147921 0.005289
v 0.000000 0.147921 0.006538
v -0.004041 0.147921 -0.005290
v -0.005756 0.145429 -0.007535
v -0.009314 0.145429 -0.002878
v -0.006538 0.147921 -0.002020
v -0.004041 0.147921 0.005289
v -0.005756 0.145429 0.007535
v 0.000000 0.145429 0.009314
v 0.000000 0.147921 0.006538
v 0.006538 0.147921 0.002020
v 0.009314 0.145429 0.002878
v 0.009314 0.145429 -0.002878
v 0.006538 0.147921 -0.002020
v 0.000000 0.145429 -0.009314
v -0.005756 0.145429 -0.007535
v -0.004041 0.147921 -0.005290
v 0.000000 0.147921 -0.006538
v -0.006538 0.147921 0.002020
v -0.009314 0.145429 0.002878
v -0.005756 0.145429 0.007535
v -0.004041 0.147921 0.005289
v 0.004041 0.147921 0.005289
v 0.005756 0.145429 0.007535
v 0.009314 0.145429 0.002878
v 0.006538 0.147921 0.002020
v 0.004041 0.147921 -0.005290
v 0.005756 0.145429 -0.007535
v 0.000000 0.145429 -0.009314
v 0.000000 0.147921 -0.006538
v -0.006538 0.147921 -0.002020
v -0.009314 0.145429 -0.002878
v -0.009314 0.145429 0.002878
v -0.006538 0.147921 0.002020
v 0.000000 0.147921 0.006538
v 0.000000 0.145429 0.009314
v 0.005756 0.145429 0.007535
v 0.004041 0.147921 0.005289
vn -0.2952 -0.0000 -0.9554
vn 0.2948 -0.0563 0.9539
vn -0.7947 -0.0000 0.6071
vn 0.7947 -0.0000 0.6071
vn 0.2952 -0.0000 -0.9554
vn -1.0000 -0.0000 -0.0000
vn 0.2952 -0.0000 0.9554
vn 0.7947 -0.0000 -0.6071
vn -0.7947 -0.0000 -0.6071
vn -0.2952 -0.0000 0.9554
vn 1.0000 -0.0000 -0.0000
vn 0.5361 0.7382 -0.4095
vn 0.7933 -0.0579 -0.6060
vn -0.7933 -0.0579 -0.6060
vn -0.2948 -0.0563 0.9539
vn 0.9983 -0.0590 -0.0000
vn -0.2948 -0.0563 -0.9539
vn -0.7933 -0.0579 0.6060
vn 0.7933 -0.0579 0.6060
vn 0.2948 -0.0563 -0.9539
vn -0.9983 -0.0590 -0.0000
vn -0.0000 1.0000 -0.0000
vn -0.5361 0.7382 -0.4095
vn -0.2022 0.7288 0.6542
vn 0.6680 0.7442 -0.0000
vn -0.2022 0.7288 -0.6542
vn -0.5361 0.7382 0.4095
vn 0.5361 0.7382 0.4095
vn 0.2022 0.7288 -0.6542
vn -0.6680 0.7442 -0.0000
vn 0.2022 0.7288 0.6542
vn -0.0000 -1.0000 -0.0000
vt 0.528209 0.786586
vt 0.531134 0.786586
vt 0.542837 0.786586
vt 0.545763 0.786586
vt 0.536986 0.786586
vt 0.539912 0.786586
vt 0.548689 0.786586
vt 0.554540 0.786586
vt 0.557466 0.786586
vt 0.534060 0.786586
vt 0.551614 0.786586
vt 0.539650 0.770323
vt 0.535523 0.771664
vt 0.531396 0.770323
vt 0.542201 0.766812
vt 0.528845 0.766812
vt 0.542201 0.762473
vt 0.528845 0.762473
vt 0.539650 0.758962
vt 0.531396 0.758962
vt 0.535523 0.757621
s 0
usemtl Material.001
f 1/1/1 2/1/1 3/2/1
f 1/1/1 3/2/1 4/2/1
f 5/3/2 6/3/2 7/4/2
f 5/3/2 7/4/2 8/4/2
f 9/5/3 10/5/3 11/6/3
f 9/5/3 11/6/3 12/6/3
f 13/4/4 14/4/4 15/7/4
f 13/4/4 15/7/4 16/7/4
f 17/8/5 18/8/5 19/9/5
f 17/8/5 19/9/5 20/9/5
f 21/10/6 22/10/6 23/5/6
f 21/10/6 23/5/6 24/5/6
f 25/3/7 26/3/7 27/4/7
f 25/3/7 27/4/7 28/4/7
f 29/11/8 30/11/8 31/8/8
f 29/11/8 31/8/8 32/8/8
f 33/2/9 34/2/9 35/10/9
f 33/2/9 35/10/9 36/10/9
f 37/6/10 38/6/10 39/3/10
f 37/6/10 39/3/10 40/3/10
f 41/7/11 42/7/11 43/11/11
f 41/7/11 43/11/11 44/11/11
s 1
f 45/11/12 46/8/12 47/8/12
f 48/11/12 45/11/12 47/8/12
s 0
f 49/11/13 50/11/13 51/8/13
f 49/11/13 51/8/13 52/8/13
f 53/2/14 54/2/14 55/10/14
f 53/2/14 55/10/14 56/10/14
f 57/6/15 58/6/15 59/3/15
f 57/6/15 59/3/15 60/3/15
f 61/7/16 62/7/16 63/11/16
s 1
f 61/7/16 63/11/16 64/11/16
f 65/1/17 66/1/17 67/2/17
f 65/1/17 67/2/17 68/2/17
s 0
f 69/5/18 70/5/18 71/6/18
f 69/5/18 71/6/18 72/6/18
f 73/4/19 74/4/19 75/7/19
f 73/4/19 75/7/19 76/7/19
f 77/8/20 78/8/20 79/9/20
f 77/8/20 79/9/20 80/9/20
f 81/10/21 82/10/21 83/5/21
f 81/10/21 83/5/21 84/5/21
f 85/12/22 86/13/22 87/14/22
f 88/15/22 85/12/22 87/14/22
f 88/15/22 87/14/22 89/16/22
f 90/17/22 88/15/22 89/16/22
f 90/17/22 89/16/22 91/18/22
f 92/19/22 90/17/22 91/18/22
f 92/19/22 91/18/22 93/20/22
f 94/21/22 92/19/22 93/20/22
f 95/2/23 96/2/23 97/10/23
f 95/2/23 97/10/23 98/10/23
f 99/6/24 100/6/24 101/3/24
f 99/6/24 101/3/24 102/3/24
f 103/7/25 104/7/25 105/11/25
f 103/7/25 105/11/25 106/11/25
f 107/1/26 108/2/26 109/2/26
f 110/1/26 107/1/26 109/2/26
f 111/5/27 112/5/27 113/6/27
f 111/5/27 113/6/27 114/6/27
f 115/4/28 116/4/28 117/7/28
s 1
f 115/4/28 117/7/28 118/7/28
s 0
f 119/8/29 120/8/29 121/9/29
f 119/8/29 121/9/29 122/9/29
f 123/10/30 124/10/30 125/5/30
f 123/10/30 125/5/30 126/5/30
f 127/3/31 128/3/31 129/4/31
f 127/3/31 129/4/31 130/4/31
f 39/3/32 38/6/32 19/9/32 18/8/32
f 31/8/32 30/11/32 27/4/32 26/3/32
f 43/11/32 42/7/32 15/7/32 14/4/32
f 11/6/32 10/5/32 3/2/32 2/1/32
f 35/10/32 34/2/32 23/5/32 22/10/32
