# Blender 5.1.2
# www.blender.org
mtllib bell metal overlay.mtl
o Overlay_Metal
v 0.000000 -1.013909 -0.788138
v 0.000000 -0.519351 -0.628871
v 0.478092 -1.013834 -0.640380
v 0.379446 -0.519291 -0.511559
v 0.773942 -1.013706 -0.253024
v 0.614385 -0.519211 -0.203834
v 0.773942 -1.013706 0.226205
v 0.614420 -0.519287 0.176978
v 0.478092 -1.013834 0.613560
v 0.379498 -0.519490 0.484747
v 0.000000 -1.013909 0.761318
v 0.000000 -0.519595 0.602114
v -0.478092 -1.013834 0.613560
v -0.379498 -0.519490 0.484747
v -0.773942 -1.013706 0.226205
v -0.614420 -0.519287 0.176978
v -0.773942 -1.013706 -0.253024
v -0.614385 -0.519211 -0.203834
v -0.478092 -1.013834 -0.640380
v -0.379446 -0.519291 -0.511559
v 0.000000 0.482342 -0.438909
v 0.270448 0.482403 -0.355242
v 0.437914 0.482476 -0.135766
v 0.437931 0.482399 0.135835
v 0.270475 0.482206 0.355340
v 0.000000 0.482102 0.439026
v -0.270475 0.482206 0.355340
v -0.437931 0.482399 0.135835
v -0.437914 0.482476 -0.135766
v -0.270448 0.482403 -0.355242
v 0.000000 0.561195 -0.360951
v 0.222585 0.561219 -0.292110
v 0.360344 0.561259 -0.111649
v 0.360344 0.561260 0.111628
v 0.222585 0.561219 0.292110
v 0.000000 0.561195 0.360951
v -0.222585 0.561219 0.292110
v -0.360344 0.561260 0.111628
v -0.360344 0.561259 -0.111649
v -0.222585 0.561219 -0.292110
v 0.000000 0.558880 -0.172436
v 0.105965 0.558930 -0.139594
v 0.171613 0.559017 -0.053375
v 0.171613 0.559017 0.053375
v 0.105965 0.558930 0.139594
v 0.000000 0.558880 0.172436
v -0.105965 0.558930 0.139594
v -0.171613 0.559017 0.053375
v -0.171613 0.559017 -0.053375
v -0.105965 0.558930 -0.139594
v 0.000000 -1.020382 -0.712957
v 0.432862 -1.020431 -0.579294
v 0.700294 -1.020508 -0.229524
v 0.700243 -1.020482 0.202703
v 0.432783 -1.020362 0.552395
v 0.000000 -1.020296 0.685981
v -0.432783 -1.020362 0.552395
v -0.700243 -1.020482 0.202703
v -0.700294 -1.020509 -0.229524
v -0.432862 -1.020431 -0.579294
v 0.000000 0.451446 -0.360326
v 0.223329 0.451463 -0.291339
v 0.360985 0.451504 -0.111172
v 0.360962 0.451543 0.111110
v 0.223292 0.451563 0.291235
v 0.000000 0.451567 0.360197
v -0.223273 0.451563 0.291235
v -0.360962 0.451544 0.111110
v -0.360985 0.451504 -0.111171
v -0.223309 0.451463 -0.291339
v 0.000000 0.450438 -0.087468
v 0.053442 0.450388 -0.070855
v 0.086642 0.450300 -0.027112
v 0.086643 0.450300 0.027109
v 0.053443 0.450387 0.070854
v 0.000000 0.450438 0.087468
v -0.053443 0.450387 0.070854
v -0.086643 0.450300 0.027109
v -0.086642 0.450300 -0.027112
v -0.053442 0.450388 -0.070855
v 0.000000 -0.615395 -0.089949
v 0.054990 -0.616495 -0.072849
v 0.089237 -0.619414 -0.027650
v 0.088983 -0.623227 0.028418
v 0.054610 -0.626474 0.073141
v 0.000000 -0.627734 0.089971
v -0.054610 -0.626474 0.073141
v -0.088983 -0.623227 0.028418
v -0.089237 -0.619414 -0.027650
v -0.054990 -0.616495 -0.072849
v -0.000000 -0.731527 -0.159372
v 0.097873 -0.733325 -0.129088
v 0.158689 -0.738027 -0.049333
v 0.158626 -0.743891 0.049559
v 0.097774 -0.748603 0.129193
v -0.000000 -0.750409 0.159408
v -0.097774 -0.748604 0.129193
v -0.158626 -0.743892 0.049560
v -0.158689 -0.738028 -0.049333
v -0.097873 -0.733326 -0.129088
v -0.000000 -0.874159 -0.095850
v 0.058328 -0.874838 -0.077843
v 0.094719 -0.876647 -0.030225
v 0.094821 -0.878827 0.029050
v 0.058484 -0.880574 0.076830
v -0.000000 -0.881219 0.094970
v -0.058462 -0.880575 0.076830
v -0.094821 -0.878827 0.029051
v -0.094719 -0.876647 -0.030225
v -0.058307 -0.874839 -0.077843
v 0.000000 -1.003500 -0.771060
v 0.000000 -0.524480 -0.609540
v 0.468260 -1.003500 -0.626360
v 0.368420 -0.524480 -0.495700
v 0.757640 -1.003500 -0.247540
v 0.596120 -0.524480 -0.197620
v 0.757640 -1.003500 0.220720
v 0.596120 -0.524480 0.170800
v 0.468260 -1.003500 0.599540
v 0.368420 -0.524480 0.468860
v 0.000000 -1.003500 0.744240
v 0.000000 -0.524480 0.582720
v -0.468260 -1.003500 0.599540
v -0.368420 -0.524480 0.468860
v -0.757640 -1.003500 0.220720
v -0.596120 -0.524480 0.170800
v -0.757640 -1.003500 -0.247540
v -0.596120 -0.524480 -0.197620
v -0.468260 -1.003500 -0.626360
v -0.368420 -0.524480 -0.495700
v 0.000000 0.473480 -0.420980
v 0.260180 0.473480 -0.340580
v 0.420980 0.473480 -0.130080
v 0.420980 0.473480 0.130080
v 0.260180 0.473480 0.340580
v 0.000000 0.473480 0.420980
v -0.260180 0.473480 0.340580
v -0.420980 0.473480 0.130080
v -0.420980 0.473480 -0.130080
v -0.260180 0.473480 -0.340580
v 0.000000 0.543280 -0.352060
v 0.217580 0.543280 -0.284820
v 0.352060 0.543280 -0.108800
v 0.352060 0.543280 0.108780
v 0.217580 0.543280 0.284820
v 0.000000 0.543280 0.352060
v -0.217580 0.543280 0.284820
v -0.352060 0.543280 0.108780
v -0.352060 0.543280 -0.108800
v -0.217580 0.543280 -0.284820
v 0.000000 0.543280 -0.159920
v 0.098840 0.543280 -0.129380
v 0.159920 0.543280 -0.049420
v 0.159920 0.543280 0.049420
v 0.098840 0.543280 0.129380
v 0.000000 0.543280 0.159920
v -0.098840 0.543280 0.129380
v -0.159920 0.543280 0.049420
v -0.159920 0.543280 -0.049420
v -0.098840 0.543280 -0.129380
v 0.000000 -1.003500 -0.723680
v 0.438960 -1.003500 -0.588020
v 0.710260 -1.003500 -0.232900
v 0.710260 -1.003500 0.206060
v 0.438960 -1.003500 0.561200
v 0.000000 -1.003500 0.696840
v -0.438960 -1.003500 0.561200
v -0.710260 -1.003500 0.206060
v -0.710260 -1.003500 -0.232900
v -0.438960 -1.003500 -0.588020
v 0.000000 0.466060 -0.373980
v 0.231140 0.466060 -0.302560
v 0.373980 0.466060 -0.115560
v 0.373980 0.466060 0.115560
v 0.231140 0.466060 0.302560
v 0.000000 0.466060 0.373980
v -0.231120 0.466060 0.302560
v -0.373980 0.466060 0.115560
v -0.373980 0.466060 -0.115560
v -0.231120 0.466060 -0.302560
v 0.000000 0.466060 -0.074980
v 0.046340 0.466060 -0.060660
v 0.074980 0.466060 -0.023160
v 0.074980 0.466060 0.023160
v 0.046340 0.466060 0.060660
v 0.000000 0.466060 0.074980
v -0.046340 0.466060 0.060660
v -0.074980 0.466060 0.023160
v -0.074980 0.466060 -0.023160
v -0.046340 0.466060 -0.060660
v 0.000000 -0.621003 -0.070751
v 0.043880 -0.622185 -0.057223
v 0.071000 -0.625237 -0.021862
v 0.071000 -0.629023 0.021860
v 0.043880 -0.632095 0.057227
v 0.000000 -0.633258 0.070749
v -0.043880 -0.632095 0.057227
v -0.071000 -0.629023 0.021860
v -0.071000 -0.625237 -0.021862
v -0.043880 -0.622185 -0.057223
v 0.000000 -0.732838 -0.139415
v 0.086340 -0.734580 -0.112796
v 0.139720 -0.739100 -0.043087
v 0.139720 -0.744701 0.043087
v 0.086340 -0.749220 0.112796
v 0.000000 -0.750962 0.139415
v -0.086340 -0.749220 0.112796
v -0.139720 -0.744701 0.043087
v -0.139720 -0.739100 -0.043087
v -0.086340 -0.734580 -0.112796
v 0.000000 -0.858522 -0.083381
v 0.051580 -0.859130 -0.067465
v 0.083440 -0.860745 -0.025761
v 0.083440 -0.862711 0.025773
v 0.051580 -0.864315 0.067451
v 0.000000 -0.864916 0.083385
v -0.051560 -0.864315 0.067451
v -0.083440 -0.862711 0.025773
v -0.083440 -0.860745 -0.025761
v -0.051560 -0.859130 -0.067465
vn 0.2822 0.2941 -0.9132
vn 0.7576 0.3019 -0.5786
vn 0.9517 0.3071 -0.0000
vn 0.7576 0.3020 0.5786
vn 0.2822 0.2942 0.9131
vn -0.2822 0.2942 0.9131
vn -0.7576 0.3020 0.5786
vn -0.9517 0.3071 -0.0000
vn -0.2920 0.1537 0.9440
vn -0.7576 0.3019 -0.5786
vn -0.2822 0.2941 -0.9132
vn -0.0498 -0.9963 0.0700
vn -0.0821 -0.9963 0.0272
vn -0.0819 -0.9963 0.0278
vn -0.0489 -0.9963 0.0705
vn -0.2148 0.6862 0.6950
vn 0.2920 0.1537 0.9440
vn 0.7843 0.1627 0.5986
vn 0.2907 0.1783 -0.9401
vn 0.9848 0.1735 -0.0000
vn 0.7821 0.1783 -0.5970
vn -0.2907 0.1783 -0.9401
vn -0.7821 0.1783 -0.5970
vn -0.9848 0.1735 -0.0000
vn -0.7843 0.1627 0.5986
vn -0.0109 0.9999 -0.0035
vn -0.0109 0.9999 0.0035
vn -0.0109 0.9999 0.0036
vn -0.0109 0.9999 -0.0036
vn 0.7127 0.7015 0.0001
vn -0.2147 0.6867 -0.6945
vn -0.5711 0.6954 0.4362
vn 0.5711 0.6954 0.4362
vn 0.2147 0.6867 -0.6945
vn -0.7127 0.7015 0.0001
vn 0.2148 0.6862 0.6950
vn 0.5709 0.6957 -0.4359
vn -0.5709 0.6957 -0.4359
vn -0.0000 0.9999 0.0121
vn 0.0071 0.9999 0.0095
vn 0.0069 0.9999 0.0097
vn 0.0109 0.9999 -0.0035
vn 0.0071 0.9999 -0.0095
vn 0.0069 0.9999 -0.0097
vn 0.0109 0.9999 -0.0036
vn -0.0071 0.9999 -0.0095
vn -0.0069 0.9999 -0.0097
vn -0.0071 0.9999 0.0095
vn -0.0069 0.9999 0.0097
vn 0.0109 0.9999 0.0035
vn 0.0109 0.9999 0.0036
vn -0.0000 0.9999 -0.0121
vn 0.2886 -0.2069 -0.9348
vn -0.0000 -0.9963 0.0855
vn 0.0498 -0.9963 0.0700
vn 0.0489 -0.9963 0.0705
vn 0.0821 -0.9963 0.0272
vn 0.0819 -0.9963 0.0278
vn -0.0000 -0.9962 -0.0867
vn 0.0503 -0.9962 -0.0708
vn 0.0494 -0.9962 -0.0713
vn 0.0824 -0.9962 -0.0274
vn 0.0822 -0.9962 -0.0280
vn -0.0503 -0.9962 -0.0708
vn -0.0494 -0.9962 -0.0713
vn -0.0824 -0.9962 -0.0274
vn -0.0822 -0.9962 -0.0280
vn 0.0039 -1.0000 -0.0013
vn 0.0039 -1.0000 0.0016
vn -0.9744 -0.2246 -0.0001
vn 0.2877 -0.2232 0.9314
vn 0.7757 -0.2157 -0.5931
vn -0.7757 -0.2157 -0.5931
vn -0.2876 -0.2232 0.9314
vn 0.9744 -0.2246 -0.0001
vn -0.2886 -0.2069 -0.9348
vn -0.7739 -0.2259 0.5916
vn 0.7739 -0.2259 0.5916
vn -0.7947 0.0023 0.6071
vn -0.0022 -1.0000 -0.0033
vn -0.0000 -1.0000 -0.0039
vn -0.0021 -1.0000 -0.0033
vn -0.0023 -1.0000 0.0036
vn -0.0039 -1.0000 0.0016
vn -0.0022 -1.0000 0.0037
vn 0.0023 -1.0000 0.0036
vn 0.0022 -1.0000 0.0037
vn 0.0022 -1.0000 -0.0033
vn 0.0021 -1.0000 -0.0033
vn -0.0039 -1.0000 -0.0012
vn -0.0039 -1.0000 -0.0013
vn -0.0000 -1.0000 0.0043
vn 0.6770 0.4893 0.5497
vn 0.7947 0.0023 0.6071
vn 0.2969 0.0022 -0.9549
vn -1.0000 0.0023 0.0024
vn 0.2956 0.0023 0.9553
vn 0.7968 0.0023 -0.6042
vn -0.7968 0.0023 -0.6042
vn -0.2956 0.0023 0.9553
vn 1.0000 0.0023 0.0024
vn -0.2969 0.0022 -0.9549
vn 0.2660 -0.3926 -0.8804
vn 0.2658 0.4951 -0.8272
vn -0.8641 0.5022 0.0331
vn 0.2506 0.4762 0.8428
vn 0.7028 0.5021 -0.5040
vn -0.7028 0.5021 -0.5040
vn -0.2506 0.4762 0.8428
vn 0.8641 0.5022 0.0331
vn -0.2658 0.4951 -0.8272
vn -0.6770 0.4893 0.5497
vn -0.0000 -0.9993 -0.0370
vn -0.9059 -0.4230 -0.0217
vn 0.2737 -0.4245 0.8630
vn 0.7160 -0.4070 -0.5672
vn -0.7159 -0.4071 -0.5673
vn -0.2738 -0.4246 0.8630
vn 0.9059 -0.4230 -0.0217
vn -0.2660 -0.3926 -0.8804
vn -0.7290 -0.4276 0.5345
vn 0.7291 -0.4275 0.5345
vn -0.2810 -0.3066 0.9094
vn -0.7544 -0.3144 0.5763
vn -0.9476 -0.3195 -0.0000
vn -0.7544 -0.3144 -0.5763
vn -0.2810 -0.3066 -0.9094
vn 0.2810 -0.3066 -0.9094
vn 0.7544 -0.3144 -0.5763
vn 0.9476 -0.3195 -0.0000
vn 0.2918 -0.1530 -0.9442
vn 0.7544 -0.3144 0.5763
vn 0.2810 -0.3066 0.9094
vn -0.0000 1.0000 -0.0000
vn 0.2148 -0.6862 -0.6950
vn -0.2918 -0.1530 -0.9442
vn -0.7842 -0.1621 -0.5990
vn -0.2905 -0.1777 0.9402
vn -0.9849 -0.1729 -0.0000
vn -0.7820 -0.1777 0.5974
vn 0.2905 -0.1777 0.9402
vn 0.7820 -0.1777 0.5974
vn 0.9849 -0.1729 -0.0000
vn 0.7842 -0.1621 -0.5990
vn -0.0000 -1.0000 -0.0000
vn -0.7116 -0.7026 -0.0000
vn 0.2148 -0.6862 0.6950
vn 0.5704 -0.6962 -0.4358
vn -0.5704 -0.6962 -0.4358
vn -0.2148 -0.6862 0.6950
vn 0.7116 -0.7026 -0.0000
vn -0.2148 -0.6862 -0.6950
vn -0.5704 -0.6962 0.4358
vn 0.5704 -0.6962 0.4358
vn -0.2889 0.2054 0.9350
vn 0.9748 0.2231 -0.0000
vn -0.2879 0.2217 -0.9316
vn -0.7762 0.2141 0.5930
vn 0.7762 0.2141 0.5930
vn 0.2879 0.2217 -0.9316
vn -0.9748 0.2231 -0.0000
vn 0.2889 0.2054 0.9351
vn 0.7744 0.2244 -0.5916
vn -0.7744 0.2244 -0.5916
vn 0.7942 0.0036 -0.6076
vn -0.6693 -0.5007 -0.5489
vn -0.7942 0.0036 -0.6076
vn -0.2949 0.0037 0.9555
vn 1.0000 0.0036 0.0002
vn -0.2949 0.0037 -0.9555
vn -0.7941 0.0037 0.6078
vn 0.7941 0.0037 0.6078
vn 0.2949 0.0037 -0.9555
vn -1.0000 0.0036 0.0002
vn 0.2949 0.0037 0.9555
vn -0.2648 0.3934 0.8804
vn -0.2646 -0.5052 0.8214
vn 0.8574 -0.5134 -0.0371
vn -0.2472 -0.4877 -0.8373
vn -0.6990 -0.5127 0.4986
vn 0.6990 -0.5127 0.4986
vn 0.2472 -0.4877 -0.8373
vn -0.8574 -0.5134 -0.0371
vn 0.2646 -0.5052 0.8214
vn 0.6693 -0.5007 -0.5489
vn -0.0000 0.9993 0.0383
vn 0.9049 0.4250 0.0234
vn -0.2736 0.4237 -0.8635
vn -0.7139 0.4087 0.5687
vn 0.7138 0.4087 0.5687
vn 0.2737 0.4237 -0.8635
vn -0.9049 0.4250 0.0234
vn 0.2648 0.3934 0.8804
vn 0.7288 0.4283 -0.5343
vn -0.7288 0.4283 -0.5342
vt 0.363438 0.711481
vt 0.363438 0.726109
vt 0.360512 0.726109
vt 0.360512 0.711481
vt 0.357587 0.726109
vt 0.357587 0.711481
vt 0.354661 0.726109
vt 0.354661 0.711481
vt 0.351735 0.726109
vt 0.351735 0.711481
vt 0.348809 0.726109
vt 0.348809 0.711481
vt 0.345884 0.726109
vt 0.345884 0.711481
vt 0.342958 0.726109
vt 0.342958 0.711481
vt 0.340032 0.726109
vt 0.340032 0.711481
vt 0.337107 0.726109
vt 0.337107 0.711481
vt 0.334181 0.726109
vt 0.334181 0.711481
vt 0.471876 0.784556
vt 0.468950 0.784556
vt 0.480653 0.784556
vt 0.477727 0.784556
vt 0.489430 0.784556
vt 0.486504 0.784556
vt 0.466024 0.784556
vt 0.474802 0.784556
vt 0.483579 0.784556
vt 0.463099 0.784556
vt 0.460173 0.784556
vt 0.482116 0.784264
vt 0.486243 0.782923
vt 0.488794 0.779412
vt 0.488794 0.775072
vt 0.486243 0.771561
vt 0.482116 0.770220
vt 0.477989 0.771561
vt 0.475438 0.775072
vt 0.475438 0.779412
vt 0.477989 0.782923
s 1
usemtl Material.010
f 1/1/1 2/2/1 4/3/1 3/4/1
f 3/4/2 4/3/2 6/5/2 5/6/2
f 5/6/3 6/5/3 8/7/3 7/8/3
f 7/8/4 8/7/4 10/9/4 9/10/4
f 9/10/5 10/9/5 12/11/5 11/12/5
f 11/12/6 12/11/6 14/13/6 13/14/6
f 13/14/7 14/13/7 16/15/7 15/16/7
f 15/16/8 16/15/8 18/17/8 17/18/8
f 14/13/9 12/11/9 26/11/9 27/13/9
f 17/18/10 18/17/10 20/19/10 19/20/10
f 19/20/11 20/19/11 2/21/11 1/22/11
f 13/14/12 15/16/13 58/16/14 57/14/15
f 27/13/16 26/11/16 36/11/16 37/13/16
f 12/11/17 10/9/17 25/9/17 26/11/17
f 10/9/18 8/7/18 24/7/18 25/9/18
f 4/3/19 2/2/19 21/2/19 22/3/19
f 8/7/20 6/5/20 23/5/20 24/7/20
f 6/5/21 4/3/21 22/3/21 23/5/21
f 2/21/22 20/19/22 30/19/22 21/21/22
f 20/19/23 18/17/23 29/17/23 30/19/23
f 18/17/24 16/15/24 28/15/24 29/17/24
f 16/15/25 14/13/25 27/13/25 28/15/25
f 34/7/26 33/5/27 43/5/28 44/7/29
f 24/7/30 23/5/30 33/5/30 34/7/30
f 21/21/31 30/19/31 40/19/31 31/21/31
f 28/15/32 27/13/32 37/13/32 38/15/32
f 25/9/33 24/7/33 34/7/33 35/9/33
f 22/3/34 21/2/34 31/2/34 32/3/34
f 29/17/35 28/15/35 38/15/35 39/17/35
f 26/11/36 25/9/36 35/9/36 36/11/36
f 23/5/37 22/3/37 32/3/37 33/5/37
f 30/19/38 29/17/38 39/17/38 40/19/38
f 31/21/39 40/19/40 50/19/41 41/21/39
f 38/15/42 37/13/43 47/13/44 48/15/45
f 35/9/46 34/7/26 44/7/29 45/9/47
f 32/3/48 31/2/39 41/2/39 42/3/49
f 39/17/50 38/15/42 48/15/45 49/17/51
f 36/11/52 35/9/46 45/9/47 46/11/52
f 33/5/27 32/3/48 42/3/49 43/5/28
f 40/19/40 39/17/50 49/17/51 50/19/41
f 37/13/43 36/11/52 46/11/52 47/13/44
f 56/12/53 57/14/53 67/14/53 66/12/53
f 11/12/54 13/14/12 57/14/15 56/12/54
f 9/10/55 11/12/54 56/12/54 55/10/56
f 7/8/57 9/10/55 55/10/56 54/8/58
f 1/1/59 3/4/60 52/4/61 51/1/59
f 5/6/62 7/8/57 54/8/58 53/6/63
f 3/4/60 5/6/62 53/6/63 52/4/61
f 19/20/64 1/22/59 51/22/59 60/20/65
f 17/18/66 19/20/64 60/20/65 59/18/67
f 15/16/13 17/18/66 59/18/67 58/16/14
f 63/6/68 64/8/69 74/8/69 73/6/68
f 53/6/70 54/8/70 64/8/70 63/6/70
f 60/20/71 51/22/71 61/22/71 70/20/71
f 57/14/72 58/16/72 68/16/72 67/14/72
f 54/8/73 55/10/73 65/10/73 64/8/73
f 51/1/74 52/4/74 62/4/74 61/1/74
f 58/16/75 59/18/75 69/18/75 68/16/75
f 55/10/76 56/12/76 66/12/76 65/10/76
f 52/4/77 53/6/77 63/6/77 62/4/77
f 59/18/78 60/20/78 70/20/78 69/18/78
f 77/23/79 78/24/79 88/24/79 87/23/79
f 70/20/80 61/22/81 71/22/81 80/20/82
f 67/14/83 68/16/84 78/16/84 77/14/85
f 64/8/69 65/10/86 75/10/87 74/8/69
f 61/1/81 62/4/88 72/4/89 71/1/81
f 68/16/84 69/18/90 79/18/91 78/16/84
f 65/10/86 66/12/92 76/12/92 75/10/87
f 62/4/88 63/6/68 73/6/68 72/4/89
f 69/18/90 70/20/80 80/20/82 79/18/91
f 66/12/92 67/14/83 77/14/85 76/12/92
f 84/25/93 85/26/93 95/26/93 94/25/93
f 74/25/94 75/26/94 85/26/94 84/25/94
f 71/27/95 72/28/95 82/28/95 81/27/95
f 78/24/96 79/29/96 89/29/96 88/24/96
f 75/26/97 76/30/97 86/30/97 85/26/97
f 72/28/98 73/31/98 83/31/98 82/28/98
f 79/29/99 80/32/99 90/32/99 89/29/99
f 76/30/100 77/23/100 87/23/100 86/30/100
f 73/31/101 74/25/101 84/25/101 83/31/101
f 80/32/102 71/33/102 81/33/102 90/32/102
f 91/27/103 92/28/103 102/28/103 101/27/103
f 81/27/104 82/28/104 92/28/104 91/27/104
f 88/24/105 89/29/105 99/29/105 98/24/105
f 85/26/106 86/30/106 96/30/106 95/26/106
f 82/28/107 83/31/107 93/31/107 92/28/107
f 89/29/108 90/32/108 100/32/108 99/29/108
f 86/30/109 87/23/109 97/23/109 96/30/109
f 83/31/110 84/25/110 94/25/110 93/31/110
f 90/32/111 81/33/111 91/33/111 100/32/111
f 87/23/112 88/24/112 98/24/112 97/23/112
f 101/34/113 102/35/113 103/36/113 104/37/113 105/38/113 106/39/113 107/40/113 108/41/113 109/42/113 110/43/113
f 98/24/114 99/29/114 109/29/114 108/24/114
f 95/26/115 96/30/115 106/30/115 105/26/115
f 92/28/116 93/31/116 103/31/116 102/28/116
f 99/29/117 100/32/117 110/32/117 109/29/117
f 96/30/118 97/23/118 107/23/118 106/30/118
f 93/31/119 94/25/119 104/25/119 103/31/119
f 100/32/120 91/33/120 101/33/120 110/32/120
f 97/23/121 98/24/121 108/24/121 107/23/121
f 94/25/122 95/26/122 105/26/122 104/25/122
f 111/1/123 113/4/123 114/3/123 112/2/123
f 113/4/124 115/6/124 116/5/124 114/3/124
f 115/6/125 117/8/125 118/7/125 116/5/125
f 117/8/126 119/10/126 120/9/126 118/7/126
f 119/10/127 121/12/127 122/11/127 120/9/127
f 121/12/128 123/14/128 124/13/128 122/11/128
f 123/14/129 125/16/129 126/15/129 124/13/129
f 125/16/130 127/18/130 128/17/130 126/15/130
f 124/13/131 137/13/131 136/11/131 122/11/131
f 127/18/132 129/20/132 130/19/132 128/17/132
f 129/20/133 111/22/133 112/21/133 130/19/133
f 123/14/134 167/14/134 168/16/134 125/16/134
f 137/13/135 147/13/135 146/11/135 136/11/135
f 122/11/136 136/11/136 135/9/136 120/9/136
f 120/9/137 135/9/137 134/7/137 118/7/137
f 114/3/138 132/3/138 131/2/138 112/2/138
f 118/7/139 134/7/139 133/5/139 116/5/139
f 116/5/140 133/5/140 132/3/140 114/3/140
f 112/21/141 131/21/141 140/19/141 130/19/141
f 130/19/142 140/19/142 139/17/142 128/17/142
f 128/17/143 139/17/143 138/15/143 126/15/143
f 126/15/144 138/15/144 137/13/144 124/13/144
f 144/7/145 154/7/145 153/5/145 143/5/145
f 134/7/146 144/7/146 143/5/146 133/5/146
f 131/21/147 141/21/147 150/19/147 140/19/147
f 138/15/148 148/15/148 147/13/148 137/13/148
f 135/9/149 145/9/149 144/7/149 134/7/149
f 132/3/150 142/3/150 141/2/150 131/2/150
f 139/17/151 149/17/151 148/15/151 138/15/151
f 136/11/152 146/11/152 145/9/152 135/9/152
f 133/5/153 143/5/153 142/3/153 132/3/153
f 140/19/154 150/19/154 149/17/154 139/17/154
f 141/21/145 151/21/145 160/19/145 150/19/145
f 148/15/145 158/15/145 157/13/145 147/13/145
f 145/9/145 155/9/145 154/7/145 144/7/145
f 142/3/145 152/3/145 151/2/145 141/2/145
f 149/17/145 159/17/145 158/15/145 148/15/145
f 146/11/145 156/11/145 155/9/145 145/9/145
f 143/5/145 153/5/145 152/3/145 142/3/145
f 150/19/145 160/19/145 159/17/145 149/17/145
f 147/13/145 157/13/145 156/11/145 146/11/145
f 166/12/155 176/12/155 177/14/155 167/14/155
f 121/12/134 166/12/134 167/14/134 123/14/134
f 119/10/134 165/10/134 166/12/134 121/12/134
f 117/8/134 164/8/134 165/10/134 119/10/134
f 111/1/134 161/1/134 162/4/134 113/4/134
f 115/6/134 163/6/134 164/8/134 117/8/134
f 113/4/134 162/4/134 163/6/134 115/6/134
f 129/20/134 170/20/134 161/22/134 111/22/134
f 127/18/134 169/18/134 170/20/134 129/20/134
f 125/16/134 168/16/134 169/18/134 127/18/134
f 173/6/134 183/6/134 184/8/134 174/8/134
f 163/6/156 173/6/156 174/8/156 164/8/156
f 170/20/157 180/20/157 171/22/157 161/22/157
f 167/14/158 177/14/158 178/16/158 168/16/158
f 164/8/159 174/8/159 175/10/159 165/10/159
f 161/1/160 171/1/160 172/4/160 162/4/160
f 168/16/161 178/16/161 179/18/161 169/18/161
f 165/10/162 175/10/162 176/12/162 166/12/162
f 162/4/163 172/4/163 173/6/163 163/6/163
f 169/18/164 179/18/164 180/20/164 170/20/164
f 187/23/165 197/23/165 198/24/165 188/24/165
f 180/20/134 190/20/134 181/22/134 171/22/134
f 177/14/134 187/14/134 188/16/134 178/16/134
f 174/8/134 184/8/134 185/10/134 175/10/134
f 171/1/134 181/1/134 182/4/134 172/4/134
f 178/16/134 188/16/134 189/18/134 179/18/134
f 175/10/134 185/10/134 186/12/134 176/12/134
f 172/4/134 182/4/134 183/6/134 173/6/134
f 179/18/134 189/18/134 190/20/134 180/20/134
f 176/12/134 186/12/134 187/14/134 177/14/134
f 194/25/166 204/25/166 205/26/166 195/26/166
f 184/25/167 194/25/167 195/26/167 185/26/167
f 181/27/168 191/27/168 192/28/168 182/28/168
f 188/24/169 198/24/169 199/29/169 189/29/169
f 185/26/170 195/26/170 196/30/170 186/30/170
f 182/28/171 192/28/171 193/31/171 183/31/171
f 189/29/172 199/29/172 200/32/172 190/32/172
f 186/30/173 196/30/173 197/23/173 187/23/173
f 183/31/174 193/31/174 194/25/174 184/25/174
f 190/32/175 200/32/175 191/33/175 181/33/175
f 201/27/176 211/27/176 212/28/176 202/28/176
f 191/27/177 201/27/177 202/28/177 192/28/177
f 198/24/178 208/24/178 209/29/178 199/29/178
f 195/26/179 205/26/179 206/30/179 196/30/179
f 192/28/180 202/28/180 203/31/180 193/31/180
f 199/29/181 209/29/181 210/32/181 200/32/181
f 196/30/182 206/30/182 207/23/182 197/23/182
f 193/31/183 203/31/183 204/25/183 194/25/183
f 200/32/184 210/32/184 201/33/184 191/33/184
f 197/23/185 207/23/185 208/24/185 198/24/185
f 211/34/186 220/43/186 219/42/186 218/41/186 217/40/186 216/39/186 215/38/186 214/37/186 213/36/186 212/35/186
f 208/24/187 218/24/187 219/29/187 209/29/187
f 205/26/188 215/26/188 216/30/188 206/30/188
f 202/28/189 212/28/189 213/31/189 203/31/189
f 209/29/190 219/29/190 220/32/190 210/32/190
f 206/30/191 216/30/191 217/23/191 207/23/191
f 203/31/192 213/31/192 214/25/192 204/25/192
f 210/32/193 220/32/193 211/33/193 201/33/193
f 207/23/194 217/23/194 218/24/194 208/24/194
f 204/25/195 214/25/195 215/26/195 205/26/195
