# Blender 5.1.2
# www.blender.org
mtllib bell.mtl
o Cylinder_Cylinder.002
v 0.000000 -0.003500 -0.771060
v 0.000000 0.475520 -0.609540
v 0.468260 -0.003500 -0.626360
v 0.368420 0.475520 -0.495700
v 0.757640 -0.003500 -0.247540
v 0.596120 0.475520 -0.197620
v 0.757640 -0.003500 0.220720
v 0.596120 0.475520 0.170800
v 0.468260 -0.003500 0.599540
v 0.368420 0.475520 0.468860
v 0.000000 -0.003500 0.744240
v 0.000000 0.475520 0.582720
v -0.468260 -0.003500 0.599540
v -0.368420 0.475520 0.468860
v -0.757640 -0.003500 0.220720
v -0.596120 0.475520 0.170800
v -0.757640 -0.003500 -0.247540
v -0.596120 0.475520 -0.197620
v -0.468260 -0.003500 -0.626360
v -0.368420 0.475520 -0.495700
v 0.000000 1.473480 -0.420980
v 0.260180 1.473480 -0.340580
v 0.420980 1.473480 -0.130080
v 0.420980 1.473480 0.130080
v 0.260180 1.473480 0.340580
v 0.000000 1.473480 0.420980
v -0.260180 1.473480 0.340580
v -0.420980 1.473480 0.130080
v -0.420980 1.473480 -0.130080
v -0.260180 1.473480 -0.340580
v 0.000000 1.543280 -0.352060
v 0.217580 1.543280 -0.284820
v 0.352060 1.543280 -0.108800
v 0.352060 1.543280 0.108780
v 0.217580 1.543280 0.284820
v 0.000000 1.543280 0.352060
v -0.217580 1.543280 0.284820
v -0.352060 1.543280 0.108780
v -0.352060 1.543280 -0.108800
v -0.217580 1.543280 -0.284820
v 0.000000 1.543280 -0.159920
v 0.098840 1.543280 -0.129380
v 0.159920 1.543280 -0.049420
v 0.159920 1.543280 0.049420
v 0.098840 1.543280 0.129380
v 0.000000 1.543280 0.159920
v -0.098840 1.543280 0.129380
v -0.159920 1.543280 0.049420
v -0.159920 1.543280 -0.049420
v -0.098840 1.543280 -0.129380
v 0.000000 2.462300 -0.159920
v 0.098840 2.462300 -0.129380
v 0.159920 2.462300 -0.049420
v 0.159920 2.462300 0.049420
v 0.098840 2.462300 0.129380
v 0.000000 2.462300 0.159920
v -0.098840 2.462300 0.129380
v -0.159920 2.462300 0.049420
v -0.159920 2.462300 -0.049420
v -0.098840 2.462300 -0.129380
v 0.000000 2.908580 -0.186280
v 0.115120 2.908580 -0.150700
v 0.186280 2.908580 -0.057560
v 0.186280 2.908580 0.057560
v 0.115120 2.908580 0.150700
v 0.000000 2.908580 0.186280
v -0.115120 2.908580 0.150700
v -0.186280 2.908580 0.057560
v -0.186280 2.908580 -0.057560
v -0.115120 2.908580 -0.150700
v 0.000000 2.958420 -0.130760
v 0.080820 2.958420 -0.105800
v 0.130760 2.958420 -0.040400
v 0.130760 2.958420 0.040400
v 0.080820 2.958420 0.105780
v 0.000000 2.958420 0.130760
v -0.080820 2.958420 0.105780
v -0.130760 2.958420 0.040400
v -0.130760 2.958420 -0.040400
v -0.080820 2.958420 -0.105800
v 0.000000 -0.003500 -0.723680
v 0.438960 -0.003500 -0.588020
v 0.710260 -0.003500 -0.232900
v 0.710260 -0.003500 0.206060
v 0.438960 -0.003500 0.561200
v 0.000000 -0.003500 0.696840
v -0.438960 -0.003500 0.561200
v -0.710260 -0.003500 0.206060
v -0.710260 -0.003500 -0.232900
v -0.438960 -0.003500 -0.588020
v 0.000000 1.466060 -0.373980
v 0.231140 1.466060 -0.302560
v 0.373980 1.466060 -0.115560
v 0.373980 1.466060 0.115560
v 0.231140 1.466060 0.302560
v 0.000000 1.466060 0.373980
v -0.231120 1.466060 0.302560
v -0.373980 1.466060 0.115560
v -0.373980 1.466060 -0.115560
v -0.231120 1.466060 -0.302560
v 0.000000 1.466060 -0.074980
v 0.046340 1.466060 -0.060660
v 0.074980 1.466060 -0.023160
v 0.074980 1.466060 0.023160
v 0.046340 1.466060 0.060660
v 0.000000 1.466060 0.074980
v -0.046340 1.466060 0.060660
v -0.074980 1.466060 0.023160
v -0.074980 1.466060 -0.023160
v -0.046340 1.466060 -0.060660
v 0.000000 0.378997 -0.070751
v 0.043880 0.377815 -0.057223
v 0.071000 0.374763 -0.021862
v 0.071000 0.370977 0.021860
v 0.043880 0.367905 0.057227
v 0.000000 0.366742 0.070749
v -0.043880 0.367905 0.057227
v -0.071000 0.370977 0.021860
v -0.071000 0.374763 -0.021862
v -0.043880 0.377815 -0.057223
v 0.000000 0.267162 -0.139415
v 0.086340 0.265420 -0.112796
v 0.139720 0.260901 -0.043087
v 0.139720 0.255299 0.043087
v 0.086340 0.250780 0.112796
v 0.000000 0.249038 0.139415
v -0.086340 0.250780 0.112796
v -0.139720 0.255299 0.043087
v -0.139720 0.260901 -0.043087
v -0.086340 0.265420 -0.112796
v 0.000000 0.141478 -0.083381
v 0.051580 0.140870 -0.067465
v 0.083440 0.139255 -0.025761
v 0.083440 0.137289 0.025773
v 0.051580 0.135685 0.067451
v 0.000000 0.135084 0.083385
v -0.051560 0.135685 0.067451
v -0.083440 0.137289 0.025773
v -0.083440 0.139255 -0.025761
v -0.051560 0.140870 -0.067465
vn 0.2810 0.3066 -0.9094
vn 0.7544 0.3144 -0.5763
vn 0.9476 0.3195 -0.0000
vn 0.7544 0.3144 0.5763
vn 0.2810 0.3066 0.9094
vn -0.2810 0.3066 0.9094
vn -0.7544 0.3144 0.5763
vn -0.9476 0.3195 -0.0000
vn -0.2918 0.1530 0.9442
vn -0.7544 0.3144 -0.5763
vn -0.2810 0.3066 -0.9094
vn -0.0000 -1.0000 -0.0000
vn -0.2148 0.6862 0.6950
vn 0.2918 0.1530 0.9442
vn 0.7842 0.1621 0.5990
vn 0.2905 0.1777 -0.9402
vn 0.9849 0.1729 -0.0000
vn 0.7820 0.1777 -0.5974
vn -0.2905 0.1777 -0.9402
vn -0.7820 0.1777 -0.5974
vn -0.9849 0.1729 -0.0000
vn -0.7842 0.1621 0.5990
vn -0.0000 1.0000 -0.0000
vn 0.7116 0.7026 -0.0000
vn -0.2148 0.6862 -0.6950
vn -0.5704 0.6962 0.4358
vn 0.5704 0.6962 0.4358
vn 0.2148 0.6862 -0.6950
vn -0.7116 0.7026 -0.0000
vn 0.2148 0.6862 0.6950
vn 0.5704 0.6962 -0.4358
vn -0.5704 0.6962 -0.4358
vn -0.2952 -0.0000 -0.9554
vn 0.2948 -0.0563 0.9539
vn -0.7947 -0.0000 0.6070
vn 0.7947 -0.0000 0.6070
vn 0.2952 -0.0000 -0.9554
vn -1.0000 -0.0000 -0.0000
vn 0.2952 -0.0000 0.9554
vn 0.7947 -0.0000 -0.6070
vn -0.7947 -0.0000 -0.6070
vn -0.2952 -0.0000 0.9554
vn 1.0000 -0.0000 -0.0000
vn 0.5362 0.7381 -0.4095
vn 0.7933 -0.0579 -0.6061
vn -0.7933 -0.0579 -0.6061
vn -0.2948 -0.0563 0.9539
vn 0.9983 -0.0590 -0.0000
vn -0.2948 -0.0563 -0.9539
vn -0.7933 -0.0579 0.6061
vn 0.7933 -0.0579 0.6061
vn 0.2948 -0.0563 -0.9539
vn -0.9983 -0.0590 -0.0000
vn -0.5362 0.7381 -0.4095
vn -0.2022 0.7288 0.6542
vn 0.6680 0.7441 -0.0000
vn -0.2022 0.7287 -0.6543
vn -0.5361 0.7381 0.4096
vn 0.5361 0.7381 0.4096
vn 0.2022 0.7287 -0.6543
vn -0.6680 0.7441 -0.0000
vn 0.2022 0.7288 0.6542
vn 0.2889 -0.2054 -0.9350
vn -0.9748 -0.2231 -0.0000
vn 0.2879 -0.2217 0.9316
vn 0.7762 -0.2141 -0.5930
vn -0.7762 -0.2141 -0.5930
vn -0.2879 -0.2217 0.9316
vn 0.9748 -0.2231 -0.0000
vn -0.2889 -0.2054 -0.9351
vn -0.7744 -0.2244 0.5916
vn 0.7744 -0.2244 0.5916
vn -0.7942 -0.0036 0.6076
vn 0.6693 0.5007 0.5489
vn 0.7942 -0.0036 0.6076
vn 0.2949 -0.0037 -0.9555
vn -1.0000 -0.0036 -0.0002
vn 0.2949 -0.0037 0.9555
vn 0.7941 -0.0037 -0.6078
vn -0.7941 -0.0037 -0.6078
vn -0.2949 -0.0037 0.9555
vn 1.0000 -0.0036 -0.0002
vn -0.2949 -0.0037 -0.9555
vn 0.2648 -0.3934 -0.8804
vn 0.2646 0.5052 -0.8214
vn -0.8574 0.5134 0.0371
vn 0.2472 0.4877 0.8373
vn 0.6990 0.5127 -0.4986
vn -0.6990 0.5127 -0.4986
vn -0.2472 0.4877 0.8373
vn 0.8574 0.5134 0.0371
vn -0.2646 0.5052 -0.8214
vn -0.6693 0.5007 0.5489
vn -0.0000 -0.9993 -0.0383
vn -0.9049 -0.4250 -0.0234
vn 0.2736 -0.4237 0.8635
vn 0.7139 -0.4087 -0.5687
vn -0.7138 -0.4087 -0.5687
vn -0.2737 -0.4237 0.8635
vn 0.9049 -0.4250 -0.0234
vn -0.2648 -0.3934 -0.8804
vn -0.7288 -0.4283 0.5343
vn 0.7288 -0.4283 0.5342
vt 0.363438 0.711481
vt 0.363438 0.726109
vt 0.360512 0.726109
vt 0.360512 0.711481
vt 0.357587 0.726109
vt 0.357587 0.711481
vt 0.354661 0.726109
vt 0.354661 0.711481
vt 0.351735 0.726109
vt 0.351735 0.711481
vt 0.348809 0.726109
vt 0.348809 0.711481
vt 0.345884 0.726109
vt 0.345884 0.711481
vt 0.342958 0.726109
vt 0.342958 0.711481
vt 0.340032 0.726109
vt 0.340032 0.711481
vt 0.337107 0.726109
vt 0.337107 0.711481
vt 0.334181 0.726109
vt 0.334181 0.711481
vt 0.528209 0.786586
vt 0.531134 0.786586
vt 0.542837 0.786586
vt 0.545763 0.786586
vt 0.536986 0.786586
vt 0.539912 0.786586
vt 0.548689 0.786586
vt 0.554540 0.786586
vt 0.557466 0.786586
vt 0.534060 0.786586
vt 0.551614 0.786586
vt 0.539650 0.770323
vt 0.535523 0.771664
vt 0.531396 0.770323
vt 0.528845 0.766812
vt 0.528845 0.762473
vt 0.531396 0.758962
vt 0.535523 0.757621
vt 0.539650 0.758962
vt 0.542201 0.762473
vt 0.542201 0.766812
vt 0.471876 0.784556
vt 0.468950 0.784556
vt 0.480653 0.784556
vt 0.477727 0.784556
vt 0.489430 0.784556
vt 0.486504 0.784556
vt 0.466024 0.784556
vt 0.474802 0.784556
vt 0.483579 0.784556
vt 0.463099 0.784556
vt 0.460173 0.784556
vt 0.482116 0.784264
vt 0.486243 0.782923
vt 0.488794 0.779412
vt 0.488794 0.775072
vt 0.486243 0.771561
vt 0.482116 0.770220
vt 0.477989 0.771561
vt 0.475438 0.775072
vt 0.475438 0.779412
vt 0.477989 0.782923
s 1
usemtl Material.001
f 1/1/1 2/2/1 4/3/1 3/4/1
f 3/4/2 4/3/2 6/5/2 5/6/2
f 5/6/3 6/5/3 8/7/3 7/8/3
f 7/8/4 8/7/4 10/9/4 9/10/4
f 9/10/5 10/9/5 12/11/5 11/12/5
f 11/12/6 12/11/6 14/13/6 13/14/6
f 13/14/7 14/13/7 16/15/7 15/16/7
f 15/16/8 16/15/8 18/17/8 17/18/8
f 14/13/9 12/11/9 26/11/9 27/13/9
f 17/18/10 18/17/10 20/19/10 19/20/10
f 19/20/11 20/19/11 2/21/11 1/22/11
f 13/14/12 15/16/12 88/16/12 87/14/12
f 27/13/13 26/11/13 36/11/13 37/13/13
f 12/11/14 10/9/14 25/9/14 26/11/14
f 10/9/15 8/7/15 24/7/15 25/9/15
f 4/3/16 2/2/16 21/2/16 22/3/16
f 8/7/17 6/5/17 23/5/17 24/7/17
f 6/5/18 4/3/18 22/3/18 23/5/18
f 2/21/19 20/19/19 30/19/19 21/21/19
f 20/19/20 18/17/20 29/17/20 30/19/20
f 18/17/21 16/15/21 28/15/21 29/17/21
f 16/15/22 14/13/22 27/13/22 28/15/22
f 34/7/23 33/5/23 43/5/23 44/7/23
f 24/7/24 23/5/24 33/5/24 34/7/24
f 21/21/25 30/19/25 40/19/25 31/21/25
f 28/15/26 27/13/26 37/13/26 38/15/26
f 25/9/27 24/7/27 34/7/27 35/9/27
f 22/3/28 21/2/28 31/2/28 32/3/28
f 29/17/29 28/15/29 38/15/29 39/17/29
f 26/11/30 25/9/30 35/9/30 36/11/30
f 23/5/31 22/3/31 32/3/31 33/5/31
f 30/19/32 29/17/32 39/17/32 40/19/32
f 41/23/33 50/24/33 60/24/33 51/23/33
f 31/21/23 40/19/23 50/19/23 41/21/23
f 38/15/23 37/13/23 47/13/23 48/15/23
f 35/9/23 34/7/23 44/7/23 45/9/23
f 32/3/23 31/2/23 41/2/23 42/3/23
f 39/17/23 38/15/23 48/15/23 49/17/23
f 36/11/23 35/9/23 45/9/23 46/11/23
f 33/5/23 32/3/23 42/3/23 43/5/23
f 40/19/23 39/17/23 49/17/23 50/19/23
f 37/13/23 36/11/23 46/11/23 47/13/23
f 56/25/34 55/26/34 65/26/34 66/25/34
f 48/27/35 47/28/35 57/28/35 58/27/35
f 45/26/36 44/29/36 54/29/36 55/26/36
f 42/30/37 41/31/37 51/31/37 52/30/37
f 49/32/38 48/27/38 58/27/38 59/32/38
f 46/25/39 45/26/39 55/26/39 56/25/39
f 43/33/40 42/30/40 52/30/40 53/33/40
f 50/24/41 49/32/41 59/32/41 60/24/41
f 47/28/42 46/25/42 56/25/42 57/28/42
f 44/29/43 43/33/43 53/33/43 54/29/43
f 63/33/44 62/30/44 72/30/44 73/33/44
f 53/33/45 52/30/45 62/30/45 63/33/45
f 60/24/46 59/32/46 69/32/46 70/24/46
f 57/28/47 56/25/47 66/25/47 67/28/47
f 54/29/48 53/33/48 63/33/48 64/29/48
f 51/23/49 60/24/49 70/24/49 61/23/49
f 58/27/50 57/28/50 67/28/50 68/27/50
f 55/26/51 54/29/51 64/29/51 65/26/51
f 52/30/52 51/31/52 61/31/52 62/30/52
f 59/32/53 58/27/53 68/27/53 69/32/53
f 72/34/23 71/35/23 80/36/23 79/37/23 78/38/23 77/39/23 76/40/23 75/41/23 74/42/23 73/43/23
f 70/24/54 69/32/54 79/32/54 80/24/54
f 67/28/55 66/25/55 76/25/55 77/28/55
f 64/29/56 63/33/56 73/33/56 74/29/56
f 61/23/57 70/24/57 80/24/57 71/23/57
f 68/27/58 67/28/58 77/28/58 78/27/58
f 65/26/59 64/29/59 74/29/59 75/26/59
f 62/30/60 61/31/60 71/31/60 72/30/60
f 69/32/61 68/27/61 78/27/61 79/32/61
f 66/25/62 65/26/62 75/26/62 76/25/62
f 86/12/63 87/14/63 97/14/63 96/12/63
f 11/12/12 13/14/12 87/14/12 86/12/12
f 9/10/12 11/12/12 86/12/12 85/10/12
f 7/8/12 9/10/12 85/10/12 84/8/12
f 1/1/12 3/4/12 82/4/12 81/1/12
f 5/6/12 7/8/12 84/8/12 83/6/12
f 3/4/12 5/6/12 83/6/12 82/4/12
f 19/20/12 1/22/12 81/22/12 90/20/12
f 17/18/12 19/20/12 90/20/12 89/18/12
f 15/16/12 17/18/12 89/18/12 88/16/12
f 93/6/12 94/8/12 104/8/12 103/6/12
f 83/6/64 84/8/64 94/8/64 93/6/64
f 90/20/65 81/22/65 91/22/65 100/20/65
f 87/14/66 88/16/66 98/16/66 97/14/66
f 84/8/67 85/10/67 95/10/67 94/8/67
f 81/1/68 82/4/68 92/4/68 91/1/68
f 88/16/69 89/18/69 99/18/69 98/16/69
f 85/10/70 86/12/70 96/12/70 95/10/70
f 82/4/71 83/6/71 93/6/71 92/4/71
f 89/18/72 90/20/72 100/20/72 99/18/72
f 107/44/73 108/45/73 118/45/73 117/44/73
f 100/20/12 91/22/12 101/22/12 110/20/12
f 97/14/12 98/16/12 108/16/12 107/14/12
f 94/8/12 95/10/12 105/10/12 104/8/12
f 91/1/12 92/4/12 102/4/12 101/1/12
f 98/16/12 99/18/12 109/18/12 108/16/12
f 95/10/12 96/12/12 106/12/12 105/10/12
f 92/4/12 93/6/12 103/6/12 102/4/12
f 99/18/12 100/20/12 110/20/12 109/18/12
f 96/12/12 97/14/12 107/14/12 106/12/12
f 114/46/74 115/47/74 125/47/74 124/46/74
f 104/46/75 105/47/75 115/47/75 114/46/75
f 101/48/76 102/49/76 112/49/76 111/48/76
f 108/45/77 109/50/77 119/50/77 118/45/77
f 105/47/78 106/51/78 116/51/78 115/47/78
f 102/49/79 103/52/79 113/52/79 112/49/79
f 109/50/80 110/53/80 120/53/80 119/50/80
f 106/51/81 107/44/81 117/44/81 116/51/81
f 103/52/82 104/46/82 114/46/82 113/52/82
f 110/53/83 101/54/83 111/54/83 120/53/83
f 121/48/84 122/49/84 132/49/84 131/48/84
f 111/48/85 112/49/85 122/49/85 121/48/85
f 118/45/86 119/50/86 129/50/86 128/45/86
f 115/47/87 116/51/87 126/51/87 125/47/87
f 112/49/88 113/52/88 123/52/88 122/49/88
f 119/50/89 120/53/89 130/53/89 129/50/89
f 116/51/90 117/44/90 127/44/90 126/51/90
f 113/52/91 114/46/91 124/46/91 123/52/91
f 120/53/92 111/54/92 121/54/92 130/53/92
f 117/44/93 118/45/93 128/45/93 127/44/93
f 131/55/94 132/56/94 133/57/94 134/58/94 135/59/94 136/60/94 137/61/94 138/62/94 139/63/94 140/64/94
f 128/45/95 129/50/95 139/50/95 138/45/95
f 125/47/96 126/51/96 136/51/96 135/47/96
f 122/49/97 123/52/97 133/52/97 132/49/97
f 129/50/98 130/53/98 140/53/98 139/50/98
f 126/51/99 127/44/99 137/44/99 136/51/99
f 123/52/100 124/46/100 134/46/100 133/52/100
f 130/53/101 121/54/101 131/54/101 140/53/101
f 127/44/102 128/45/102 138/45/102 137/44/102
f 124/46/103 125/47/103 135/47/103 134/46/103
