# Blender 5.1.2
# www.blender.org
mtllib bell wood overlay.mtl
o Cylinder_Cylinder.Wood
v 0.000000 1.543280 -0.159920
v 0.098840 1.543280 -0.129380
v 0.159920 1.543280 -0.049420
v 0.159920 1.543280 0.049420
v 0.098840 1.543280 0.129380
v 0.000000 1.543280 0.159920
v -0.098840 1.543280 0.129380
v -0.159920 1.543280 0.049420
v -0.159920 1.543280 -0.049420
v -0.098840 1.543280 -0.129380
v 0.000000 2.462300 -0.159920
v 0.098840 2.462300 -0.129380
v 0.159920 2.462300 -0.049420
v 0.159920 2.462300 0.049420
v 0.098840 2.462300 0.129380
v 0.000000 2.462300 0.159920
v -0.098840 2.462300 0.129380
v -0.159920 2.462300 0.049420
v -0.159920 2.462300 -0.049420
v -0.098840 2.462300 -0.129380
v 0.000000 2.908580 -0.186280
v 0.115120 2.908580 -0.150700
v 0.186280 2.908580 -0.057560
v 0.186280 2.908580 0.057560
v 0.115120 2.908580 0.150700
v 0.000000 2.908580 0.186280
v -0.115120 2.908580 0.150700
v -0.186280 2.908580 0.057560
v -0.186280 2.908580 -0.057560
v -0.115120 2.908580 -0.150700
v 0.000000 2.958420 -0.130760
v 0.080820 2.958420 -0.105800
v 0.130760 2.958420 -0.040400
v 0.130760 2.958420 0.040400
v 0.080820 2.958420 0.105780
v 0.000000 2.958420 0.130760
v -0.080820 2.958420 0.105780
v -0.130760 2.958420 0.040400
v -0.130760 2.958420 -0.040400
v -0.080820 2.958420 -0.105800
vn -0.2952 -0.0000 -0.9554
vn 0.2948 -0.0563 0.9539
vn -0.7947 -0.0000 0.6070
vn 0.7947 -0.0000 0.6070
vn 0.2952 -0.0000 -0.9554
vn -1.0000 -0.0000 -0.0000
vn 0.2952 -0.0000 0.9554
vn 0.7947 -0.0000 -0.6070
vn -0.7947 -0.0000 -0.6070
vn -0.2952 -0.0000 0.9554
vn 1.0000 -0.0000 -0.0000
vn 0.5362 0.7381 -0.4095
vn 0.7933 -0.0579 -0.6061
vn -0.7933 -0.0579 -0.6061
vn -0.2948 -0.0563 0.9539
vn 0.9983 -0.0590 -0.0000
vn -0.2948 -0.0563 -0.9539
vn -0.7933 -0.0579 0.6061
vn 0.7933 -0.0579 0.6061
vn 0.2948 -0.0563 -0.9539
vn -0.9983 -0.0590 -0.0000
vn -0.0000 1.0000 -0.0000
vn -0.5362 0.7381 -0.4095
vn -0.2022 0.7288 0.6542
vn 0.6680 0.7441 -0.0000
vn -0.2022 0.7287 -0.6543
vn -0.5361 0.7381 0.4096
vn 0.5361 0.7381 0.4096
vn 0.2022 0.7287 -0.6543
vn -0.6680 0.7441 -0.0000
vn 0.2022 0.7288 0.6542
vn -0.0000 -1.0000 -0.0000
vt 0.528209 0.786586
vt 0.531134 0.786586
vt 0.542837 0.786586
vt 0.545763 0.786586
vt 0.536986 0.786586
vt 0.539912 0.786586
vt 0.548689 0.786586
vt 0.554540 0.786586
vt 0.557466 0.786586
vt 0.534060 0.786586
vt 0.551614 0.786586
vt 0.539650 0.770323
vt 0.535523 0.771664
vt 0.531396 0.770323
vt 0.528845 0.766812
vt 0.528845 0.762473
vt 0.531396 0.758962
vt 0.535523 0.757621
vt 0.539650 0.758962
vt 0.542201 0.762473
vt 0.542201 0.766812
s 1
usemtl Material.003
f 1/1/1 10/2/1 20/2/1 11/1/1
f 16/3/2 15/4/2 25/4/2 26/3/2
f 8/5/3 7/6/3 17/6/3 18/5/3
f 5/4/4 4/7/4 14/7/4 15/4/4
f 2/8/5 1/9/5 11/9/5 12/8/5
f 9/10/6 8/5/6 18/5/6 19/10/6
f 6/3/7 5/4/7 15/4/7 16/3/7
f 3/11/8 2/8/8 12/8/8 13/11/8
f 10/2/9 9/10/9 19/10/9 20/2/9
f 7/6/10 6/3/10 16/3/10 17/6/10
f 4/7/11 3/11/11 13/11/11 14/7/11
f 23/11/12 22/8/12 32/8/12 33/11/12
f 13/11/13 12/8/13 22/8/13 23/11/13
f 20/2/14 19/10/14 29/10/14 30/2/14
f 17/6/15 16/3/15 26/3/15 27/6/15
f 14/7/16 13/11/16 23/11/16 24/7/16
f 11/1/17 20/2/17 30/2/17 21/1/17
f 18/5/18 17/6/18 27/6/18 28/5/18
f 15/4/19 14/7/19 24/7/19 25/4/19
f 12/8/20 11/9/20 21/9/20 22/8/20
f 19/10/21 18/5/21 28/5/21 29/10/21
f 32/12/22 31/13/22 40/14/22 39/15/22 38/16/22 37/17/22 36/18/22 35/19/22 34/20/22 33/21/22
f 30/2/23 29/10/23 39/10/23 40/2/23
f 27/6/24 26/3/24 36/3/24 37/6/24
f 24/7/25 23/11/25 33/11/25 34/7/25
f 21/1/26 30/2/26 40/2/26 31/1/26
f 28/5/27 27/6/27 37/6/27 38/5/27
f 25/4/28 24/7/28 34/7/28 35/4/28
f 22/8/29 21/9/29 31/9/29 32/8/29
f 29/10/30 28/5/30 38/5/30 39/10/30
f 26/3/31 25/4/31 35/4/31 36/3/31
f 3/11/32 4/7/32 5/4/32 6/3/32 7/6/32 8/5/32 9/10/32 10/2/32 1/9/32 2/8/32
