# Blender 5.1.2
# www.blender.org
mtllib Wood Pipe Overlay.mtl
o Overlay
v -0.052016 0.039763 0.017396
v -0.063500 0.012278 0.019160
v -0.061530 0.043470 0.007252
v -0.073980 0.016362 0.007987
v -0.061575 0.043488 -0.007142
v -0.074029 0.016380 -0.007866
v -0.052123 0.039805 -0.017354
v -0.063619 0.012325 -0.019113
v -0.038711 0.034580 -0.017402
v -0.048847 0.006569 -0.019165
v -0.029196 0.030872 -0.007257
v -0.038941 0.002431 -0.008259
v -0.029151 0.030855 0.007136
v -0.038890 0.002412 0.008130
v -0.038603 0.034538 0.017348
v -0.048728 0.006523 0.019108
v -0.049120 0.038796 0.009966
v -0.054571 0.040921 0.004154
v -0.054597 0.040931 -0.004093
v -0.049181 0.038821 -0.009944
v -0.041497 0.035827 -0.009971
v -0.036045 0.033703 -0.004159
v -0.036019 0.033693 0.004087
v -0.041436 0.035803 0.009939
v -0.060340 0.009807 0.009798
v -0.065700 0.011895 0.004084
v -0.065724 0.011905 -0.004024
v -0.060400 0.009831 -0.009776
v -0.052846 0.006887 -0.009803
v -0.047415 0.004820 -0.004053
v -0.047390 0.004811 0.003983
v -0.052785 0.006864 0.009771
v -0.061692 0.007543 0.010864
v -0.067634 0.009858 0.004529
v -0.067661 0.009869 -0.004461
v -0.061759 0.007569 -0.010839
v -0.053382 0.004305 -0.010869
v -0.047440 0.001991 -0.004534
v -0.047412 0.001980 0.004456
v -0.053315 0.004280 0.010834
v -0.033834 0.016996 -0.008032
v -0.033784 0.016977 0.007906
v -0.036429 0.009976 -0.008432
v -0.039136 0.002242 -0.000065
v -0.036377 0.009956 0.008306
v -0.033637 0.017381 -0.000063
v -0.003270 0.002049 -0.007240
v -0.035309 0.001285 -0.008357
v -0.035258 0.001265 0.008202
v -0.030647 0.016324 -0.008042
v -0.030598 0.016306 0.007895
v -0.032957 0.008833 -0.009724
v -0.035680 -0.000130 -0.000077
v -0.032898 0.008810 0.009573
v -0.030198 0.017747 -0.000073
v 0.024348 0.002957 -0.007363
v -0.003225 0.002038 0.006932
v -0.001249 0.015369 -0.006947
v -0.001205 0.015359 0.006646
v -0.002264 0.008725 -0.008428
v -0.003421 0.000770 -0.000155
v -0.002211 0.008713 0.008123
v -0.001069 0.016634 -0.000150
v 0.068575 0.001076 -0.004597
v 0.024396 0.002952 0.006851
v 0.024686 0.016440 -0.007035
v 0.024732 0.016435 0.006529
v 0.024510 0.009709 -0.008529
v 0.024326 0.001648 -0.000256
v 0.024565 0.009704 0.008021
v 0.024734 0.017709 -0.000253
v 0.073059 -0.001453 -0.006071
v 0.068600 0.001065 0.003774
v 0.071709 0.009201 -0.004346
v 0.071733 0.009189 0.003527
v 0.070304 0.005539 -0.005332
v 0.068360 0.000237 -0.000412
v 0.070334 0.005525 0.004511
v 0.072033 0.009918 -0.000409
v 0.073093 -0.001470 0.005212
v 0.077203 0.008368 -0.005816
v 0.077234 0.008353 0.004963
v 0.075201 0.003427 -0.006956
v 0.072812 -0.002422 -0.000430
v 0.075240 0.003408 0.006100
v 0.077692 0.009226 -0.000428
v 0.074786 0.001691 -0.002192
v 0.074796 0.001686 0.001332
v 0.076249 0.004889 -0.002280
v 0.076259 0.004882 0.001423
v 0.075394 0.003277 -0.002300
v 0.074639 0.001841 -0.000429
v 0.075404 0.003270 0.001442
v 0.076249 0.005033 -0.000429
v -0.044157 0.008407 -0.001518
v -0.044147 0.008407 0.001442
v -0.044299 0.011346 -0.001345
v -0.044291 0.011346 0.001270
v -0.044025 0.009753 -0.001424
v -0.043944 0.008376 -0.000039
v -0.044015 0.009753 0.001346
v -0.044338 0.011272 -0.000038
v -0.036215 0.033665 -0.000036
v -0.047257 0.004922 -0.000036
v -0.042271 0.018658 0.003913
v -0.042295 0.018667 -0.003982
v -0.042369 0.018675 -0.000035
v -0.051985 0.039050 0.016696
v -0.063015 0.012605 0.018349
v -0.061117 0.042608 0.006960
v -0.073052 0.016516 0.007649
v -0.061160 0.042625 -0.006855
v -0.073099 0.016534 -0.007533
v -0.052088 0.039090 -0.016656
v -0.063129 0.012650 -0.018304
v -0.039216 0.034075 -0.016702
v -0.048983 0.007138 -0.018354
v -0.030084 0.030517 -0.006965
v -0.038947 0.003228 -0.007655
v -0.030041 0.030500 0.006849
v -0.038900 0.003210 0.007528
v -0.039112 0.034035 0.016650
v -0.048869 0.007094 0.018299
v -0.049622 0.038129 0.010516
v -0.055374 0.040371 0.004383
v -0.055401 0.040381 -0.004319
v -0.049687 0.038155 -0.010492
v -0.041579 0.034996 -0.010521
v -0.035826 0.032755 -0.004388
v -0.035799 0.032744 0.004313
v -0.041514 0.034970 0.010487
v -0.060843 0.009327 0.010516
v -0.066596 0.011568 0.004383
v -0.066622 0.011579 -0.004319
v -0.060908 0.009352 -0.010492
v -0.052800 0.006193 -0.010521
v -0.047048 0.003952 -0.004388
v -0.047021 0.003942 0.004313
v -0.052735 0.006168 0.010487
v -0.061257 0.008418 0.010651
v -0.067083 0.010688 0.004440
v -0.067110 0.010699 -0.004374
v -0.061323 0.008444 -0.010627
v -0.053110 0.005244 -0.010656
v -0.047284 0.002975 -0.004445
v -0.047257 0.002964 0.004369
v -0.053044 0.005219 0.010622
v -0.034515 0.016872 -0.007310
v -0.034470 0.016855 0.007188
v -0.036731 0.010050 -0.007482
v -0.038923 0.003219 -0.000064
v -0.036685 0.010032 0.007358
v -0.034493 0.016864 -0.000061
v -0.003303 0.002761 -0.006539
v -0.035120 0.001985 -0.007668
v -0.035073 0.001967 0.007514
v -0.030689 0.015630 -0.007323
v -0.030644 0.015613 0.007175
v -0.032908 0.008809 -0.008725
v -0.035464 0.000846 -0.000077
v -0.032855 0.008788 0.008574
v -0.030299 0.016752 -0.000074
v 0.024331 0.003649 -0.006641
v -0.003262 0.002751 0.006232
v -0.001256 0.014653 -0.006249
v -0.001217 0.014644 0.005947
v -0.002283 0.008708 -0.007428
v -0.003452 0.001770 -0.000154
v -0.002236 0.008697 0.007123
v -0.001067 0.015634 -0.000151
v 0.068868 0.001692 -0.003865
v 0.024373 0.003645 0.006130
v 0.024629 0.015713 -0.006351
v 0.024670 0.015709 0.005845
v 0.024477 0.009681 -0.007530
v 0.024327 0.002648 -0.000255
v 0.024525 0.009677 0.007022
v 0.024674 0.016711 -0.000253
v 0.072862 -0.000725 -0.005414
v 0.068888 0.001682 0.003042
v 0.071705 0.008431 -0.003708
v 0.071725 0.008421 0.002887
v 0.070428 0.005429 -0.004346
v 0.068667 0.001189 -0.000412
v 0.070451 0.005417 0.003524
v 0.071927 0.008924 -0.000410
v 0.072892 -0.000740 0.004559
v 0.076548 0.007948 -0.005188
v 0.076576 0.007934 0.004337
v 0.074703 0.003613 -0.006109
v 0.072572 -0.001451 -0.000428
v 0.074737 0.003596 0.005256
v 0.076868 0.008660 -0.000426
v 0.073894 0.001679 -0.002644
v 0.073907 0.001673 0.001790
v 0.075533 0.005536 -0.002543
v 0.075545 0.005529 0.001691
v 0.074712 0.003608 -0.002953
v 0.073765 0.001356 -0.000427
v 0.074727 0.003600 0.002100
v 0.075675 0.005852 -0.000426
v -0.043588 0.007751 -0.002014
v -0.043575 0.007750 0.001933
v -0.043495 0.011479 -0.001924
v -0.043483 0.011478 0.001845
v -0.043543 0.009615 -0.002289
v -0.043589 0.007441 -0.000041
v -0.043528 0.009614 0.002208
v -0.043482 0.011788 -0.000040
v -0.035813 0.032749 -0.000038
v -0.047034 0.003947 -0.000038
v -0.041410 0.018343 0.004313
v -0.041437 0.018353 -0.004388
v -0.041424 0.018348 -0.000038
vn -0.6341 0.3104 0.7082
vn -0.9087 0.4174 0.0033
vn -0.6385 0.3121 -0.7035
vn 0.0183 0.0562 -0.9983
vn 0.6725 -0.2020 -0.7120
vn -0.7153 -0.6988 0.0014
vn 0.6769 -0.2037 0.7073
vn 0.0245 0.0538 0.9982
vn 0.3468 0.9379 -0.0071
vn 0.3562 0.9342 -0.0173
vn 0.3769 0.9262 -0.0072
vn 0.3774 0.9260 -0.0000
vn 0.3769 0.9262 0.0071
vn 0.3696 0.9290 -0.0174
vn 0.3697 0.9290 0.0173
vn 0.3468 0.9379 0.0072
vn 0.3563 0.9342 0.0173
vn 0.3594 0.9332 -0.0000
vn 0.0051 0.0038 1.0000
vn 0.9337 -0.3580 -0.0033
vn -0.6706 0.2668 -0.6921
vn -0.6663 0.2651 0.6969
vn 0.6630 -0.2525 0.7048
vn 0.6586 -0.2508 -0.7094
vn -0.0011 0.0063 -1.0000
vn -0.3630 -0.9318 -0.0000
vn -0.0711 -0.9539 -0.2916
vn -0.3293 -0.8492 0.4128
vn -0.6018 -0.7430 0.2929
vn -0.6035 -0.7424 -0.2909
vn 0.0382 -0.9993 -0.0013
vn -0.3319 -0.8482 -0.4128
vn -0.0693 -0.9546 0.2898
vn 0.0460 0.9921 0.1164
vn 0.9489 -0.3155 -0.0033
vn -0.4430 -0.8906 0.1026
vn 0.0454 0.9924 -0.1144
vn -0.1332 0.1843 0.9738
vn 0.0475 0.2069 0.9772
vn 0.0397 -0.1857 -0.9818
vn 0.0446 -0.1873 0.9813
vn 0.0283 -0.9847 -0.1717
vn 0.0296 -0.9841 -0.1753
vn 0.0296 -0.9841 -0.1752
vn -0.4436 -0.8904 -0.1020
vn -0.1391 0.1866 -0.9725
vn -0.1964 -0.0370 0.9798
vn -0.2025 -0.0346 -0.9787
vn 0.0310 -0.9834 -0.1789
vn -0.0401 0.9821 0.1840
vn 0.0308 -0.9843 0.1735
vn 0.0324 -0.9836 0.1776
vn 0.0308 -0.9843 0.1736
vn -0.0414 0.9823 -0.1826
vn 0.0426 0.2086 -0.9771
vn 0.0379 0.9828 -0.1805
vn 0.0292 -0.9851 0.1696
vn 0.0387 0.9825 0.1822
vn -0.0299 -0.9821 0.1862
vn 0.1595 0.9697 -0.1852
vn 0.0885 0.2184 -0.9718
vn 0.0949 0.2170 0.9715
vn 0.0094 -0.1739 0.9847
vn 0.0020 -0.1728 -0.9850
vn -0.0045 0.2169 0.9762
vn -0.0120 0.2181 -0.9759
vn -0.1910 0.3061 -0.9326
vn -0.1855 0.3034 0.9346
vn -0.3263 -0.0288 -0.9448
vn -0.3205 -0.0316 0.9467
vn 0.1609 0.9694 0.1853
vn 0.1609 0.9694 0.1854
vn -0.0311 -0.9818 -0.1875
vn 0.0600 -0.1773 0.9823
vn 0.0533 -0.1757 -0.9830
vn 0.9167 -0.3923 -0.0755
vn 0.9167 -0.3924 -0.0754
vn 0.9086 -0.4165 -0.0314
vn 0.9090 -0.4154 -0.0342
vn 0.9092 -0.4155 0.0274
vn 0.9087 -0.4168 0.0249
vn 0.9172 -0.3926 0.0686
vn 0.9172 -0.3925 0.0688
vn 0.9016 -0.4325 -0.0033
vn 0.9365 -0.3474 0.0474
vn 0.9365 -0.3475 0.0475
vn 0.9516 -0.3074 -0.0032
vn 0.1104 0.9784 -0.1749
vn -0.5151 -0.8382 0.1790
vn 0.1115 0.9779 0.1771
vn -0.5162 -0.8377 -0.1784
vn 0.0555 0.9977 -0.0378
vn -0.0527 -0.9984 -0.0227
vn -0.0526 -0.9984 -0.0227
vn 0.0558 0.9977 0.0396
vn 0.0557 0.9977 0.0395
vn 0.0557 0.9977 0.0396
vn 0.0558 0.9977 0.0395
vn -0.0524 -0.9984 0.0214
vn 0.9362 -0.3473 -0.0540
vn 0.9362 -0.3474 -0.0541
vn 0.0002 0.0048 -1.0000
vn 0.0067 0.0029 1.0000
vn -0.0006 -0.0297 -0.9996
vn 0.0059 -0.0315 0.9995
vn 0.0058 -0.0315 0.9995
vn -0.9240 0.3815 -0.0265
vn -0.9243 0.3817 0.0033
vn -0.9238 0.3815 0.0331
vn -0.9661 0.2576 -0.0176
vn -0.9660 0.2576 0.0240
vn -0.8799 0.2542 -0.4016
vn -0.7385 0.6742 0.0029
vn -0.8774 0.2534 0.4075
vn 0.6347 -0.3090 -0.7083
vn 0.9093 -0.4160 -0.0033
vn 0.6391 -0.3107 0.7036
vn -0.0178 -0.0548 0.9983
vn -0.6765 0.2018 0.7083
vn 0.6982 0.7159 -0.0013
vn -0.6809 0.2035 -0.7036
vn -0.0240 -0.0524 -0.9983
vn -0.3631 -0.9318 -0.0000
vn -0.3631 -0.9318 0.0001
vn -0.3630 -0.9318 0.0001
vn -0.0031 0.0012 -1.0000
vn -0.9318 0.3630 0.0033
vn 0.6611 -0.2576 0.7047
vn 0.6567 -0.2558 -0.7094
vn -0.6610 0.2575 -0.7048
vn -0.6567 0.2558 0.7094
vn 0.0031 -0.0012 1.0000
vn 0.3630 0.9318 -0.0000
vn 0.0776 0.9577 0.2772
vn 0.3329 0.8582 -0.3907
vn 0.5908 0.7577 -0.2772
vn 0.5925 0.7571 0.2754
vn -0.0299 0.9996 0.0013
vn 0.3354 0.8572 0.3907
vn 0.0759 0.9583 -0.2754
vn -0.1662 -0.9827 -0.0815
vn -0.9511 0.3088 0.0033
vn 0.4430 0.8932 -0.0775
vn -0.1657 -0.9829 0.0802
vn 0.1066 -0.1476 -0.9833
vn -0.0471 -0.1860 -0.9814
vn -0.0401 0.1604 0.9862
vn -0.0450 0.1621 -0.9858
vn -0.0288 0.9883 0.1496
vn -0.0298 0.9880 0.1516
vn -0.0299 0.9880 0.1517
vn 0.4435 0.8930 0.0769
vn 0.1126 -0.1499 0.9823
vn 0.1591 0.0127 -0.9872
vn 0.1653 0.0103 0.9862
vn -0.0309 0.9876 0.1537
vn 0.0403 -0.9862 -0.1606
vn -0.0308 0.9882 -0.1499
vn -0.0309 0.9882 -0.1499
vn -0.0321 0.9878 -0.1524
vn 0.0415 -0.9864 0.1593
vn -0.0421 -0.1877 0.9813
vn -0.0379 -0.9868 0.1571
vn -0.0296 0.9886 -0.1474
vn -0.0386 -0.9866 -0.1588
vn 0.0326 0.9881 -0.1505
vn -0.1598 -0.9742 0.1591
vn -0.0841 -0.1837 0.9794
vn -0.0906 -0.1823 -0.9791
vn -0.0088 0.1481 -0.9889
vn -0.0013 0.1469 0.9891
vn 0.0037 -0.1931 -0.9812
vn 0.0113 -0.1942 0.9809
vn 0.2509 -0.3022 0.9196
vn 0.2454 -0.2995 -0.9220
vn 0.3640 -0.0177 0.9313
vn 0.3582 -0.0149 -0.9335
vn -0.1606 -0.9740 -0.1597
vn -0.1613 -0.9739 -0.1595
vn -0.1606 -0.9740 -0.1596
vn 0.0335 0.9879 0.1517
vn -0.0616 0.1496 -0.9868
vn -0.0549 0.1481 0.9875
vn -0.9204 0.3911 0.0034
vn -0.9203 0.3911 0.0034
vn -0.9203 0.3913 0.0036
vn -0.9204 0.3910 0.0033
vn -0.9204 0.3910 0.0034
vn -0.9204 0.3911 0.0033
vn -0.0523 -0.9871 0.1511
vn 0.5531 0.8191 -0.1523
vn -0.0532 -0.9867 -0.1537
vn 0.5541 0.8186 0.1514
vn -0.0518 -0.9872 -0.1507
vn 0.0499 0.9862 0.1576
vn 0.0492 0.9863 0.1576
vn 0.0492 0.9863 0.1577
vn -0.0513 -0.9874 0.1494
vn -0.0503 -0.9875 0.1494
vn 0.0485 0.9866 -0.1560
vn -0.0067 -0.1510 0.9885
vn -0.0131 -0.1493 -0.9887
vn 0.0110 0.1970 0.9803
vn 0.0052 0.1990 -0.9800
vn 0.0043 0.1994 -0.9799
vn 0.0052 0.1992 -0.9799
vn 0.0043 0.1992 -0.9800
vn 0.9318 -0.3630 -0.0032
vn 0.9318 -0.3630 -0.0033
vn 0.9318 -0.3630 -0.0034
vn 0.9566 -0.2912 0.0102
vn 0.9565 -0.2913 -0.0167
vn 0.8619 -0.2760 0.4254
vn 0.7320 -0.6813 -0.0029
vn 0.8593 -0.2752 -0.4311
vt 0.553149 0.779502
vt 0.550180 0.779502
vt 0.550180 0.791378
vt 0.553149 0.791378
vt 0.547211 0.779502
vt 0.547211 0.791378
vt 0.544242 0.779502
vt 0.544242 0.791378
vt 0.541272 0.779502
vt 0.541272 0.791378
vt 0.538303 0.779502
vt 0.538303 0.785440
vt 0.538303 0.788409
vt 0.538303 0.791378
vt 0.535334 0.779502
vt 0.532365 0.779502
vt 0.532365 0.791378
vt 0.535334 0.791378
vt 0.535334 0.788409
vt 0.535334 0.785440
vt 0.529396 0.779502
vt 0.529396 0.791378
vt 0.536819 0.779502
vt 0.228143 0.723705
vt 0.224112 0.722035
vt 0.222442 0.718004
vt 0.223277 0.715989
vt 0.224112 0.713973
vt 0.228143 0.712303
vt 0.232174 0.713973
vt 0.233844 0.718004
vt 0.232174 0.722035
vt 0.539365 0.777594
vt 0.541035 0.773563
vt 0.539365 0.769532
vt 0.535334 0.767862
vt 0.531303 0.769532
vt 0.529633 0.773563
vt 0.531303 0.777594
vt 0.535334 0.779264
vt 0.536819 0.791378
vt 0.536819 0.785440
vt 0.031922 0.967580
vt 0.030438 0.967580
vt 0.028953 0.961641
vt 0.030438 0.961641
vt 0.028953 0.967580
vt 0.031922 0.961641
vt 0.031922 0.964610
vt 0.028953 0.964610
vt 0.542345 0.771548
vt 0.543180 0.769532
s 1
usemtl Material.002
f 1/1/1 3/2/1 4/3/1 2/4/1
f 3/2/2 5/5/2 6/6/2 4/3/2
f 5/5/3 7/7/3 8/8/3 6/6/3
f 7/7/4 9/9/4 10/10/4 8/8/4
f 9/9/5 11/11/5 41/12/5 43/13/5 12/14/5 10/10/5
f 6/6/6 35/6/6 34/3/6 4/3/6
f 13/15/7 15/16/7 16/17/7 14/18/7 45/19/7 42/20/7
f 15/16/8 1/21/8 2/22/8 16/17/8
f 5/5/9 19/5/9 20/7/10 7/7/10
f 11/11/11 22/11/11 103/23/12 23/15/13 13/15/13
f 7/7/10 20/7/10 21/9/14 9/9/14
f 13/15/13 23/15/13 24/16/15 15/16/15
f 3/2/16 18/2/16 19/5/9 5/5/9
f 9/9/14 21/9/14 22/11/11 11/11/11
f 15/16/15 24/16/15 17/21/17 1/21/17
f 1/1/17 17/1/17 18/2/16 3/2/16
f 25/24/18 32/25/18 31/26/18 104/27/18 30/28/18 29/29/18 28/30/18 27/31/18 26/32/18
f 20/7/19 28/7/19 29/9/19 21/9/19
f 18/2/20 26/2/20 27/5/20 19/5/20
f 23/15/21 105/15/21 31/15/21 32/16/21 24/16/21
f 21/9/22 29/9/22 30/11/22 106/11/22 22/11/22
f 19/5/23 27/5/23 28/7/23 20/7/23
f 17/1/24 25/1/24 26/2/24 18/2/24
f 24/16/25 32/16/25 25/21/25 17/21/25
f 34/33/26 35/34/26 36/35/26 37/36/26 38/37/26 39/38/26 40/39/26 33/40/26
f 12/14/27 38/14/27 37/10/27 10/10/27
f 2/22/28 33/22/28 40/17/28 16/17/28
f 4/3/29 34/3/29 33/4/29 2/4/29
f 8/8/30 36/8/30 35/6/30 6/6/30
f 14/18/31 39/18/31 38/14/31 12/14/31 44/41/31
f 10/10/32 37/10/32 36/8/32 8/8/32
f 16/17/33 40/17/33 39/18/33 14/18/33
f 42/20/34 51/20/34 55/42/34 46/42/34
f 11/11/35 13/15/35 42/20/35 46/42/35 41/12/35
f 44/41/36 53/41/36 49/18/36 14/18/36
f 46/42/37 55/42/37 50/12/37 41/12/37
f 45/19/38 54/19/38 51/20/38 42/20/38
f 54/19/39 62/19/39 59/20/39 51/20/39
f 52/13/40 60/13/40 47/14/40 48/14/40
f 49/18/41 57/18/41 62/19/41 54/19/41
f 48/14/42 47/14/43 61/41/44 53/41/42
f 12/14/45 48/14/45 53/41/45 44/41/45
f 41/12/46 50/12/46 52/13/46 43/13/46
f 14/18/47 49/18/47 54/19/47 45/19/47
f 43/13/48 52/13/48 48/14/48 12/14/48
f 47/43/43 56/43/49 69/44/49 61/44/44
f 59/45/50 67/45/50 71/46/50 63/46/50
f 61/44/51 69/44/52 65/47/52 57/47/53
f 63/46/54 71/46/54 66/48/54 58/48/54
f 50/12/55 58/12/55 60/13/55 52/13/55
f 55/42/56 63/42/56 58/12/56 50/12/56
f 53/41/57 61/41/51 57/18/53 49/18/57
f 51/20/58 59/20/58 63/42/58 55/42/58
f 69/44/59 77/44/59 73/47/59 65/47/59
f 71/46/60 79/46/60 74/48/60 66/48/60
f 66/48/61 74/48/61 76/49/61 68/49/61
f 70/50/62 78/50/62 75/45/62 67/45/62
f 57/47/63 65/47/63 70/50/63 62/50/63
f 60/49/64 68/49/64 56/43/64 47/43/64
f 62/50/65 70/50/65 67/45/65 59/45/65
f 58/48/66 66/48/66 68/49/66 60/49/66
f 74/48/67 81/48/67 83/49/67 76/49/67
f 78/50/68 85/50/68 82/45/68 75/45/68
f 76/49/69 83/49/69 72/43/69 64/43/69
f 73/47/70 80/47/70 85/50/70 78/50/70
f 67/45/71 75/45/72 79/46/71 71/46/72
f 56/43/73 64/43/73 77/44/73 69/44/73
f 65/47/74 73/47/74 78/50/74 70/50/74
f 68/49/75 76/49/75 64/43/75 56/43/75
f 83/49/76 91/49/77 87/43/78 72/43/79
f 80/47/80 88/47/81 93/50/82 85/50/83
f 72/43/79 87/43/78 92/44/84 84/44/84
f 82/45/85 90/45/86 94/46/87 86/46/87
f 79/46/88 86/46/88 81/48/88 74/48/88
f 77/44/89 84/44/89 80/47/89 73/47/89
f 75/45/90 82/45/90 86/46/90 79/46/90
f 64/43/91 72/43/91 84/44/91 77/44/91
f 87/14/92 95/14/92 100/41/92 92/41/92
f 90/20/93 98/20/93 102/42/93 94/42/94
f 92/41/95 100/41/96 96/18/97 88/18/98
f 94/42/99 102/42/99 97/12/99 89/12/99
f 85/50/83 93/50/82 90/45/86 82/45/85
f 81/48/100 89/48/101 91/49/77 83/49/76
f 86/46/87 94/46/87 89/48/101 81/48/100
f 84/44/84 92/44/84 88/47/81 80/47/80
f 88/18/102 96/18/102 101/19/102 93/19/102
f 91/13/103 99/13/103 95/14/103 87/14/103
f 93/19/104 101/19/104 98/20/104 90/20/104
f 89/12/105 97/12/105 99/13/106 91/13/105
f 22/11/107 106/11/107 107/23/108 103/23/108
f 103/23/108 107/23/108 105/15/109 23/15/109
f 97/12/110 102/42/110 107/23/110 106/11/110
f 102/42/111 98/20/111 105/15/111 107/23/111
f 105/15/112 98/20/112 101/19/112 96/18/112 31/15/112
f 104/51/113 31/15/113 96/18/113 100/41/113 95/14/113 30/52/113
f 97/12/114 106/11/114 30/11/114 95/14/114 99/13/114
f 108/1/115 109/4/115 111/3/115 110/2/115
f 110/2/116 111/3/116 113/6/116 112/5/116
f 112/5/117 113/6/117 115/8/117 114/7/117
f 114/7/118 115/8/118 117/10/118 116/9/118
f 116/9/119 117/10/119 119/14/119 150/13/119 148/12/119 118/11/119
f 113/6/120 111/3/120 141/3/120 142/6/120
f 120/15/121 149/20/121 152/19/121 121/18/121 123/17/121 122/16/121
f 122/16/122 123/17/122 109/22/122 108/21/122
f 112/5/26 114/7/26 127/7/26 126/5/26
f 118/11/123 120/15/123 130/15/123 210/23/123 129/11/123
f 114/7/26 116/9/124 128/9/124 127/7/26
f 120/15/123 122/16/125 131/16/125 130/15/123
f 110/2/26 112/5/26 126/5/26 125/2/26
f 116/9/124 118/11/123 129/11/123 128/9/124
f 122/16/125 108/21/26 124/21/26 131/16/125
f 108/1/26 110/2/26 125/2/26 124/1/26
f 132/24/26 133/32/26 134/31/26 135/30/26 136/29/26 137/28/26 211/27/26 138/26/26 139/25/26
f 127/7/126 128/9/126 136/9/126 135/7/126
f 125/2/127 126/5/127 134/5/127 133/2/127
f 130/15/128 131/16/128 139/16/128 138/15/128 212/15/128
f 128/9/129 129/11/129 213/11/129 137/11/129 136/9/129
f 126/5/130 127/7/130 135/7/130 134/5/130
f 124/1/131 125/2/131 133/2/131 132/1/131
f 131/16/132 124/21/132 132/21/132 139/16/132
f 141/33/133 140/40/133 147/39/133 146/38/133 145/37/133 144/36/133 143/35/133 142/34/133
f 119/14/134 117/10/134 144/10/134 145/14/134
f 109/22/135 123/17/135 147/17/135 140/22/135
f 111/3/136 109/4/136 140/4/136 141/3/136
f 115/8/137 113/6/137 142/6/137 143/8/137
f 121/18/138 151/41/138 119/14/138 145/14/138 146/18/138
f 117/10/139 115/8/139 143/8/139 144/10/139
f 123/17/140 121/18/140 146/18/140 147/17/140
f 149/20/141 153/42/141 162/42/141 158/20/141
f 118/11/142 148/12/142 153/42/142 149/20/142 120/15/142
f 151/41/143 121/18/143 156/18/143 160/41/143
f 153/42/144 148/12/144 157/12/144 162/42/144
f 152/19/145 149/20/145 158/20/145 161/19/145
f 161/19/146 158/20/146 166/20/146 169/19/146
f 159/13/147 155/14/147 154/14/147 167/13/147
f 156/18/148 161/19/148 169/19/148 164/18/148
f 155/14/149 160/41/149 168/41/150 154/14/151
f 119/14/152 151/41/152 160/41/152 155/14/152
f 148/12/153 150/13/153 159/13/153 157/12/153
f 121/18/154 152/19/154 161/19/154 156/18/154
f 150/13/155 119/14/155 155/14/155 159/13/155
f 154/43/151 168/44/150 176/44/156 163/43/156
f 166/45/157 170/46/157 178/46/157 174/45/157
f 168/44/158 164/47/159 172/47/160 176/44/160
f 170/46/161 165/48/161 173/48/161 178/46/161
f 157/12/162 159/13/162 167/13/162 165/12/162
f 162/42/163 157/12/163 165/12/163 170/42/163
f 160/41/164 156/18/164 164/18/159 168/41/158
f 158/20/165 162/42/165 170/42/165 166/20/165
f 176/44/166 172/47/166 180/47/166 184/44/166
f 178/46/167 173/48/167 181/48/167 186/46/167
f 173/48/168 175/49/168 183/49/168 181/48/168
f 177/50/169 174/45/169 182/45/169 185/50/169
f 164/47/170 169/50/170 177/50/170 172/47/170
f 167/49/171 154/43/171 163/43/171 175/49/171
f 169/50/172 166/45/172 174/45/172 177/50/172
f 165/48/173 167/49/173 175/49/173 173/48/173
f 181/48/174 183/49/174 190/49/174 188/48/174
f 185/50/175 182/45/175 189/45/175 192/50/175
f 183/49/176 171/43/176 179/43/176 190/49/176
f 180/47/177 185/50/177 192/50/177 187/47/177
f 174/45/178 178/46/179 186/46/180 182/45/179
f 163/43/181 176/44/181 184/44/181 171/43/181
f 172/47/182 177/50/182 185/50/182 180/47/182
f 175/49/183 163/43/183 171/43/183 183/49/183
f 190/49/184 179/43/185 194/43/186 198/49/184
f 187/47/187 192/50/188 200/50/188 195/47/187
f 179/43/185 191/44/189 199/44/189 194/43/186
f 189/45/187 193/46/187 201/46/187 197/45/187
f 186/46/190 181/48/190 188/48/190 193/46/190
f 184/44/191 180/47/191 187/47/191 191/44/191
f 182/45/192 186/46/192 193/46/192 189/45/192
f 171/43/193 184/44/193 191/44/193 179/43/193
f 194/14/194 199/41/194 207/41/194 202/14/194
f 197/20/195 201/42/196 209/42/195 205/20/197
f 199/41/198 195/18/199 203/18/198 207/41/199
f 201/42/200 196/12/200 204/12/200 209/42/200
f 192/50/188 189/45/187 197/45/187 200/50/188
f 188/48/188 190/49/184 198/49/184 196/48/188
f 193/46/187 188/48/188 196/48/188 201/46/187
f 191/44/189 187/47/187 195/47/187 199/44/189
f 195/18/201 200/19/201 208/19/201 203/18/201
f 198/13/202 194/14/202 202/14/202 206/13/202
f 200/19/203 197/20/203 205/20/203 208/19/203
f 196/12/204 198/13/205 206/13/206 204/12/207
f 129/11/208 210/23/209 214/23/209 213/11/208
f 210/23/209 130/15/210 212/15/210 214/23/209
f 204/12/211 213/11/211 214/23/211 209/42/211
f 209/42/212 214/23/212 212/15/212 205/20/212
f 212/15/213 138/15/213 203/18/213 208/19/213 205/20/213
f 211/51/214 137/52/214 202/14/214 207/41/214 203/18/214 138/15/214
f 204/12/215 206/13/215 202/14/215 137/11/215 213/11/215
